<svg xmlns="http://www.w3.org/2000/svg" xmlns:v="https://svgstorm.com"
viewBox = "0 0 1424 650"
width="1424"
height="650">
<g fill="None" fill-opacity="0.0" stroke="#000000" stroke-opacity="0.00" stroke-width="0.3"><path d="
M 0.00 650.00 
L 1424.00 650.00
L 1424.00 0.00
L 0.00 0.00
L 0.00 650.00
M 795.00 47.00 
C 798.00 47.00 801.00 47.00 804.00 47.00
C 804.00 49.33 804.00 51.67 804.00 54.00
C 804.22 64.99 804.00 76.01 804.00 87.00
C 804.00 98.67 804.00 110.33 804.00 122.00
C 804.00 127.33 804.00 132.67 804.00 138.00
C 804.00 144.00 804.00 150.00 804.00 156.00
C 804.00 161.72 803.48 168.03 803.00 173.00
C 803.00 175.84 802.21 179.98 804.00 182.00
C 822.19 157.96 842.05 134.82 861.00 111.00
C 866.69 106.55 880.40 109.00 888.00 109.00
C 892.72 109.00 906.92 106.79 910.00 110.00
C 910.30 113.33 909.69 116.00 909.00 119.00
C 908.65 120.50 908.57 120.85 908.00 122.00
C 902.55 132.92 892.34 142.12 884.75 151.75 C 877.16 161.38 868.81 171.68 861.00 181.00
C 865.07 181.41 867.50 192.73 870.75 196.25 C 874.00 199.76 876.79 208.55 879.92 213.08 C 883.06 217.61 886.52 223.53 889.25 228.75 C 891.99 233.96 896.14 239.74 898.77 245.23 C 901.40 250.72 905.98 256.18 908.00 262.00
C 908.98 264.82 910.60 273.50 908.00 276.00
C 905.38 276.24 902.63 276.00 900.00 276.00
C 894.53 276.00 886.19 276.85 881.00 276.00 C 875.81 275.15 865.45 278.58 862.00 275.00
C 856.75 272.73 855.00 261.63 851.08 256.92 C 847.16 252.21 844.52 243.73 840.70 238.30 C 836.87 232.88 833.95 225.34 830.00 220.00
C 828.78 225.84 821.19 229.98 818.25 235.25 C 815.30 240.52 809.84 246.14 806.00 251.00
C 801.48 256.72 803.52 262.92 803.00 270.00
C 802.88 271.68 803.25 273.66 802.00 275.00
C 800.26 276.87 795.58 276.00 793.00 276.00
C 785.97 276.00 778.28 275.61 772.00 275.00
C 769.00 275.00 766.00 275.00 763.00 275.00
C 762.50 275.00 762.00 275.00 762.00 275.00
C 759.29 272.38 761.47 265.92 761.00 262.00 C 760.53 258.08 761.00 252.10 761.00 248.00
C 761.00 242.00 761.00 236.00 761.00 230.00
C 761.00 224.33 761.00 218.67 761.00 213.00
C 761.00 209.90 761.77 206.36 762.00 204.00
C 762.01 195.67 762.00 187.33 762.00 179.00
C 762.00 173.00 762.00 167.00 762.00 161.00
C 762.00 155.33 762.00 149.67 762.00 144.00
C 762.00 127.00 762.00 110.00 762.00 93.00
C 762.00 86.53 761.02 76.07 762.00 70.00 C 762.98 63.93 758.91 51.94 763.00 48.00
C 763.70 44.69 772.58 47.52 777.00 47.00 C 781.42 46.48 790.18 47.00 795.00 47.00
M 517.00 105.00 
C 524.31 106.19 530.36 107.56 537.00 111.00
C 538.22 111.63 539.04 112.30 540.00 113.00
C 547.53 117.29 554.29 121.77 560.00 129.00
C 565.88 136.45 571.68 144.80 574.00 154.00
C 578.59 172.25 576.00 192.55 576.00 212.00
C 576.00 223.67 576.00 235.33 576.00 247.00
C 576.00 254.15 577.45 263.02 576.00 270.00
C 575.74 271.28 576.20 272.71 576.00 274.00
C 562.67 274.00 549.33 274.00 536.00 274.00
C 535.65 273.95 535.05 273.35 535.00 273.00
C 533.07 259.63 535.00 244.52 535.00 231.00
C 535.00 215.20 537.21 197.62 535.00 182.00
C 534.81 180.64 534.38 179.35 534.00 178.00
C 532.97 174.39 531.34 171.15 529.00 168.00
C 525.58 163.39 521.13 160.18 516.00 158.00
C 514.98 157.57 512.77 156.24 512.00 156.00
C 496.70 153.20 480.48 162.19 476.00 178.00
C 474.26 189.39 476.00 202.45 476.00 214.00
C 476.00 219.33 476.00 224.67 476.00 230.00
C 476.00 236.00 476.00 242.00 476.00 248.00
C 476.00 252.74 475.39 258.01 475.00 262.00
C 475.00 266.00 475.00 270.00 475.00 274.00
C 472.33 274.00 469.67 274.00 467.00 274.00
C 462.33 274.00 457.67 274.00 453.00 274.00
C 448.75 274.00 436.79 275.91 434.00 273.00
C 433.62 271.18 434.00 268.86 434.00 267.00
C 434.00 261.33 434.00 255.67 434.00 250.00
C 434.00 227.33 434.00 204.67 434.00 182.00
C 434.00 170.67 434.00 159.33 434.00 148.00
C 434.00 137.28 434.03 126.32 435.00 116.00
C 435.20 113.87 434.08 109.90 435.00 108.00
C 436.56 104.78 442.09 105.64 445.00 107.00
C 450.43 109.54 453.82 116.79 457.00 121.00
C 459.66 121.48 460.32 117.47 463.00 118.00
C 468.57 109.84 484.00 106.58 493.00 105.00
C 500.78 103.63 509.63 103.80 517.00 105.00
M 731.00 109.00 
C 731.25 109.26 731.00 110.00 731.00 110.00
C 731.00 113.67 731.00 117.33 731.00 121.00
C 731.00 124.33 731.00 127.67 731.00 131.00
C 731.00 137.33 731.00 143.67 731.00 150.00
C 731.00 152.84 731.99 158.09 730.00 160.00
C 712.33 161.59 693.75 160.00 676.00 160.00
C 666.78 160.00 656.07 158.47 647.00 160.00
C 641.56 161.65 641.10 164.77 647.00 167.00
C 652.36 168.23 659.48 167.00 665.00 167.00
C 675.31 167.00 686.47 166.85 696.00 168.00
C 709.75 168.28 724.57 175.01 732.00 187.00
C 734.69 190.45 736.43 192.76 738.00 197.00
C 741.08 205.34 741.33 212.23 741.00 221.00
C 740.84 225.14 740.56 229.54 740.00 233.00
C 738.78 255.52 714.60 274.52 694.00 274.00
C 683.07 274.92 670.64 275.00 659.00 275.00
C 654.33 275.00 649.67 275.00 645.00 275.00
C 635.33 275.00 625.67 275.00 616.00 275.00
C 611.39 275.00 606.59 275.39 602.00 275.00
C 601.02 274.92 599.24 275.46 599.00 274.00
C 595.23 270.38 598.80 259.54 598.00 254.00 C 597.20 248.46 597.83 238.89 598.00 233.00
C 598.07 230.51 598.34 228.89 599.00 227.00
C 599.42 225.81 598.68 224.22 599.00 223.00
C 614.00 223.00 629.00 223.00 644.00 223.00
C 651.92 223.00 660.11 223.73 668.00 223.00 C 675.89 222.27 685.31 224.85 693.00 223.00
C 694.41 222.44 695.59 221.54 697.00 221.00
C 696.34 218.41 694.54 220.30 693.00 219.00
C 677.68 217.34 660.69 219.24 646.00 218.00
C 637.75 218.21 623.33 215.78 618.00 208.00
C 613.60 204.60 610.36 201.52 607.00 197.00
C 602.87 191.45 601.53 185.49 600.00 179.00
C 599.68 177.66 599.24 175.82 599.00 174.00
C 598.51 170.23 598.65 167.69 599.00 164.00
C 599.92 154.20 599.56 146.67 603.00 138.00
C 604.03 135.40 604.41 132.62 607.00 131.00
C 607.18 130.57 607.00 130.00 607.00 130.00
C 610.27 124.75 614.69 120.10 620.00 117.00
C 620.89 116.20 620.79 116.43 622.00 116.00
C 625.00 113.94 627.40 112.33 631.00 111.00
C 640.86 107.36 651.19 108.00 662.00 108.00
C 676.33 108.00 690.67 108.00 705.00 108.00
C 710.36 108.00 727.51 105.39 731.00 109.00 Z"/>
</g>
<g fill="None" fill-opacity="0.0" stroke="#74C804" stroke-opacity="0.89" stroke-width="0.3"><path d="
M 763.00 48.00 
C 762.90 48.48 763.00 49.00 763.00 49.00
C 764.50 46.11 773.67 48.07 778.00 48.00 C 782.33 47.93 791.05 47.38 795.00 47.00
C 790.18 47.00 781.42 46.48 777.00 47.00 C 772.58 47.52 763.70 44.69 763.00 48.00 Z"/>
</g>
<g fill="None" fill-opacity="0.0" stroke="#77CCFC" stroke-opacity="0.99" stroke-width="0.3"><path d="
M 763.00 49.00 
C 762.99 63.67 763.00 78.33 763.00 93.00
C 763.00 110.00 763.00 127.00 763.00 144.00
C 763.00 149.72 762.48 156.03 762.00 161.00
C 762.00 167.00 762.00 173.00 762.00 179.00
C 762.79 187.18 762.79 196.89 762.00 205.00
C 762.00 207.67 762.00 210.33 762.00 213.00
C 762.00 218.67 762.00 224.33 762.00 230.00
C 762.00 236.00 762.00 242.00 762.00 248.00
C 762.00 256.67 762.00 265.33 762.00 274.00
C 767.82 271.35 762.74 256.77 764.00 250.00 C 765.26 243.23 763.40 230.98 764.00 223.00 C 764.60 215.02 763.66 204.52 764.00 196.00 C 764.34 187.48 763.69 177.73 764.00 169.00 C 764.31 160.27 763.51 150.76 764.00 142.00 C 764.49 133.24 763.01 123.64 764.00 115.00 C 764.99 106.36 765.23 97.96 765.00 89.00 C 764.77 80.04 765.17 70.97 765.00 62.00
C 776.67 62.00 788.33 62.00 800.00 62.00
C 800.50 62.00 801.00 62.00 801.00 62.00
C 801.16 61.84 803.00 60.00 803.00 60.00
C 803.06 57.92 803.87 55.37 804.00 54.00
C 804.00 51.67 804.00 49.33 804.00 47.00
C 801.00 47.00 798.00 47.00 795.00 47.00
C 791.05 47.38 782.33 47.93 778.00 48.00 C 773.67 48.07 764.50 46.11 763.00 49.00 Z"/>
</g>
<g fill="None" fill-opacity="0.0" stroke="#6CCE26" stroke-opacity="0.51" stroke-width="0.3"><path d="
M 762.00 93.00 
C 762.00 92.96 763.00 93.00 763.00 93.00
C 763.00 78.33 762.99 63.67 763.00 49.00
C 763.00 49.00 762.90 48.48 763.00 48.00
C 758.91 51.94 762.98 63.93 762.00 70.00 C 761.02 76.07 762.00 86.53 762.00 93.00 Z"/>
</g>
<g fill="None" fill-opacity="0.0" stroke="#6871BC" stroke-opacity="0.38" stroke-width="0.3"><path d="
M 803.00 60.00 
C 802.75 68.98 803.00 78.01 803.00 87.00
C 803.00 86.96 804.00 87.00 804.00 87.00
C 804.00 76.01 804.22 64.99 804.00 54.00
C 803.87 55.37 803.06 57.92 803.00 60.00 Z"/>
</g>
<g fill="None" fill-opacity="0.0" stroke="#496ECD" stroke-opacity="0.94" stroke-width="0.3"><path d="
M 801.00 62.00 
C 804.99 105.97 798.01 150.94 801.00 195.00
C 802.84 192.93 801.28 189.00 804.00 187.00
C 806.65 195.74 811.65 180.06 816.00 178.00
C 816.16 177.56 816.00 177.00 816.00 177.00
C 818.92 173.17 822.08 169.59 825.00 166.00
C 827.83 161.61 831.13 157.10 834.00 153.00
C 836.10 150.00 838.63 147.53 841.00 145.00
C 847.57 137.97 852.11 129.47 858.00 122.00
C 859.63 119.93 860.89 117.40 863.00 116.00
C 866.36 113.76 871.64 113.68 876.00 114.00 C 880.36 114.32 884.69 110.86 888.00 110.00
C 880.21 110.70 867.84 107.23 861.00 111.00
C 842.05 134.82 822.19 157.96 804.00 182.00
C 802.21 179.98 803.00 175.84 803.00 173.00
C 803.00 167.33 803.00 161.67 803.00 156.00
C 803.00 150.00 803.00 144.00 803.00 138.00
C 803.00 132.67 803.00 127.33 803.00 122.00
C 803.00 110.33 803.00 98.67 803.00 87.00
C 803.00 78.01 802.75 68.98 803.00 60.00
C 803.00 60.00 801.16 61.84 801.00 62.00 Z"/>
</g>
<g fill="None" fill-opacity="0.0" stroke="#62A6EF" stroke-opacity="1.00" stroke-width="0.3"><path d="
M 762.00 274.00 
C 762.00 274.50 762.00 275.00 762.00 275.00
C 762.00 275.00 762.50 275.00 763.00 275.00
C 765.21 270.14 774.97 273.97 780.00 273.00 C 785.03 272.03 794.56 273.73 800.00 273.00
C 799.25 265.22 799.14 253.82 804.75 248.75 C 810.36 243.68 813.24 236.52 817.77 231.77 C 822.30 227.02 827.33 216.32 830.00 220.00
C 833.95 225.34 836.87 232.88 840.70 238.30 C 844.52 243.73 847.16 252.21 851.08 256.92 C 855.00 261.63 856.75 272.73 862.00 275.00
C 862.42 275.18 863.00 275.00 863.00 275.00
C 867.32 271.80 877.10 274.07 883.00 274.00 C 888.90 273.93 899.04 272.69 905.00 274.00
C 899.36 269.00 897.21 258.94 892.08 252.92 C 886.95 246.90 883.34 237.55 879.23 230.77 C 875.12 223.99 870.23 214.98 867.08 207.92 C 863.92 200.87 854.21 192.89 855.00 185.00
C 855.72 177.83 866.90 171.26 870.75 164.75 C 874.61 158.25 882.17 150.26 887.30 144.30 C 892.43 138.35 897.76 128.78 904.00 124.00
C 894.61 126.15 885.02 124.28 875.00 124.00 C 864.98 123.72 861.78 127.23 855.00 134.00
C 849.01 141.01 843.19 148.44 838.00 156.00
C 829.70 168.10 819.33 178.87 810.00 190.00
C 807.92 193.16 804.64 200.04 800.00 197.00
C 806.36 191.82 812.09 185.70 816.00 178.00
C 811.65 180.06 806.65 195.74 804.00 187.00
C 801.28 189.00 802.84 192.93 801.00 195.00
C 802.13 151.88 796.05 105.76 800.00 62.00
C 788.33 62.00 776.67 62.00 765.00 62.00
C 765.17 70.97 764.77 80.04 765.00 89.00 C 765.23 97.96 764.99 106.36 764.00 115.00 C 763.01 123.64 764.49 133.24 764.00 142.00 C 763.51 150.76 764.31 160.27 764.00 169.00 C 763.69 177.73 764.34 187.48 764.00 196.00 C 763.66 204.52 764.60 215.02 764.00 223.00 C 763.40 230.98 765.26 243.23 764.00 250.00 C 762.74 256.77 767.82 271.35 762.00 274.00 Z"/>
</g>
<g fill="None" fill-opacity="0.0" stroke="#4E80DA" stroke-opacity="1.00" stroke-width="0.3"><path d="
M 801.00 195.00 
C 798.01 150.94 804.99 105.97 801.00 62.00
C 801.00 62.00 800.50 62.00 800.00 62.00
C 796.05 105.76 802.13 151.88 801.00 195.00 Z"/>
</g>
<g fill="None" fill-opacity="0.0" stroke="#7D70E8" stroke-opacity="0.26" stroke-width="0.3"><path d="
M 803.00 122.00 
C 803.00 121.96 804.00 122.00 804.00 122.00
C 804.00 110.33 804.00 98.67 804.00 87.00
C 804.00 87.00 803.00 86.96 803.00 87.00
C 803.00 98.67 803.00 110.33 803.00 122.00 Z"/>
</g>
<g fill="None" fill-opacity="0.0" stroke="#81D2F7" stroke-opacity="0.72" stroke-width="0.3"><path d="
M 762.00 144.00 
C 762.00 143.96 763.00 144.00 763.00 144.00
C 763.00 127.00 763.00 110.00 763.00 93.00
C 763.00 93.00 762.00 92.96 762.00 93.00
C 762.00 110.00 762.00 127.00 762.00 144.00 Z"/>
</g>
<g fill="None" fill-opacity="0.0" stroke="#79CDF8" stroke-opacity="0.97" stroke-width="0.3"><path d="
M 493.00 105.00 
C 491.08 106.92 493.67 114.14 492.00 117.00
C 498.33 117.00 504.67 117.00 511.00 117.00
C 508.06 119.80 501.87 116.16 499.00 119.00
C 506.84 118.47 515.10 120.93 522.00 119.00
C 518.52 118.47 515.36 116.97 512.00 116.00
C 512.00 112.33 512.00 108.67 512.00 105.00
C 513.67 105.00 515.33 105.00 517.00 105.00
C 509.63 103.80 500.78 103.63 493.00 105.00 Z"/>
</g>
<g fill="None" fill-opacity="0.0" stroke="#83E3F8" stroke-opacity="0.96" stroke-width="0.3"><path d="
M 463.00 118.00 
C 462.77 118.34 463.00 119.00 463.00 119.00
C 463.00 126.00 462.69 128.27 458.00 133.00
C 457.47 133.68 457.12 135.02 456.00 135.00
C 461.50 137.76 468.17 128.05 474.70 125.69 C 481.22 123.34 491.22 119.53 499.00 119.00
C 501.87 116.16 508.06 119.80 511.00 117.00
C 504.67 117.00 498.33 117.00 492.00 117.00
C 493.67 114.14 491.08 106.92 493.00 105.00
C 484.00 106.58 468.57 109.84 463.00 118.00 Z"/>
</g>
<g fill="None" fill-opacity="0.0" stroke="#62A6EF" stroke-opacity="1.00" stroke-width="0.3"><path d="
M 499.00 119.00 
C 491.22 119.53 481.22 123.34 474.70 125.69 C 468.17 128.05 461.50 137.76 456.00 135.00
C 454.36 134.97 451.47 129.13 450.23 127.77 C 448.99 126.41 444.53 122.99 444.00 121.00
C 442.43 122.91 439.04 121.55 437.00 122.00
C 436.33 171.91 438.33 222.53 436.00 272.00
C 436.50 271.95 437.00 272.00 437.00 272.00
C 445.06 266.04 462.51 274.39 472.00 271.00
C 472.67 241.17 470.67 210.01 473.00 181.00
C 478.77 154.96 515.22 142.54 529.00 168.00
C 531.34 171.15 532.97 174.39 534.00 178.00
C 538.30 186.14 537.59 198.04 537.00 208.00 C 536.41 217.96 538.52 231.49 537.00 241.00 C 535.48 250.51 541.27 266.25 535.00 273.00
C 535.05 273.35 535.65 273.95 536.00 274.00
C 540.43 269.88 547.64 273.70 553.00 272.00 C 558.36 270.30 568.59 275.09 573.00 272.00
C 572.98 263.83 573.03 256.23 573.00 248.00 C 572.97 239.77 573.06 231.31 573.00 223.00 C 572.94 214.69 573.12 207.50 573.00 199.00 C 572.88 190.50 573.67 183.59 572.01 174.99 C 570.34 166.40 571.08 164.92 566.08 155.92 C 561.07 146.93 554.03 134.46 544.25 128.75 C 534.48 123.03 542.17 118.24 537.00 111.00
C 530.36 107.56 524.31 106.19 517.00 105.00
C 515.33 105.00 513.67 105.00 512.00 105.00
C 512.00 108.67 512.00 112.33 512.00 116.00
C 515.36 116.97 518.52 118.47 522.00 119.00
C 515.10 120.93 506.84 118.47 499.00 119.00 Z"/>
</g>
<g fill="None" fill-opacity="0.0" stroke="#72C723" stroke-opacity="0.25" stroke-width="0.3"><path d="
M 435.00 108.00 
C 436.86 105.37 442.49 107.93 445.00 107.00
C 442.09 105.64 436.56 104.78 435.00 108.00 Z"/>
</g>
<g fill="None" fill-opacity="0.0" stroke="#77CEFB" stroke-opacity="0.99" stroke-width="0.3"><path d="
M 435.00 108.00 
C 434.08 109.90 435.20 113.87 435.00 116.00
C 435.16 125.34 435.00 137.55 435.00 148.00
C 435.00 159.33 435.00 170.67 435.00 182.00
C 435.00 204.67 435.00 227.33 435.00 250.00
C 435.00 255.72 434.48 262.03 434.00 267.00
C 434.00 268.86 433.62 271.18 434.00 273.00
C 434.02 273.10 435.00 273.00 435.00 273.00
C 435.26 272.88 435.65 272.03 436.00 272.00
C 438.33 222.53 436.33 171.91 437.00 122.00
C 439.04 121.55 442.43 122.91 444.00 121.00
C 442.78 116.38 446.39 111.78 445.00 107.00
C 442.49 107.93 436.86 105.37 435.00 108.00 Z"/>
</g>
<g fill="None" fill-opacity="0.0" stroke="#5481D8" stroke-opacity="0.95" stroke-width="0.3"><path d="
M 444.00 121.00 
C 444.53 122.99 448.99 126.41 450.23 127.77 C 451.47 129.13 454.36 134.97 456.00 135.00
C 457.12 135.02 457.47 133.68 458.00 133.00
C 460.77 129.45 459.66 120.52 463.00 119.00
C 463.00 119.00 462.77 118.34 463.00 118.00
C 460.32 117.47 459.66 121.48 457.00 121.00
C 453.82 116.79 450.43 109.54 445.00 107.00
C 446.39 111.78 442.78 116.38 444.00 121.00 Z"/>
</g>
<g fill="None" fill-opacity="0.0" stroke="#81DFF8" stroke-opacity="0.97" stroke-width="0.3"><path d="
M 631.00 111.00 
C 627.94 112.65 625.52 114.74 622.00 116.00
C 620.79 116.43 620.89 116.20 620.00 117.00
C 615.89 120.70 611.53 127.05 607.00 130.00
C 607.00 130.00 607.18 130.57 607.00 131.00
C 605.86 133.77 604.37 135.70 603.00 138.00
C 599.56 146.67 599.92 154.20 599.00 164.00
C 599.04 166.40 598.99 171.59 599.00 174.00
C 599.24 175.82 599.68 177.66 600.00 179.00
C 600.02 171.95 601.36 162.97 603.32 156.32 C 605.29 149.68 607.14 144.30 612.25 139.25 C 617.36 134.19 620.55 131.32 627.08 128.08 C 633.60 124.83 641.02 122.85 649.00 123.00 C 656.98 123.15 666.90 123.53 675.00 123.00 C 683.10 122.47 693.15 124.56 701.00 123.00 C 708.85 121.44 721.00 126.47 728.00 123.00
C 728.09 122.99 719.96 119.79 715.00 121.00 C 710.04 122.21 702.53 120.40 697.00 121.00 C 691.47 121.60 684.77 120.62 679.00 121.00 C 673.23 121.38 666.86 120.57 661.00 121.00 C 655.14 121.43 649.79 119.93 644.00 120.00
C 644.00 116.33 644.00 112.67 644.00 109.00
C 650.00 109.00 656.00 109.00 662.00 109.00
C 661.96 109.00 662.00 108.00 662.00 108.00
C 651.19 108.00 640.86 107.36 631.00 111.00 Z"/>
</g>
<g fill="None" fill-opacity="0.0" stroke="#98C4DA" stroke-opacity="0.65" stroke-width="0.3"><path d="
M 662.00 109.00 
C 676.33 109.00 690.67 109.00 705.00 109.00
C 704.96 109.00 705.00 108.00 705.00 108.00
C 690.67 108.00 676.33 108.00 662.00 108.00
C 662.00 108.00 661.96 109.00 662.00 109.00 Z"/>
</g>
<g fill="None" fill-opacity="0.0" stroke="#88B6E2" stroke-opacity="0.46" stroke-width="0.3"><path d="
M 705.00 109.00 
C 713.55 109.00 722.49 108.23 731.00 109.00
C 727.51 105.39 710.36 108.00 705.00 108.00
C 705.00 108.00 704.96 109.00 705.00 109.00 Z"/>
</g>
<g fill="None" fill-opacity="0.0" stroke="#74C5FD" stroke-opacity="1.00" stroke-width="0.3"><path d="
M 728.00 123.00 
C 728.03 122.93 729.88 121.12 730.00 121.00
C 729.71 117.79 729.26 112.36 731.00 110.00
C 731.00 110.00 731.25 109.26 731.00 109.00
C 722.49 108.23 713.55 109.00 705.00 109.00
C 690.67 109.00 676.33 109.00 662.00 109.00
C 656.00 109.00 650.00 109.00 644.00 109.00
C 644.00 112.67 644.00 116.33 644.00 120.00
C 649.79 119.93 655.14 121.43 661.00 121.00 C 666.86 120.57 673.23 121.38 679.00 121.00 C 684.77 120.62 691.47 121.60 697.00 121.00 C 702.53 120.40 710.04 122.21 715.00 121.00 C 719.96 119.79 728.09 122.99 728.00 123.00 Z"/>
</g>
<g fill="None" fill-opacity="0.0" stroke="#827EA7" stroke-opacity="0.61" stroke-width="0.3"><path d="
M 861.00 111.00 
C 867.84 107.23 880.21 110.70 888.00 110.00
C 887.96 110.00 888.00 109.00 888.00 109.00
C 880.40 109.00 866.69 106.55 861.00 111.00 Z"/>
</g>
<g fill="None" fill-opacity="0.0" stroke="#8EB8DD" stroke-opacity="0.51" stroke-width="0.3"><path d="
M 888.00 110.00 
C 890.94 110.27 894.04 110.00 897.00 110.00
C 901.00 110.00 905.00 110.00 909.00 110.00
C 909.50 110.00 910.00 110.00 910.00 110.00
C 906.92 106.79 892.72 109.00 888.00 109.00
C 888.00 109.00 887.96 110.00 888.00 110.00 Z"/>
</g>
<g fill="None" fill-opacity="0.0" stroke="#5A98EB" stroke-opacity="0.96" stroke-width="0.3"><path d="
M 730.00 121.00 
C 730.26 120.75 731.00 121.00 731.00 121.00
C 731.00 117.33 731.00 113.67 731.00 110.00
C 729.26 112.36 729.71 117.79 730.00 121.00 Z"/>
</g>
<g fill="None" fill-opacity="0.0" stroke="#63A5EF" stroke-opacity="1.00" stroke-width="0.3"><path d="
M 863.00 116.00 
C 867.95 114.08 875.60 114.70 881.01 114.01 C 886.42 113.31 892.26 111.05 897.00 110.00
C 894.04 110.00 890.94 110.27 888.00 110.00
C 884.69 110.86 880.36 114.32 876.00 114.00 C 871.64 113.68 866.36 113.76 863.00 116.00 Z"/>
</g>
<g fill="None" fill-opacity="0.0" stroke="#76C9FD" stroke-opacity="1.00" stroke-width="0.3"><path d="
M 863.00 116.00 
C 860.89 117.40 859.63 119.93 858.00 122.00
C 859.17 120.92 860.71 119.85 862.00 119.00
C 866.05 124.50 857.91 128.93 855.00 134.00
C 861.78 127.23 864.98 123.72 875.00 124.00 C 885.02 124.28 894.61 126.15 904.00 124.00
C 905.10 123.15 907.09 123.00 908.00 122.00
C 908.57 120.85 908.65 120.50 909.00 119.00
C 909.13 117.14 908.75 112.80 909.00 110.00
C 905.00 110.00 901.00 110.00 897.00 110.00
C 892.26 111.05 886.42 113.31 881.01 114.01 C 875.60 114.70 867.95 114.08 863.00 116.00 Z"/>
</g>
<g fill="None" fill-opacity="0.0" stroke="#74BD44" stroke-opacity="0.25" stroke-width="0.3"><path d="
M 909.00 119.00 
C 909.69 116.00 910.30 113.33 910.00 110.00
C 910.00 110.00 909.50 110.00 909.00 110.00
C 908.75 112.80 909.13 117.14 909.00 119.00 Z"/>
</g>
<g fill="None" fill-opacity="0.0" stroke="#507ED8" stroke-opacity="0.98" stroke-width="0.3"><path d="
M 573.00 272.00 
C 577.13 269.11 572.80 257.41 574.00 252.00 C 575.20 246.59 573.47 237.25 574.00 231.00 C 574.53 224.75 573.79 216.58 574.00 210.00 C 574.21 203.42 573.98 195.62 574.00 189.00 C 574.02 182.38 574.56 175.06 573.07 168.93 C 571.59 162.79 571.65 157.00 570.00 151.00
C 572.34 150.32 571.86 153.87 574.00 154.00
C 571.68 144.80 565.88 136.45 560.00 129.00
C 554.10 122.62 546.57 117.82 540.00 113.00
C 539.04 112.30 538.22 111.63 537.00 111.00
C 542.17 118.24 534.48 123.03 544.25 128.75 C 554.03 134.46 561.07 146.93 566.08 155.92 C 571.08 164.92 570.34 166.40 572.01 174.99 C 573.67 183.59 572.88 190.50 573.00 199.00 C 573.12 207.50 572.94 214.69 573.00 223.00 C 573.06 231.31 572.97 239.77 573.00 248.00 C 573.03 256.23 572.98 263.83 573.00 272.00 Z"/>
</g>
<g fill="None" fill-opacity="0.0" stroke="#7DE880" stroke-opacity="0.36" stroke-width="0.3"><path d="
M 622.00 116.00 
C 625.52 114.74 627.94 112.65 631.00 111.00
C 627.40 112.33 625.00 113.94 622.00 116.00 Z"/>
</g>
<g fill="None" fill-opacity="0.0" stroke="#8085C8" stroke-opacity="0.39" stroke-width="0.3"><path d="
M 560.00 129.00 
C 554.29 121.77 547.53 117.29 540.00 113.00
C 546.57 117.82 554.10 122.62 560.00 129.00 Z"/>
</g>
<g fill="None" fill-opacity="0.0" stroke="#63CB5B" stroke-opacity="0.18" stroke-width="0.3"><path d="
M 434.00 148.00 
C 434.00 147.96 435.00 148.00 435.00 148.00
C 435.00 137.55 435.16 125.34 435.00 116.00
C 434.03 126.32 434.00 137.28 434.00 148.00 Z"/>
</g>
<g fill="None" fill-opacity="0.0" stroke="#73ED61" stroke-opacity="0.21" stroke-width="0.3"><path d="
M 607.00 130.00 
C 611.53 127.05 615.89 120.70 620.00 117.00
C 614.69 120.10 610.27 124.75 607.00 130.00 Z"/>
</g>
<g fill="None" fill-opacity="0.0" stroke="#69B2F3" stroke-opacity="1.00" stroke-width="0.3"><path d="
M 458.00 133.00 
C 462.69 128.27 463.00 126.00 463.00 119.00
C 459.66 120.52 460.77 129.45 458.00 133.00 Z"/>
</g>
<g fill="None" fill-opacity="0.0" stroke="#84E6FB" stroke-opacity="1.00" stroke-width="0.3"><path d="
M 858.00 122.00 
C 852.11 129.47 847.57 137.97 841.00 145.00
C 838.90 147.93 836.23 150.29 834.00 153.00
C 831.13 157.10 827.83 161.61 825.00 166.00
C 822.48 169.90 819.84 174.31 816.00 177.00
C 816.00 177.00 816.16 177.56 816.00 178.00
C 812.09 185.70 806.36 191.82 800.00 197.00
C 804.64 200.04 807.92 193.16 810.00 190.00
C 817.92 177.98 828.33 166.45 838.00 156.00
C 843.19 148.44 849.01 141.01 855.00 134.00
C 857.91 128.93 866.05 124.50 862.00 119.00
C 860.71 119.85 859.17 120.92 858.00 122.00 Z"/>
</g>
<g fill="None" fill-opacity="0.0" stroke="#4468CC" stroke-opacity="0.97" stroke-width="0.3"><path d="
M 728.00 123.00 
C 725.81 127.80 729.08 134.65 728.00 140.00 C 726.92 145.35 728.81 152.49 728.00 158.00
C 720.00 158.00 712.00 158.00 704.00 158.00
C 685.66 158.00 664.01 154.77 646.00 158.00
C 639.29 160.12 632.60 170.80 639.25 175.75 C 645.89 180.70 655.29 177.68 663.00 177.00
C 693.16 170.86 723.71 178.41 735.00 209.00
C 744.80 235.55 727.22 270.36 697.00 272.00
C 667.03 276.87 632.00 273.00 601.00 273.00
C 600.50 273.00 600.00 273.00 600.00 273.00
C 599.50 273.00 599.00 273.00 599.00 273.00
C 599.00 273.50 599.00 274.00 599.00 274.00
C 599.24 275.46 601.02 274.92 602.00 275.00
C 605.94 274.80 611.35 274.00 616.00 274.00
C 625.67 274.00 635.33 274.00 645.00 274.00
C 649.67 274.00 654.33 274.00 659.00 274.00
C 670.65 274.00 682.35 273.71 694.00 274.00
C 714.60 274.52 738.78 255.52 740.00 233.00
C 740.22 228.92 740.51 224.41 741.00 221.00
C 741.33 212.23 741.08 205.34 738.00 197.00
C 736.37 193.77 734.00 190.24 732.00 187.00
C 724.57 175.01 709.75 168.28 696.00 168.00
C 685.68 167.79 675.33 168.00 665.00 168.00
C 659.20 168.00 651.96 168.88 647.00 167.00
C 641.10 164.77 641.56 161.65 647.00 160.00
C 655.28 157.49 666.85 159.00 676.00 159.00
C 693.75 159.00 712.33 157.40 730.00 159.00
C 730.00 156.00 730.00 153.00 730.00 150.00
C 730.00 143.62 730.46 136.62 731.00 131.00
C 731.00 127.67 731.00 124.33 731.00 121.00
C 731.00 121.00 730.26 120.75 730.00 121.00
C 729.88 121.12 728.03 122.93 728.00 123.00 Z"/>
</g>
<g fill="None" fill-opacity="0.0" stroke="#946A1D" stroke-opacity="0.21" stroke-width="0.3"><path d="
M 803.00 138.00 
C 803.00 137.96 804.00 138.00 804.00 138.00
C 804.00 132.67 804.00 127.33 804.00 122.00
C 804.00 122.00 803.00 121.96 803.00 122.00
C 803.00 127.33 803.00 132.67 803.00 138.00 Z"/>
</g>
<g fill="None" fill-opacity="0.0" stroke="#4764C5" stroke-opacity="0.85" stroke-width="0.3"><path d="
M 904.00 124.00 
C 897.76 128.78 892.43 138.35 887.30 144.30 C 882.17 150.26 874.61 158.25 870.75 164.75 C 866.90 171.26 855.72 177.83 855.00 185.00
C 856.97 184.62 859.69 182.56 861.00 181.00
C 868.81 171.68 877.16 161.38 884.75 151.75 C 892.34 142.12 902.55 132.92 908.00 122.00
C 907.09 123.00 905.10 123.15 904.00 124.00 Z"/>
</g>
<g fill="None" fill-opacity="0.0" stroke="#62A6EF" stroke-opacity="1.00" stroke-width="0.3"><path d="
M 600.00 179.00 
C 601.53 185.49 602.87 191.45 607.00 197.00
C 609.92 200.35 614.39 204.48 618.00 207.00
C 625.48 212.34 634.06 215.01 643.00 216.00 C 651.94 216.99 667.49 217.28 676.00 217.00 C 684.51 216.72 703.98 214.04 700.00 227.00
C 700.34 226.40 701.25 225.33 702.00 225.00
C 703.01 230.00 699.96 235.82 695.00 237.00
C 681.35 242.04 664.05 236.17 649.00 238.00 C 633.95 239.83 616.29 236.63 601.00 238.00
C 600.36 249.59 602.30 261.86 600.00 273.00
C 600.00 273.00 600.50 273.00 601.00 273.00
C 608.23 267.65 622.59 273.77 632.00 272.00 C 641.41 270.23 653.86 272.86 664.00 272.00 C 674.14 271.14 686.64 272.56 697.00 272.00
C 727.22 270.36 744.80 235.55 735.00 209.00
C 729.47 198.06 721.49 188.46 710.25 181.75 C 699.01 175.04 676.80 175.79 663.00 177.00
C 655.29 177.68 645.89 180.70 639.25 175.75 C 632.60 170.80 639.29 160.12 646.00 158.00
C 654.59 155.28 665.56 157.70 675.00 157.00 C 684.44 156.30 695.32 157.16 704.00 158.00
C 712.00 158.00 720.00 158.00 728.00 158.00
C 728.81 152.49 726.92 145.35 728.00 140.00 C 729.08 134.65 725.81 127.80 728.00 123.00
C 721.00 126.47 708.85 121.44 701.00 123.00 C 693.15 124.56 683.10 122.47 675.00 123.00 C 666.90 123.53 656.98 123.15 649.00 123.00 C 641.02 122.85 633.60 124.83 627.08 128.08 C 620.55 131.32 617.36 134.19 612.25 139.25 C 607.14 144.30 605.29 149.68 603.32 156.32 C 601.36 162.97 600.02 171.95 600.00 179.00
M 700.00 181.00 
C 683.74 182.66 664.19 182.67 648.00 181.00
C 664.37 179.25 683.29 179.45 700.00 181.00 Z"/>
</g>
<g fill="None" fill-opacity="0.0" stroke="#6CE959" stroke-opacity="0.46" stroke-width="0.3"><path d="
M 603.00 138.00 
C 604.37 135.70 605.86 133.77 607.00 131.00
C 604.41 132.62 604.03 135.40 603.00 138.00 Z"/>
</g>
<g fill="None" fill-opacity="0.0" stroke="#3F64CC" stroke-opacity="0.85" stroke-width="0.3"><path d="
M 730.00 150.00 
C 730.00 149.96 731.00 150.00 731.00 150.00
C 731.00 143.67 731.00 137.33 731.00 131.00
C 730.46 136.62 730.00 143.62 730.00 150.00 Z"/>
</g>
<g fill="None" fill-opacity="0.0" stroke="#AC6F6E" stroke-opacity="0.10" stroke-width="0.3"><path d="
M 803.00 156.00 
C 803.00 155.96 804.00 156.00 804.00 156.00
C 804.00 150.00 804.00 144.00 804.00 138.00
C 804.00 138.00 803.00 137.96 803.00 138.00
C 803.00 144.00 803.00 150.00 803.00 156.00 Z"/>
</g>
<g fill="None" fill-opacity="0.0" stroke="#82D4F7" stroke-opacity="0.86" stroke-width="0.3"><path d="
M 762.00 161.00 
C 762.48 156.03 763.00 149.72 763.00 144.00
C 763.00 144.00 762.00 143.96 762.00 144.00
C 762.00 149.67 762.00 155.33 762.00 161.00 Z"/>
</g>
<g fill="None" fill-opacity="0.0" stroke="#61A7EA" stroke-opacity="1.00" stroke-width="0.3"><path d="
M 834.00 153.00 
C 836.23 150.29 838.90 147.93 841.00 145.00
C 838.63 147.53 836.10 150.00 834.00 153.00 Z"/>
</g>
<g fill="None" fill-opacity="0.0" stroke="#29CD58" stroke-opacity="0.30" stroke-width="0.3"><path d="
M 434.00 182.00 
C 434.00 181.96 435.00 182.00 435.00 182.00
C 435.00 170.67 435.00 159.33 435.00 148.00
C 435.00 148.00 434.00 147.96 434.00 148.00
C 434.00 159.33 434.00 170.67 434.00 182.00 Z"/>
</g>
<g fill="None" fill-opacity="0.0" stroke="#6F6AAF" stroke-opacity="0.47" stroke-width="0.3"><path d="
M 730.00 159.00 
C 730.00 159.50 730.00 160.00 730.00 160.00
C 731.99 158.09 731.00 152.84 731.00 150.00
C 731.00 150.00 730.00 149.96 730.00 150.00
C 730.00 153.00 730.00 156.00 730.00 159.00 Z"/>
</g>
<g fill="None" fill-opacity="0.0" stroke="#4569CC" stroke-opacity="0.94" stroke-width="0.3"><path d="
M 573.00 272.00 
C 568.59 275.09 558.36 270.30 553.00 272.00 C 547.64 273.70 540.43 269.88 536.00 274.00
C 549.33 274.00 562.67 274.00 576.00 274.00
C 576.20 272.71 575.74 271.28 576.00 270.00
C 576.69 263.89 575.00 254.03 575.00 247.00
C 575.00 235.37 574.95 222.85 576.00 212.00
C 576.00 192.55 578.59 172.25 574.00 154.00
C 571.86 153.87 572.34 150.32 570.00 151.00
C 571.65 157.00 571.59 162.79 573.07 168.93 C 574.56 175.06 574.02 182.38 574.00 189.00 C 573.98 195.62 574.21 203.42 574.00 210.00 C 573.79 216.58 574.53 224.75 574.00 231.00 C 573.47 237.25 575.20 246.59 574.00 252.00 C 572.80 257.41 577.13 269.11 573.00 272.00 Z"/>
</g>
<g fill="None" fill-opacity="0.0" stroke="#3F67CC" stroke-opacity="0.93" stroke-width="0.3"><path d="
M 473.00 181.00 
C 469.92 211.02 475.31 241.90 473.00 272.00
C 461.00 272.00 449.00 272.00 437.00 272.00
C 437.00 272.00 436.50 271.95 436.00 272.00
C 435.65 272.03 435.26 272.88 435.00 273.00
C 441.00 273.00 447.00 273.00 453.00 273.00
C 457.74 273.00 463.01 273.61 467.00 274.00
C 469.67 274.00 472.33 274.00 475.00 274.00
C 475.00 270.00 475.00 266.00 475.00 262.00
C 475.00 257.33 475.00 252.67 475.00 248.00
C 475.00 242.00 475.00 236.00 475.00 230.00
C 475.00 224.67 475.00 219.33 475.00 214.00
C 475.00 202.69 473.08 188.31 476.00 178.00
C 480.48 162.19 496.70 153.20 512.00 156.00
C 513.86 156.34 514.61 157.19 516.00 158.00
C 521.13 160.18 525.58 163.39 529.00 168.00
C 515.22 142.54 478.77 154.96 473.00 181.00 Z"/>
</g>
<g fill="None" fill-opacity="0.0" stroke="#1C52D8" stroke-opacity="0.53" stroke-width="0.3"><path d="
M 516.00 158.00 
C 514.61 157.19 513.86 156.34 512.00 156.00
C 512.77 156.24 514.98 157.57 516.00 158.00 Z"/>
</g>
<g fill="None" fill-opacity="0.0" stroke="#B692DB" stroke-opacity="0.03" stroke-width="0.3"><path d="
M 803.00 173.00 
C 803.48 168.03 804.00 161.72 804.00 156.00
C 804.00 156.00 803.00 155.96 803.00 156.00
C 803.00 161.67 803.00 167.33 803.00 173.00 Z"/>
</g>
<g fill="None" fill-opacity="0.0" stroke="#72C4FA" stroke-opacity="1.00" stroke-width="0.3"><path d="
M 810.00 190.00 
C 819.33 178.87 829.70 168.10 838.00 156.00
C 828.33 166.45 817.92 177.98 810.00 190.00 Z"/>
</g>
<g fill="None" fill-opacity="0.0" stroke="#538ADF" stroke-opacity="1.00" stroke-width="0.3"><path d="
M 646.00 158.00 
C 664.01 154.77 685.66 158.00 704.00 158.00
C 695.32 157.16 684.44 156.30 675.00 157.00 C 665.56 157.70 654.59 155.28 646.00 158.00 Z"/>
</g>
<g fill="None" fill-opacity="0.0" stroke="#025221" stroke-opacity="0.42" stroke-width="0.3"><path d="
M 647.00 160.00 
C 656.07 158.47 666.78 160.00 676.00 160.00
C 675.96 160.00 676.00 159.00 676.00 159.00
C 666.85 159.00 655.28 157.49 647.00 160.00 Z"/>
</g>
<g fill="None" fill-opacity="0.0" stroke="#1C52D8" stroke-opacity="0.62" stroke-width="0.3"><path d="
M 676.00 160.00 
C 693.75 160.00 712.33 161.59 730.00 160.00
C 730.00 160.00 730.00 159.50 730.00 159.00
C 712.33 157.40 693.75 159.00 676.00 159.00
C 676.00 159.00 675.96 160.00 676.00 160.00 Z"/>
</g>
<g fill="None" fill-opacity="0.0" stroke="#6FCE49" stroke-opacity="0.46" stroke-width="0.3"><path d="
M 599.00 174.00 
C 598.99 171.59 599.04 166.40 599.00 164.00
C 598.65 167.69 598.51 170.23 599.00 174.00 Z"/>
</g>
<g fill="None" fill-opacity="0.0" stroke="#5D9DE6" stroke-opacity="1.00" stroke-width="0.3"><path d="
M 816.00 177.00 
C 819.84 174.31 822.48 169.90 825.00 166.00
C 822.08 169.59 818.92 173.17 816.00 177.00 Z"/>
</g>
<g fill="None" fill-opacity="0.0" stroke="#756CA3" stroke-opacity="0.62" stroke-width="0.3"><path d="
M 665.00 168.00 
C 664.96 168.00 665.00 167.00 665.00 167.00
C 659.48 167.00 652.36 168.23 647.00 167.00
C 651.96 168.88 659.20 168.00 665.00 168.00 Z"/>
</g>
<g fill="None" fill-opacity="0.0" stroke="#6D65AB" stroke-opacity="0.44" stroke-width="0.3"><path d="
M 665.00 168.00 
C 675.33 168.00 685.68 167.79 696.00 168.00
C 686.47 166.85 675.31 167.00 665.00 167.00
C 665.00 167.00 664.96 168.00 665.00 168.00 Z"/>
</g>
<g fill="None" fill-opacity="0.0" stroke="#548AE0" stroke-opacity="1.00" stroke-width="0.3"><path d="
M 663.00 177.00 
C 676.80 175.79 699.01 175.04 710.25 181.75 C 721.49 188.46 729.47 198.06 735.00 209.00
C 723.71 178.41 693.16 170.86 663.00 177.00 Z"/>
</g>
<g fill="None" fill-opacity="0.0" stroke="#795BE2" stroke-opacity="0.27" stroke-width="0.3"><path d="
M 475.00 214.00 
C 475.00 213.96 476.00 214.00 476.00 214.00
C 476.00 202.45 474.26 189.39 476.00 178.00
C 473.08 188.31 475.00 202.69 475.00 214.00 Z"/>
</g>
<g fill="None" fill-opacity="0.0" stroke="#7AD5ED" stroke-opacity="0.96" stroke-width="0.3"><path d="
M 535.00 182.00 
C 538.88 195.77 536.35 217.06 535.00 231.00
C 535.00 244.52 533.07 259.63 535.00 273.00
C 541.27 266.25 535.48 250.51 537.00 241.00 C 538.52 231.49 536.41 217.96 537.00 208.00 C 537.59 198.04 538.30 186.14 534.00 178.00
C 534.38 179.35 534.81 180.64 535.00 182.00 Z"/>
</g>
<g fill="None" fill-opacity="0.0" stroke="#7AD501" stroke-opacity="0.96" stroke-width="0.3"><path d="
M 762.00 204.00 
C 762.00 204.50 762.00 205.00 762.00 205.00
C 762.79 196.89 762.79 187.18 762.00 179.00
C 762.00 187.33 762.01 195.67 762.00 204.00 Z"/>
</g>
<g fill="None" fill-opacity="0.0" stroke="#7BD2FC" stroke-opacity="1.00" stroke-width="0.3"><path d="
M 700.00 181.00 
C 683.29 179.45 664.37 179.25 648.00 181.00
C 664.19 182.67 683.74 182.66 700.00 181.00 Z"/>
</g>
<g fill="None" fill-opacity="0.0" stroke="#4E81DA" stroke-opacity="1.00" stroke-width="0.3"><path d="
M 437.00 272.00 
C 449.00 272.00 461.00 272.00 473.00 272.00
C 475.31 241.90 469.92 211.02 473.00 181.00
C 470.67 210.01 472.67 241.17 472.00 271.00
C 462.51 274.39 445.06 266.04 437.00 272.00 Z"/>
</g>
<g fill="None" fill-opacity="0.0" stroke="#517CD6" stroke-opacity="0.95" stroke-width="0.3"><path d="
M 855.00 185.00 
C 854.21 192.89 863.92 200.87 867.08 207.92 C 870.23 214.98 875.12 223.99 879.23 230.77 C 883.34 237.55 886.95 246.90 892.08 252.92 C 897.21 258.94 899.36 269.00 905.00 274.00
C 905.37 274.08 907.30 274.78 908.00 275.00
C 907.99 270.94 908.81 265.96 908.00 262.00
C 905.98 256.18 901.40 250.72 898.77 245.23 C 896.14 239.74 891.99 233.96 889.25 228.75 C 886.52 223.53 883.06 217.61 879.92 213.08 C 876.79 208.55 874.00 199.76 870.75 196.25 C 867.50 192.73 865.07 181.41 861.00 181.00
C 859.69 182.56 856.97 184.62 855.00 185.00 Z"/>
</g>
<g fill="None" fill-opacity="0.0" stroke="#62D019" stroke-opacity="0.49" stroke-width="0.3"><path d="
M 434.00 250.00 
C 434.00 249.96 435.00 250.00 435.00 250.00
C 435.00 227.33 435.00 204.67 435.00 182.00
C 435.00 182.00 434.00 181.96 434.00 182.00
C 434.00 204.67 434.00 227.33 434.00 250.00 Z"/>
</g>
<g fill="None" fill-opacity="0.0" stroke="#81D2F7" stroke-opacity="0.72" stroke-width="0.3"><path d="
M 535.00 231.00 
C 536.35 217.06 538.88 195.77 535.00 182.00
C 537.21 197.62 535.00 215.20 535.00 231.00 Z"/>
</g>
<g fill="None" fill-opacity="0.0" stroke="#7E62B8" stroke-opacity="0.44" stroke-width="0.3"><path d="
M 738.00 197.00 
C 736.43 192.76 734.69 190.45 732.00 187.00
C 734.00 190.24 736.37 193.77 738.00 197.00 Z"/>
</g>
<g fill="None" fill-opacity="0.0" stroke="#307CB5" stroke-opacity="0.52" stroke-width="0.3"><path d="
M 618.00 208.00 
C 617.77 207.66 618.00 207.00 618.00 207.00
C 614.39 204.48 609.92 200.35 607.00 197.00
C 610.36 201.52 613.60 204.60 618.00 208.00 Z"/>
</g>
<g fill="None" fill-opacity="0.0" stroke="#7FDF20" stroke-opacity="0.03" stroke-width="0.3"><path d="
M 761.00 213.00 
C 761.00 212.96 762.00 213.00 762.00 213.00
C 762.00 210.33 762.00 207.67 762.00 205.00
C 762.00 205.00 762.00 204.50 762.00 204.00
C 761.77 206.36 761.00 209.90 761.00 213.00 Z"/>
</g>
<g fill="None" fill-opacity="0.0" stroke="#4268CE" stroke-opacity="0.98" stroke-width="0.3"><path d="
M 618.00 208.00 
C 623.33 215.78 637.75 218.21 646.00 218.00
C 660.60 217.63 679.47 215.59 693.00 219.00
C 694.54 220.30 696.34 218.41 697.00 221.00
C 695.59 221.54 694.41 222.44 693.00 223.00
C 686.00 225.80 676.93 223.23 669.00 224.00 C 661.07 224.77 651.22 223.70 644.00 223.00
C 629.00 223.00 614.00 223.00 599.00 223.00
C 598.68 224.22 599.42 225.81 599.00 227.00
C 598.81 228.61 599.00 230.37 599.00 232.00
C 611.27 232.25 623.92 229.96 636.00 229.00
C 641.31 227.97 653.25 226.04 659.00 228.00 C 664.75 229.96 673.63 233.87 680.00 232.00 C 686.37 230.13 697.63 234.71 700.00 227.00
C 703.98 214.04 684.51 216.72 676.00 217.00 C 667.49 217.28 651.94 216.99 643.00 216.00 C 634.06 215.01 625.48 212.34 618.00 207.00
C 618.00 207.00 617.77 207.66 618.00 208.00 Z"/>
</g>
<g fill="None" fill-opacity="0.0" stroke="#3D64CE" stroke-opacity="0.83" stroke-width="0.3"><path d="
M 575.00 247.00 
C 575.00 246.96 576.00 247.00 576.00 247.00
C 576.00 235.33 576.00 223.67 576.00 212.00
C 574.95 222.85 575.00 235.37 575.00 247.00 Z"/>
</g>
<g fill="None" fill-opacity="0.0" stroke="#63C78B" stroke-opacity="0.11" stroke-width="0.3"><path d="
M 761.00 230.00 
C 761.00 229.96 762.00 230.00 762.00 230.00
C 762.00 224.33 762.00 218.67 762.00 213.00
C 762.00 213.00 761.00 212.96 761.00 213.00
C 761.00 218.67 761.00 224.33 761.00 230.00 Z"/>
</g>
<g fill="None" fill-opacity="0.0" stroke="#905B1A" stroke-opacity="0.21" stroke-width="0.3"><path d="
M 475.00 230.00 
C 475.00 229.96 476.00 230.00 476.00 230.00
C 476.00 224.67 476.00 219.33 476.00 214.00
C 476.00 214.00 475.00 213.96 475.00 214.00
C 475.00 219.33 475.00 224.67 475.00 230.00 Z"/>
</g>
<g fill="None" fill-opacity="0.0" stroke="#1F52D4" stroke-opacity="0.65" stroke-width="0.3"><path d="
M 693.00 219.00 
C 679.47 215.59 660.60 217.63 646.00 218.00
C 660.69 219.24 677.68 217.34 693.00 219.00 Z"/>
</g>
<g fill="None" fill-opacity="0.0" stroke="#4667C9" stroke-opacity="0.91" stroke-width="0.3"><path d="
M 763.00 275.00 
C 766.00 275.00 769.00 275.00 772.00 275.00
C 779.00 275.00 786.00 275.00 793.00 275.00
C 794.73 275.00 800.69 275.98 802.00 275.00
C 803.25 273.66 802.88 271.68 803.00 270.00
C 802.83 262.60 800.01 256.99 806.00 251.00
C 809.84 246.14 815.30 240.52 818.25 235.25 C 821.19 229.98 828.78 225.84 830.00 220.00
C 827.33 216.32 822.30 227.02 817.77 231.77 C 813.24 236.52 810.36 243.68 804.75 248.75 C 799.14 253.82 799.25 265.22 800.00 273.00
C 794.56 273.73 785.03 272.03 780.00 273.00 C 774.97 273.97 765.21 270.14 763.00 275.00 Z"/>
</g>
<g fill="None" fill-opacity="0.0" stroke="#7D6FB1" stroke-opacity="0.41" stroke-width="0.3"><path d="
M 740.00 233.00 
C 740.56 229.54 740.84 225.14 741.00 221.00
C 740.51 224.41 740.22 228.92 740.00 233.00 Z"/>
</g>
<g fill="None" fill-opacity="0.0" stroke="#74659E" stroke-opacity="0.64" stroke-width="0.3"><path d="
M 693.00 223.00 
C 685.31 224.85 675.89 222.27 668.00 223.00 C 660.11 223.73 651.92 223.00 644.00 223.00
C 651.22 223.70 661.07 224.77 669.00 224.00 C 676.93 223.23 686.00 225.80 693.00 223.00 Z"/>
</g>
<g fill="None" fill-opacity="0.0" stroke="#84E5FC" stroke-opacity="1.00" stroke-width="0.3"><path d="
M 700.00 227.00 
C 699.59 227.73 699.48 229.13 699.00 230.00
C 697.49 232.75 694.75 234.84 692.00 236.00
C 692.26 237.39 694.05 236.78 695.00 237.00
C 699.96 235.82 703.01 230.00 702.00 225.00
C 701.25 225.33 700.34 226.40 700.00 227.00 Z"/>
</g>
<g fill="None" fill-opacity="0.0" stroke="#82734C" stroke-opacity="0.19" stroke-width="0.3"><path d="
M 598.00 233.00 
C 598.00 232.96 599.00 233.00 599.00 233.00
C 599.25 232.75 599.00 232.00 599.00 232.00
C 599.00 230.37 598.81 228.61 599.00 227.00
C 598.34 228.89 598.07 230.51 598.00 233.00 Z"/>
</g>
<g fill="None" fill-opacity="0.0" stroke="#5183DD" stroke-opacity="1.00" stroke-width="0.3"><path d="
M 636.00 229.00 
C 655.19 227.48 672.00 235.82 692.00 233.00
C 693.14 232.84 694.95 232.49 696.00 232.00
C 696.74 231.47 698.51 230.65 699.00 230.00
C 699.48 229.13 699.59 227.73 700.00 227.00
C 697.63 234.71 686.37 230.13 680.00 232.00 C 673.63 233.87 664.75 229.96 659.00 228.00 C 653.25 226.04 641.31 227.97 636.00 229.00 Z"/>
</g>
<g fill="None" fill-opacity="0.0" stroke="#609FEC" stroke-opacity="1.00" stroke-width="0.3"><path d="
M 599.00 232.00 
C 599.00 232.00 599.25 232.75 599.00 233.00
C 614.14 234.37 630.77 228.63 645.08 230.93 C 659.38 233.23 677.47 237.10 692.00 233.00
C 672.00 235.82 655.19 227.48 636.00 229.00
C 623.92 229.96 611.27 232.25 599.00 232.00 Z"/>
</g>
<g fill="None" fill-opacity="0.0" stroke="#AD5D5C" stroke-opacity="0.10" stroke-width="0.3"><path d="
M 475.00 248.00 
C 475.00 247.96 476.00 248.00 476.00 248.00
C 476.00 242.00 476.00 236.00 476.00 230.00
C 476.00 230.00 475.00 229.96 475.00 230.00
C 475.00 236.00 475.00 242.00 475.00 248.00 Z"/>
</g>
<g fill="None" fill-opacity="0.0" stroke="#6FBAFA" stroke-opacity="1.00" stroke-width="0.3"><path d="
M 599.00 233.00 
C 599.23 233.16 599.00 234.50 599.00 235.00
C 605.90 238.07 616.37 233.64 624.00 235.00 C 631.63 236.36 641.10 234.43 649.00 235.00 C 656.90 235.57 666.13 234.84 674.00 235.00 C 681.87 235.16 689.84 236.38 696.00 232.00
C 694.95 232.49 693.14 232.84 692.00 233.00
C 677.47 237.10 659.38 233.23 645.08 230.93 C 630.77 228.63 614.14 234.37 599.00 233.00 Z"/>
</g>
<g fill="None" fill-opacity="0.0" stroke="#78CEFC" stroke-opacity="1.00" stroke-width="0.3"><path d="
M 696.00 232.00 
C 689.84 236.38 681.87 235.16 674.00 235.00 C 666.13 234.84 656.90 235.57 649.00 235.00 C 641.10 234.43 631.63 236.36 624.00 235.00 C 616.37 233.64 605.90 238.07 599.00 235.00
C 599.00 247.67 599.00 260.33 599.00 273.00
C 599.00 273.00 599.50 273.00 600.00 273.00
C 602.30 261.86 600.36 249.59 601.00 238.00
C 616.29 236.63 633.95 239.83 649.00 238.00 C 664.05 236.17 681.35 242.04 695.00 237.00
C 694.05 236.78 692.26 237.39 692.00 236.00
C 694.75 234.84 697.49 232.75 699.00 230.00
C 698.51 230.65 696.74 231.47 696.00 232.00 Z"/>
</g>
<g fill="None" fill-opacity="0.0" stroke="#5FCA36" stroke-opacity="0.16" stroke-width="0.3"><path d="
M 761.00 248.00 
C 761.00 247.96 762.00 248.00 762.00 248.00
C 762.00 242.00 762.00 236.00 762.00 230.00
C 762.00 230.00 761.00 229.96 761.00 230.00
C 761.00 236.00 761.00 242.00 761.00 248.00 Z"/>
</g>
<g fill="None" fill-opacity="0.0" stroke="#62CD17" stroke-opacity="0.50" stroke-width="0.3"><path d="
M 599.00 274.00 
C 599.00 274.00 599.00 273.50 599.00 273.00
C 599.00 260.33 599.00 247.67 599.00 235.00
C 599.00 234.50 599.23 233.16 599.00 233.00
C 599.00 233.00 598.00 232.96 598.00 233.00
C 597.83 238.89 597.20 248.46 598.00 254.00 C 598.80 259.54 595.23 270.38 599.00 274.00 Z"/>
</g>
<g fill="None" fill-opacity="0.0" stroke="#70639E" stroke-opacity="0.62" stroke-width="0.3"><path d="
M 576.00 270.00 
C 577.45 263.02 576.00 254.15 576.00 247.00
C 576.00 247.00 575.00 246.96 575.00 247.00
C 575.00 254.03 576.69 263.89 576.00 270.00 Z"/>
</g>
<g fill="None" fill-opacity="0.0" stroke="#D392DB" stroke-opacity="0.03" stroke-width="0.3"><path d="
M 475.00 262.00 
C 475.39 258.01 476.00 252.74 476.00 248.00
C 476.00 248.00 475.00 247.96 475.00 248.00
C 475.00 252.67 475.00 257.33 475.00 262.00 Z"/>
</g>
<g fill="None" fill-opacity="0.0" stroke="#20C75B" stroke-opacity="0.29" stroke-width="0.3"><path d="
M 762.00 275.00 
C 762.00 275.00 762.00 274.50 762.00 274.00
C 762.00 265.33 762.00 256.67 762.00 248.00
C 762.00 248.00 761.00 247.96 761.00 248.00
C 761.00 252.10 760.53 258.08 761.00 262.00 C 761.47 265.92 759.29 272.38 762.00 275.00 Z"/>
</g>
<g fill="None" fill-opacity="0.0" stroke="#79D102" stroke-opacity="0.63" stroke-width="0.3"><path d="
M 434.00 267.00 
C 434.48 262.03 435.00 255.72 435.00 250.00
C 435.00 250.00 434.00 249.96 434.00 250.00
C 434.00 255.67 434.00 261.33 434.00 267.00 Z"/>
</g>
<g fill="None" fill-opacity="0.0" stroke="#6A64A9" stroke-opacity="0.58" stroke-width="0.3"><path d="
M 803.00 270.00 
C 803.52 262.92 801.48 256.72 806.00 251.00
C 800.01 256.99 802.83 262.60 803.00 270.00 Z"/>
</g>
<g fill="None" fill-opacity="0.0" stroke="#757AB6" stroke-opacity="0.48" stroke-width="0.3"><path d="
M 908.00 275.00 
C 908.00 275.50 908.00 276.00 908.00 276.00
C 910.60 273.50 908.98 264.82 908.00 262.00
C 908.81 265.96 907.99 270.94 908.00 275.00 Z"/>
</g>
<g fill="None" fill-opacity="0.0" stroke="#5085DC" stroke-opacity="1.00" stroke-width="0.3"><path d="
M 601.00 273.00 
C 632.00 273.00 667.03 276.87 697.00 272.00
C 686.64 272.56 674.14 271.14 664.00 272.00 C 653.86 272.86 641.41 270.23 632.00 272.00 C 622.59 273.77 608.23 267.65 601.00 273.00 Z"/>
</g>
<g fill="None" fill-opacity="0.0" stroke="#005436" stroke-opacity="0.35" stroke-width="0.3"><path d="
M 453.00 274.00 
C 452.96 274.00 453.00 273.00 453.00 273.00
C 447.00 273.00 441.00 273.00 435.00 273.00
C 435.00 273.00 434.02 273.10 434.00 273.00
C 436.79 275.91 448.75 274.00 453.00 274.00 Z"/>
</g>
<g fill="None" fill-opacity="0.0" stroke="#075301" stroke-opacity="0.47" stroke-width="0.3"><path d="
M 453.00 274.00 
C 457.67 274.00 462.33 274.00 467.00 274.00
C 463.01 273.61 457.74 273.00 453.00 273.00
C 453.00 273.00 452.96 274.00 453.00 274.00 Z"/>
</g>
<g fill="None" fill-opacity="0.0" stroke="#0059A9" stroke-opacity="0.25" stroke-width="0.3"><path d="
M 602.00 275.00 
C 606.59 275.39 611.39 275.00 616.00 275.00
C 615.96 275.00 616.00 274.00 616.00 274.00
C 611.35 274.00 605.94 274.80 602.00 275.00 Z"/>
</g>
<g fill="None" fill-opacity="0.0" stroke="#005443" stroke-opacity="0.35" stroke-width="0.3"><path d="
M 616.00 275.00 
C 625.67 275.00 635.33 275.00 645.00 275.00
C 644.96 275.00 645.00 274.00 645.00 274.00
C 635.33 274.00 625.67 274.00 616.00 274.00
C 616.00 274.00 615.96 275.00 616.00 275.00 Z"/>
</g>
<g fill="None" fill-opacity="0.0" stroke="#075301" stroke-opacity="0.47" stroke-width="0.3"><path d="
M 645.00 275.00 
C 649.67 275.00 654.33 275.00 659.00 275.00
C 658.96 275.00 659.00 274.00 659.00 274.00
C 654.33 274.00 649.67 274.00 645.00 274.00
C 645.00 274.00 644.96 275.00 645.00 275.00 Z"/>
</g>
<g fill="None" fill-opacity="0.0" stroke="#1551E0" stroke-opacity="0.58" stroke-width="0.3"><path d="
M 659.00 275.00 
C 670.64 275.00 683.07 274.92 694.00 274.00
C 682.35 273.71 670.65 274.00 659.00 274.00
C 659.00 274.00 658.96 275.00 659.00 275.00 Z"/>
</g>
<g fill="None" fill-opacity="0.0" stroke="#3759C4" stroke-opacity="0.97" stroke-width="0.3"><path d="
M 863.00 275.00 
C 875.29 274.99 888.50 274.89 900.00 276.00
C 902.63 276.00 905.38 276.24 908.00 276.00
C 908.00 276.00 908.00 275.50 908.00 275.00
C 907.30 274.78 905.37 274.08 905.00 274.00
C 899.04 272.69 888.90 273.93 883.00 274.00 C 877.10 274.07 867.32 271.80 863.00 275.00 Z"/>
</g>
<g fill="None" fill-opacity="0.0" stroke="#C56498" stroke-opacity="0.09" stroke-width="0.3"><path d="
M 793.00 276.00 
C 792.96 276.00 793.00 275.00 793.00 275.00
C 786.00 275.00 779.00 275.00 772.00 275.00
C 778.28 275.61 785.97 276.00 793.00 276.00 Z"/>
</g>
<g fill="None" fill-opacity="0.0" stroke="#0059A6" stroke-opacity="0.25" stroke-width="0.3"><path d="
M 793.00 276.00 
C 795.58 276.00 800.26 276.87 802.00 275.00
C 800.69 275.98 794.73 275.00 793.00 275.00
C 793.00 275.00 792.96 276.00 793.00 276.00 Z"/>
</g>
<g fill="None" fill-opacity="0.0" stroke="#1E52D5" stroke-opacity="0.63" stroke-width="0.3"><path d="
M 900.00 276.00 
C 888.50 274.89 875.29 274.99 863.00 275.00
C 863.00 275.00 862.42 275.18 862.00 275.00
C 865.45 278.58 875.81 275.15 881.00 276.00 C 886.19 276.85 894.53 276.00 900.00 276.00 Z"/>
</g>
<g fill="#000000" fill-opacity="0.00" stroke="None">
<path d="
M 0.00 650.00 
L 1424.00 650.00
L 1424.00 0.00
L 0.00 0.00
L 0.00 650.00
M 795.00 47.00 
C 798.00 47.00 801.00 47.00 804.00 47.00
C 804.00 49.33 804.00 51.67 804.00 54.00
C 804.22 64.99 804.00 76.01 804.00 87.00
C 804.00 98.67 804.00 110.33 804.00 122.00
C 804.00 127.33 804.00 132.67 804.00 138.00
C 804.00 144.00 804.00 150.00 804.00 156.00
C 804.00 161.72 803.48 168.03 803.00 173.00
C 803.00 175.84 802.21 179.98 804.00 182.00
C 822.19 157.96 842.05 134.82 861.00 111.00
C 866.69 106.55 880.40 109.00 888.00 109.00
C 892.72 109.00 906.92 106.79 910.00 110.00
C 910.30 113.33 909.69 116.00 909.00 119.00
C 908.65 120.50 908.57 120.85 908.00 122.00
C 902.55 132.92 892.34 142.12 884.75 151.75 C 877.16 161.38 868.81 171.68 861.00 181.00
C 865.07 181.41 867.50 192.73 870.75 196.25 C 874.00 199.76 876.79 208.55 879.92 213.08 C 883.06 217.61 886.52 223.53 889.25 228.75 C 891.99 233.96 896.14 239.74 898.77 245.23 C 901.40 250.72 905.98 256.18 908.00 262.00
C 908.98 264.82 910.60 273.50 908.00 276.00
C 905.38 276.24 902.63 276.00 900.00 276.00
C 894.53 276.00 886.19 276.85 881.00 276.00 C 875.81 275.15 865.45 278.58 862.00 275.00
C 856.75 272.73 855.00 261.63 851.08 256.92 C 847.16 252.21 844.52 243.73 840.70 238.30 C 836.87 232.88 833.95 225.34 830.00 220.00
C 828.78 225.84 821.19 229.98 818.25 235.25 C 815.30 240.52 809.84 246.14 806.00 251.00
C 801.48 256.72 803.52 262.92 803.00 270.00
C 802.88 271.68 803.25 273.66 802.00 275.00
C 800.26 276.87 795.58 276.00 793.00 276.00
C 785.97 276.00 778.28 275.61 772.00 275.00
C 769.00 275.00 766.00 275.00 763.00 275.00
C 762.50 275.00 762.00 275.00 762.00 275.00
C 759.29 272.38 761.47 265.92 761.00 262.00 C 760.53 258.08 761.00 252.10 761.00 248.00
C 761.00 242.00 761.00 236.00 761.00 230.00
C 761.00 224.33 761.00 218.67 761.00 213.00
C 761.00 209.90 761.77 206.36 762.00 204.00
C 762.01 195.67 762.00 187.33 762.00 179.00
C 762.00 173.00 762.00 167.00 762.00 161.00
C 762.00 155.33 762.00 149.67 762.00 144.00
C 762.00 127.00 762.00 110.00 762.00 93.00
C 762.00 86.53 761.02 76.07 762.00 70.00 C 762.98 63.93 758.91 51.94 763.00 48.00
C 763.70 44.69 772.58 47.52 777.00 47.00 C 781.42 46.48 790.18 47.00 795.00 47.00
M 517.00 105.00 
C 524.31 106.19 530.36 107.56 537.00 111.00
C 538.22 111.63 539.04 112.30 540.00 113.00
C 547.53 117.29 554.29 121.77 560.00 129.00
C 565.88 136.45 571.68 144.80 574.00 154.00
C 578.59 172.25 576.00 192.55 576.00 212.00
C 576.00 223.67 576.00 235.33 576.00 247.00
C 576.00 254.15 577.45 263.02 576.00 270.00
C 575.74 271.28 576.20 272.71 576.00 274.00
C 562.67 274.00 549.33 274.00 536.00 274.00
C 535.65 273.95 535.05 273.35 535.00 273.00
C 533.07 259.63 535.00 244.52 535.00 231.00
C 535.00 215.20 537.21 197.62 535.00 182.00
C 534.81 180.64 534.38 179.35 534.00 178.00
C 532.97 174.39 531.34 171.15 529.00 168.00
C 525.58 163.39 521.13 160.18 516.00 158.00
C 514.98 157.57 512.77 156.24 512.00 156.00
C 496.70 153.20 480.48 162.19 476.00 178.00
C 474.26 189.39 476.00 202.45 476.00 214.00
C 476.00 219.33 476.00 224.67 476.00 230.00
C 476.00 236.00 476.00 242.00 476.00 248.00
C 476.00 252.74 475.39 258.01 475.00 262.00
C 475.00 266.00 475.00 270.00 475.00 274.00
C 472.33 274.00 469.67 274.00 467.00 274.00
C 462.33 274.00 457.67 274.00 453.00 274.00
C 448.75 274.00 436.79 275.91 434.00 273.00
C 433.62 271.18 434.00 268.86 434.00 267.00
C 434.00 261.33 434.00 255.67 434.00 250.00
C 434.00 227.33 434.00 204.67 434.00 182.00
C 434.00 170.67 434.00 159.33 434.00 148.00
C 434.00 137.28 434.03 126.32 435.00 116.00
C 435.20 113.87 434.08 109.90 435.00 108.00
C 436.56 104.78 442.09 105.64 445.00 107.00
C 450.43 109.54 453.82 116.79 457.00 121.00
C 459.66 121.48 460.32 117.47 463.00 118.00
C 468.57 109.84 484.00 106.58 493.00 105.00
C 500.78 103.63 509.63 103.80 517.00 105.00
M 731.00 109.00 
C 731.25 109.26 731.00 110.00 731.00 110.00
C 731.00 113.67 731.00 117.33 731.00 121.00
C 731.00 124.33 731.00 127.67 731.00 131.00
C 731.00 137.33 731.00 143.67 731.00 150.00
C 731.00 152.84 731.99 158.09 730.00 160.00
C 712.33 161.59 693.75 160.00 676.00 160.00
C 666.78 160.00 656.07 158.47 647.00 160.00
C 641.56 161.65 641.10 164.77 647.00 167.00
C 652.36 168.23 659.48 167.00 665.00 167.00
C 675.31 167.00 686.47 166.85 696.00 168.00
C 709.75 168.28 724.57 175.01 732.00 187.00
C 734.69 190.45 736.43 192.76 738.00 197.00
C 741.08 205.34 741.33 212.23 741.00 221.00
C 740.84 225.14 740.56 229.54 740.00 233.00
C 738.78 255.52 714.60 274.52 694.00 274.00
C 683.07 274.92 670.64 275.00 659.00 275.00
C 654.33 275.00 649.67 275.00 645.00 275.00
C 635.33 275.00 625.67 275.00 616.00 275.00
C 611.39 275.00 606.59 275.39 602.00 275.00
C 601.02 274.92 599.24 275.46 599.00 274.00
C 595.23 270.38 598.80 259.54 598.00 254.00 C 597.20 248.46 597.83 238.89 598.00 233.00
C 598.07 230.51 598.34 228.89 599.00 227.00
C 599.42 225.81 598.68 224.22 599.00 223.00
C 614.00 223.00 629.00 223.00 644.00 223.00
C 651.92 223.00 660.11 223.73 668.00 223.00 C 675.89 222.27 685.31 224.85 693.00 223.00
C 694.41 222.44 695.59 221.54 697.00 221.00
C 696.34 218.41 694.54 220.30 693.00 219.00
C 677.68 217.34 660.69 219.24 646.00 218.00
C 637.75 218.21 623.33 215.78 618.00 208.00
C 613.60 204.60 610.36 201.52 607.00 197.00
C 602.87 191.45 601.53 185.49 600.00 179.00
C 599.68 177.66 599.24 175.82 599.00 174.00
C 598.51 170.23 598.65 167.69 599.00 164.00
C 599.92 154.20 599.56 146.67 603.00 138.00
C 604.03 135.40 604.41 132.62 607.00 131.00
C 607.18 130.57 607.00 130.00 607.00 130.00
C 610.27 124.75 614.69 120.10 620.00 117.00
C 620.89 116.20 620.79 116.43 622.00 116.00
C 625.00 113.94 627.40 112.33 631.00 111.00
C 640.86 107.36 651.19 108.00 662.00 108.00
C 676.33 108.00 690.67 108.00 705.00 108.00
C 710.36 108.00 727.51 105.39 731.00 109.00 Z"/>
</g>
<g fill="#74C804" fill-opacity="0.89" stroke="None">
<path d="
M 763.00 48.00 
C 762.90 48.48 763.00 49.00 763.00 49.00
C 764.50 46.11 773.67 48.07 778.00 48.00 C 782.33 47.93 791.05 47.38 795.00 47.00
C 790.18 47.00 781.42 46.48 777.00 47.00 C 772.58 47.52 763.70 44.69 763.00 48.00 Z"/>
</g>
<g fill="#77CCFC" fill-opacity="0.99" stroke="None">
<path d="
M 763.00 49.00 
C 762.99 63.67 763.00 78.33 763.00 93.00
C 763.00 110.00 763.00 127.00 763.00 144.00
C 763.00 149.72 762.48 156.03 762.00 161.00
C 762.00 167.00 762.00 173.00 762.00 179.00
C 762.79 187.18 762.79 196.89 762.00 205.00
C 762.00 207.67 762.00 210.33 762.00 213.00
C 762.00 218.67 762.00 224.33 762.00 230.00
C 762.00 236.00 762.00 242.00 762.00 248.00
C 762.00 256.67 762.00 265.33 762.00 274.00
C 767.82 271.35 762.74 256.77 764.00 250.00 C 765.26 243.23 763.40 230.98 764.00 223.00 C 764.60 215.02 763.66 204.52 764.00 196.00 C 764.34 187.48 763.69 177.73 764.00 169.00 C 764.31 160.27 763.51 150.76 764.00 142.00 C 764.49 133.24 763.01 123.64 764.00 115.00 C 764.99 106.36 765.23 97.96 765.00 89.00 C 764.77 80.04 765.17 70.97 765.00 62.00
C 776.67 62.00 788.33 62.00 800.00 62.00
C 800.50 62.00 801.00 62.00 801.00 62.00
C 801.16 61.84 803.00 60.00 803.00 60.00
C 803.06 57.92 803.87 55.37 804.00 54.00
C 804.00 51.67 804.00 49.33 804.00 47.00
C 801.00 47.00 798.00 47.00 795.00 47.00
C 791.05 47.38 782.33 47.93 778.00 48.00 C 773.67 48.07 764.50 46.11 763.00 49.00 Z"/>
</g>
<g fill="#6CCE26" fill-opacity="0.51" stroke="None">
<path d="
M 762.00 93.00 
C 762.00 92.96 763.00 93.00 763.00 93.00
C 763.00 78.33 762.99 63.67 763.00 49.00
C 763.00 49.00 762.90 48.48 763.00 48.00
C 758.91 51.94 762.98 63.93 762.00 70.00 C 761.02 76.07 762.00 86.53 762.00 93.00 Z"/>
</g>
<g fill="#6871BC" fill-opacity="0.38" stroke="None">
<path d="
M 803.00 60.00 
C 802.75 68.98 803.00 78.01 803.00 87.00
C 803.00 86.96 804.00 87.00 804.00 87.00
C 804.00 76.01 804.22 64.99 804.00 54.00
C 803.87 55.37 803.06 57.92 803.00 60.00 Z"/>
</g>
<g fill="#496ECD" fill-opacity="0.94" stroke="None">
<path d="
M 801.00 62.00 
C 804.99 105.97 798.01 150.94 801.00 195.00
C 802.84 192.93 801.28 189.00 804.00 187.00
C 806.65 195.74 811.65 180.06 816.00 178.00
C 816.16 177.56 816.00 177.00 816.00 177.00
C 818.92 173.17 822.08 169.59 825.00 166.00
C 827.83 161.61 831.13 157.10 834.00 153.00
C 836.10 150.00 838.63 147.53 841.00 145.00
C 847.57 137.97 852.11 129.47 858.00 122.00
C 859.63 119.93 860.89 117.40 863.00 116.00
C 866.36 113.76 871.64 113.68 876.00 114.00 C 880.36 114.32 884.69 110.86 888.00 110.00
C 880.21 110.70 867.84 107.23 861.00 111.00
C 842.05 134.82 822.19 157.96 804.00 182.00
C 802.21 179.98 803.00 175.84 803.00 173.00
C 803.00 167.33 803.00 161.67 803.00 156.00
C 803.00 150.00 803.00 144.00 803.00 138.00
C 803.00 132.67 803.00 127.33 803.00 122.00
C 803.00 110.33 803.00 98.67 803.00 87.00
C 803.00 78.01 802.75 68.98 803.00 60.00
C 803.00 60.00 801.16 61.84 801.00 62.00 Z"/>
</g>
<g fill="#62A6EF" fill-opacity="1.00" stroke="None">
<path d="
M 762.00 274.00 
C 762.00 274.50 762.00 275.00 762.00 275.00
C 762.00 275.00 762.50 275.00 763.00 275.00
C 765.21 270.14 774.97 273.97 780.00 273.00 C 785.03 272.03 794.56 273.73 800.00 273.00
C 799.25 265.22 799.14 253.82 804.75 248.75 C 810.36 243.68 813.24 236.52 817.77 231.77 C 822.30 227.02 827.33 216.32 830.00 220.00
C 833.95 225.34 836.87 232.88 840.70 238.30 C 844.52 243.73 847.16 252.21 851.08 256.92 C 855.00 261.63 856.75 272.73 862.00 275.00
C 862.42 275.18 863.00 275.00 863.00 275.00
C 867.32 271.80 877.10 274.07 883.00 274.00 C 888.90 273.93 899.04 272.69 905.00 274.00
C 899.36 269.00 897.21 258.94 892.08 252.92 C 886.95 246.90 883.34 237.55 879.23 230.77 C 875.12 223.99 870.23 214.98 867.08 207.92 C 863.92 200.87 854.21 192.89 855.00 185.00
C 855.72 177.83 866.90 171.26 870.75 164.75 C 874.61 158.25 882.17 150.26 887.30 144.30 C 892.43 138.35 897.76 128.78 904.00 124.00
C 894.61 126.15 885.02 124.28 875.00 124.00 C 864.98 123.72 861.78 127.23 855.00 134.00
C 849.01 141.01 843.19 148.44 838.00 156.00
C 829.70 168.10 819.33 178.87 810.00 190.00
C 807.92 193.16 804.64 200.04 800.00 197.00
C 806.36 191.82 812.09 185.70 816.00 178.00
C 811.65 180.06 806.65 195.74 804.00 187.00
C 801.28 189.00 802.84 192.93 801.00 195.00
C 802.13 151.88 796.05 105.76 800.00 62.00
C 788.33 62.00 776.67 62.00 765.00 62.00
C 765.17 70.97 764.77 80.04 765.00 89.00 C 765.23 97.96 764.99 106.36 764.00 115.00 C 763.01 123.64 764.49 133.24 764.00 142.00 C 763.51 150.76 764.31 160.27 764.00 169.00 C 763.69 177.73 764.34 187.48 764.00 196.00 C 763.66 204.52 764.60 215.02 764.00 223.00 C 763.40 230.98 765.26 243.23 764.00 250.00 C 762.74 256.77 767.82 271.35 762.00 274.00 Z"/>
</g>
<g fill="#4E80DA" fill-opacity="1.00" stroke="None">
<path d="
M 801.00 195.00 
C 798.01 150.94 804.99 105.97 801.00 62.00
C 801.00 62.00 800.50 62.00 800.00 62.00
C 796.05 105.76 802.13 151.88 801.00 195.00 Z"/>
</g>
<g fill="#7D70E8" fill-opacity="0.26" stroke="None">
<path d="
M 803.00 122.00 
C 803.00 121.96 804.00 122.00 804.00 122.00
C 804.00 110.33 804.00 98.67 804.00 87.00
C 804.00 87.00 803.00 86.96 803.00 87.00
C 803.00 98.67 803.00 110.33 803.00 122.00 Z"/>
</g>
<g fill="#81D2F7" fill-opacity="0.72" stroke="None">
<path d="
M 762.00 144.00 
C 762.00 143.96 763.00 144.00 763.00 144.00
C 763.00 127.00 763.00 110.00 763.00 93.00
C 763.00 93.00 762.00 92.96 762.00 93.00
C 762.00 110.00 762.00 127.00 762.00 144.00 Z"/>
</g>
<g fill="#79CDF8" fill-opacity="0.97" stroke="None">
<path d="
M 493.00 105.00 
C 491.08 106.92 493.67 114.14 492.00 117.00
C 498.33 117.00 504.67 117.00 511.00 117.00
C 508.06 119.80 501.87 116.16 499.00 119.00
C 506.84 118.47 515.10 120.93 522.00 119.00
C 518.52 118.47 515.36 116.97 512.00 116.00
C 512.00 112.33 512.00 108.67 512.00 105.00
C 513.67 105.00 515.33 105.00 517.00 105.00
C 509.63 103.80 500.78 103.63 493.00 105.00 Z"/>
</g>
<g fill="#83E3F8" fill-opacity="0.96" stroke="None">
<path d="
M 463.00 118.00 
C 462.77 118.34 463.00 119.00 463.00 119.00
C 463.00 126.00 462.69 128.27 458.00 133.00
C 457.47 133.68 457.12 135.02 456.00 135.00
C 461.50 137.76 468.17 128.05 474.70 125.69 C 481.22 123.34 491.22 119.53 499.00 119.00
C 501.87 116.16 508.06 119.80 511.00 117.00
C 504.67 117.00 498.33 117.00 492.00 117.00
C 493.67 114.14 491.08 106.92 493.00 105.00
C 484.00 106.58 468.57 109.84 463.00 118.00 Z"/>
</g>
<g fill="#62A6EF" fill-opacity="1.00" stroke="None">
<path d="
M 499.00 119.00 
C 491.22 119.53 481.22 123.34 474.70 125.69 C 468.17 128.05 461.50 137.76 456.00 135.00
C 454.36 134.97 451.47 129.13 450.23 127.77 C 448.99 126.41 444.53 122.99 444.00 121.00
C 442.43 122.91 439.04 121.55 437.00 122.00
C 436.33 171.91 438.33 222.53 436.00 272.00
C 436.50 271.95 437.00 272.00 437.00 272.00
C 445.06 266.04 462.51 274.39 472.00 271.00
C 472.67 241.17 470.67 210.01 473.00 181.00
C 478.77 154.96 515.22 142.54 529.00 168.00
C 531.34 171.15 532.97 174.39 534.00 178.00
C 538.30 186.14 537.59 198.04 537.00 208.00 C 536.41 217.96 538.52 231.49 537.00 241.00 C 535.48 250.51 541.27 266.25 535.00 273.00
C 535.05 273.35 535.65 273.95 536.00 274.00
C 540.43 269.88 547.64 273.70 553.00 272.00 C 558.36 270.30 568.59 275.09 573.00 272.00
C 572.98 263.83 573.03 256.23 573.00 248.00 C 572.97 239.77 573.06 231.31 573.00 223.00 C 572.94 214.69 573.12 207.50 573.00 199.00 C 572.88 190.50 573.67 183.59 572.01 174.99 C 570.34 166.40 571.08 164.92 566.08 155.92 C 561.07 146.93 554.03 134.46 544.25 128.75 C 534.48 123.03 542.17 118.24 537.00 111.00
C 530.36 107.56 524.31 106.19 517.00 105.00
C 515.33 105.00 513.67 105.00 512.00 105.00
C 512.00 108.67 512.00 112.33 512.00 116.00
C 515.36 116.97 518.52 118.47 522.00 119.00
C 515.10 120.93 506.84 118.47 499.00 119.00 Z"/>
</g>
<g fill="#72C723" fill-opacity="0.25" stroke="None">
<path d="
M 435.00 108.00 
C 436.86 105.37 442.49 107.93 445.00 107.00
C 442.09 105.64 436.56 104.78 435.00 108.00 Z"/>
</g>
<g fill="#77CEFB" fill-opacity="0.99" stroke="None">
<path d="
M 435.00 108.00 
C 434.08 109.90 435.20 113.87 435.00 116.00
C 435.16 125.34 435.00 137.55 435.00 148.00
C 435.00 159.33 435.00 170.67 435.00 182.00
C 435.00 204.67 435.00 227.33 435.00 250.00
C 435.00 255.72 434.48 262.03 434.00 267.00
C 434.00 268.86 433.62 271.18 434.00 273.00
C 434.02 273.10 435.00 273.00 435.00 273.00
C 435.26 272.88 435.65 272.03 436.00 272.00
C 438.33 222.53 436.33 171.91 437.00 122.00
C 439.04 121.55 442.43 122.91 444.00 121.00
C 442.78 116.38 446.39 111.78 445.00 107.00
C 442.49 107.93 436.86 105.37 435.00 108.00 Z"/>
</g>
<g fill="#5481D8" fill-opacity="0.95" stroke="None">
<path d="
M 444.00 121.00 
C 444.53 122.99 448.99 126.41 450.23 127.77 C 451.47 129.13 454.36 134.97 456.00 135.00
C 457.12 135.02 457.47 133.68 458.00 133.00
C 460.77 129.45 459.66 120.52 463.00 119.00
C 463.00 119.00 462.77 118.34 463.00 118.00
C 460.32 117.47 459.66 121.48 457.00 121.00
C 453.82 116.79 450.43 109.54 445.00 107.00
C 446.39 111.78 442.78 116.38 444.00 121.00 Z"/>
</g>
<g fill="#81DFF8" fill-opacity="0.97" stroke="None">
<path d="
M 631.00 111.00 
C 627.94 112.65 625.52 114.74 622.00 116.00
C 620.79 116.43 620.89 116.20 620.00 117.00
C 615.89 120.70 611.53 127.05 607.00 130.00
C 607.00 130.00 607.18 130.57 607.00 131.00
C 605.86 133.77 604.37 135.70 603.00 138.00
C 599.56 146.67 599.92 154.20 599.00 164.00
C 599.04 166.40 598.99 171.59 599.00 174.00
C 599.24 175.82 599.68 177.66 600.00 179.00
C 600.02 171.95 601.36 162.97 603.32 156.32 C 605.29 149.68 607.14 144.30 612.25 139.25 C 617.36 134.19 620.55 131.32 627.08 128.08 C 633.60 124.83 641.02 122.85 649.00 123.00 C 656.98 123.15 666.90 123.53 675.00 123.00 C 683.10 122.47 693.15 124.56 701.00 123.00 C 708.85 121.44 721.00 126.47 728.00 123.00
C 728.09 122.99 719.96 119.79 715.00 121.00 C 710.04 122.21 702.53 120.40 697.00 121.00 C 691.47 121.60 684.77 120.62 679.00 121.00 C 673.23 121.38 666.86 120.57 661.00 121.00 C 655.14 121.43 649.79 119.93 644.00 120.00
C 644.00 116.33 644.00 112.67 644.00 109.00
C 650.00 109.00 656.00 109.00 662.00 109.00
C 661.96 109.00 662.00 108.00 662.00 108.00
C 651.19 108.00 640.86 107.36 631.00 111.00 Z"/>
</g>
<g fill="#98C4DA" fill-opacity="0.65" stroke="None">
<path d="
M 662.00 109.00 
C 676.33 109.00 690.67 109.00 705.00 109.00
C 704.96 109.00 705.00 108.00 705.00 108.00
C 690.67 108.00 676.33 108.00 662.00 108.00
C 662.00 108.00 661.96 109.00 662.00 109.00 Z"/>
</g>
<g fill="#88B6E2" fill-opacity="0.46" stroke="None">
<path d="
M 705.00 109.00 
C 713.55 109.00 722.49 108.23 731.00 109.00
C 727.51 105.39 710.36 108.00 705.00 108.00
C 705.00 108.00 704.96 109.00 705.00 109.00 Z"/>
</g>
<g fill="#74C5FD" fill-opacity="1.00" stroke="None">
<path d="
M 728.00 123.00 
C 728.03 122.93 729.88 121.12 730.00 121.00
C 729.71 117.79 729.26 112.36 731.00 110.00
C 731.00 110.00 731.25 109.26 731.00 109.00
C 722.49 108.23 713.55 109.00 705.00 109.00
C 690.67 109.00 676.33 109.00 662.00 109.00
C 656.00 109.00 650.00 109.00 644.00 109.00
C 644.00 112.67 644.00 116.33 644.00 120.00
C 649.79 119.93 655.14 121.43 661.00 121.00 C 666.86 120.57 673.23 121.38 679.00 121.00 C 684.77 120.62 691.47 121.60 697.00 121.00 C 702.53 120.40 710.04 122.21 715.00 121.00 C 719.96 119.79 728.09 122.99 728.00 123.00 Z"/>
</g>
<g fill="#827EA7" fill-opacity="0.61" stroke="None">
<path d="
M 861.00 111.00 
C 867.84 107.23 880.21 110.70 888.00 110.00
C 887.96 110.00 888.00 109.00 888.00 109.00
C 880.40 109.00 866.69 106.55 861.00 111.00 Z"/>
</g>
<g fill="#8EB8DD" fill-opacity="0.51" stroke="None">
<path d="
M 888.00 110.00 
C 890.94 110.27 894.04 110.00 897.00 110.00
C 901.00 110.00 905.00 110.00 909.00 110.00
C 909.50 110.00 910.00 110.00 910.00 110.00
C 906.92 106.79 892.72 109.00 888.00 109.00
C 888.00 109.00 887.96 110.00 888.00 110.00 Z"/>
</g>
<g fill="#5A98EB" fill-opacity="0.96" stroke="None">
<path d="
M 730.00 121.00 
C 730.26 120.75 731.00 121.00 731.00 121.00
C 731.00 117.33 731.00 113.67 731.00 110.00
C 729.26 112.36 729.71 117.79 730.00 121.00 Z"/>
</g>
<g fill="#63A5EF" fill-opacity="1.00" stroke="None">
<path d="
M 863.00 116.00 
C 867.95 114.08 875.60 114.70 881.01 114.01 C 886.42 113.31 892.26 111.05 897.00 110.00
C 894.04 110.00 890.94 110.27 888.00 110.00
C 884.69 110.86 880.36 114.32 876.00 114.00 C 871.64 113.68 866.36 113.76 863.00 116.00 Z"/>
</g>
<g fill="#76C9FD" fill-opacity="1.00" stroke="None">
<path d="
M 863.00 116.00 
C 860.89 117.40 859.63 119.93 858.00 122.00
C 859.17 120.92 860.71 119.85 862.00 119.00
C 866.05 124.50 857.91 128.93 855.00 134.00
C 861.78 127.23 864.98 123.72 875.00 124.00 C 885.02 124.28 894.61 126.15 904.00 124.00
C 905.10 123.15 907.09 123.00 908.00 122.00
C 908.57 120.85 908.65 120.50 909.00 119.00
C 909.13 117.14 908.75 112.80 909.00 110.00
C 905.00 110.00 901.00 110.00 897.00 110.00
C 892.26 111.05 886.42 113.31 881.01 114.01 C 875.60 114.70 867.95 114.08 863.00 116.00 Z"/>
</g>
<g fill="#74BD44" fill-opacity="0.25" stroke="None">
<path d="
M 909.00 119.00 
C 909.69 116.00 910.30 113.33 910.00 110.00
C 910.00 110.00 909.50 110.00 909.00 110.00
C 908.75 112.80 909.13 117.14 909.00 119.00 Z"/>
</g>
<g fill="#507ED8" fill-opacity="0.98" stroke="None">
<path d="
M 573.00 272.00 
C 577.13 269.11 572.80 257.41 574.00 252.00 C 575.20 246.59 573.47 237.25 574.00 231.00 C 574.53 224.75 573.79 216.58 574.00 210.00 C 574.21 203.42 573.98 195.62 574.00 189.00 C 574.02 182.38 574.56 175.06 573.07 168.93 C 571.59 162.79 571.65 157.00 570.00 151.00
C 572.34 150.32 571.86 153.87 574.00 154.00
C 571.68 144.80 565.88 136.45 560.00 129.00
C 554.10 122.62 546.57 117.82 540.00 113.00
C 539.04 112.30 538.22 111.63 537.00 111.00
C 542.17 118.24 534.48 123.03 544.25 128.75 C 554.03 134.46 561.07 146.93 566.08 155.92 C 571.08 164.92 570.34 166.40 572.01 174.99 C 573.67 183.59 572.88 190.50 573.00 199.00 C 573.12 207.50 572.94 214.69 573.00 223.00 C 573.06 231.31 572.97 239.77 573.00 248.00 C 573.03 256.23 572.98 263.83 573.00 272.00 Z"/>
</g>
<g fill="#7DE880" fill-opacity="0.36" stroke="None">
<path d="
M 622.00 116.00 
C 625.52 114.74 627.94 112.65 631.00 111.00
C 627.40 112.33 625.00 113.94 622.00 116.00 Z"/>
</g>
<g fill="#8085C8" fill-opacity="0.39" stroke="None">
<path d="
M 560.00 129.00 
C 554.29 121.77 547.53 117.29 540.00 113.00
C 546.57 117.82 554.10 122.62 560.00 129.00 Z"/>
</g>
<g fill="#63CB5B" fill-opacity="0.18" stroke="None">
<path d="
M 434.00 148.00 
C 434.00 147.96 435.00 148.00 435.00 148.00
C 435.00 137.55 435.16 125.34 435.00 116.00
C 434.03 126.32 434.00 137.28 434.00 148.00 Z"/>
</g>
<g fill="#73ED61" fill-opacity="0.21" stroke="None">
<path d="
M 607.00 130.00 
C 611.53 127.05 615.89 120.70 620.00 117.00
C 614.69 120.10 610.27 124.75 607.00 130.00 Z"/>
</g>
<g fill="#69B2F3" fill-opacity="1.00" stroke="None">
<path d="
M 458.00 133.00 
C 462.69 128.27 463.00 126.00 463.00 119.00
C 459.66 120.52 460.77 129.45 458.00 133.00 Z"/>
</g>
<g fill="#84E6FB" fill-opacity="1.00" stroke="None">
<path d="
M 858.00 122.00 
C 852.11 129.47 847.57 137.97 841.00 145.00
C 838.90 147.93 836.23 150.29 834.00 153.00
C 831.13 157.10 827.83 161.61 825.00 166.00
C 822.48 169.90 819.84 174.31 816.00 177.00
C 816.00 177.00 816.16 177.56 816.00 178.00
C 812.09 185.70 806.36 191.82 800.00 197.00
C 804.64 200.04 807.92 193.16 810.00 190.00
C 817.92 177.98 828.33 166.45 838.00 156.00
C 843.19 148.44 849.01 141.01 855.00 134.00
C 857.91 128.93 866.05 124.50 862.00 119.00
C 860.71 119.85 859.17 120.92 858.00 122.00 Z"/>
</g>
<g fill="#4468CC" fill-opacity="0.97" stroke="None">
<path d="
M 728.00 123.00 
C 725.81 127.80 729.08 134.65 728.00 140.00 C 726.92 145.35 728.81 152.49 728.00 158.00
C 720.00 158.00 712.00 158.00 704.00 158.00
C 685.66 158.00 664.01 154.77 646.00 158.00
C 639.29 160.12 632.60 170.80 639.25 175.75 C 645.89 180.70 655.29 177.68 663.00 177.00
C 693.16 170.86 723.71 178.41 735.00 209.00
C 744.80 235.55 727.22 270.36 697.00 272.00
C 667.03 276.87 632.00 273.00 601.00 273.00
C 600.50 273.00 600.00 273.00 600.00 273.00
C 599.50 273.00 599.00 273.00 599.00 273.00
C 599.00 273.50 599.00 274.00 599.00 274.00
C 599.24 275.46 601.02 274.92 602.00 275.00
C 605.94 274.80 611.35 274.00 616.00 274.00
C 625.67 274.00 635.33 274.00 645.00 274.00
C 649.67 274.00 654.33 274.00 659.00 274.00
C 670.65 274.00 682.35 273.71 694.00 274.00
C 714.60 274.52 738.78 255.52 740.00 233.00
C 740.22 228.92 740.51 224.41 741.00 221.00
C 741.33 212.23 741.08 205.34 738.00 197.00
C 736.37 193.77 734.00 190.24 732.00 187.00
C 724.57 175.01 709.75 168.28 696.00 168.00
C 685.68 167.79 675.33 168.00 665.00 168.00
C 659.20 168.00 651.96 168.88 647.00 167.00
C 641.10 164.77 641.56 161.65 647.00 160.00
C 655.28 157.49 666.85 159.00 676.00 159.00
C 693.75 159.00 712.33 157.40 730.00 159.00
C 730.00 156.00 730.00 153.00 730.00 150.00
C 730.00 143.62 730.46 136.62 731.00 131.00
C 731.00 127.67 731.00 124.33 731.00 121.00
C 731.00 121.00 730.26 120.75 730.00 121.00
C 729.88 121.12 728.03 122.93 728.00 123.00 Z"/>
</g>
<g fill="#946A1D" fill-opacity="0.21" stroke="None">
<path d="
M 803.00 138.00 
C 803.00 137.96 804.00 138.00 804.00 138.00
C 804.00 132.67 804.00 127.33 804.00 122.00
C 804.00 122.00 803.00 121.96 803.00 122.00
C 803.00 127.33 803.00 132.67 803.00 138.00 Z"/>
</g>
<g fill="#4764C5" fill-opacity="0.85" stroke="None">
<path d="
M 904.00 124.00 
C 897.76 128.78 892.43 138.35 887.30 144.30 C 882.17 150.26 874.61 158.25 870.75 164.75 C 866.90 171.26 855.72 177.83 855.00 185.00
C 856.97 184.62 859.69 182.56 861.00 181.00
C 868.81 171.68 877.16 161.38 884.75 151.75 C 892.34 142.12 902.55 132.92 908.00 122.00
C 907.09 123.00 905.10 123.15 904.00 124.00 Z"/>
</g>
<g fill="#62A6EF" fill-opacity="1.00" stroke="None">
<path d="
M 600.00 179.00 
C 601.53 185.49 602.87 191.45 607.00 197.00
C 609.92 200.35 614.39 204.48 618.00 207.00
C 625.48 212.34 634.06 215.01 643.00 216.00 C 651.94 216.99 667.49 217.28 676.00 217.00 C 684.51 216.72 703.98 214.04 700.00 227.00
C 700.34 226.40 701.25 225.33 702.00 225.00
C 703.01 230.00 699.96 235.82 695.00 237.00
C 681.35 242.04 664.05 236.17 649.00 238.00 C 633.95 239.83 616.29 236.63 601.00 238.00
C 600.36 249.59 602.30 261.86 600.00 273.00
C 600.00 273.00 600.50 273.00 601.00 273.00
C 608.23 267.65 622.59 273.77 632.00 272.00 C 641.41 270.23 653.86 272.86 664.00 272.00 C 674.14 271.14 686.64 272.56 697.00 272.00
C 727.22 270.36 744.80 235.55 735.00 209.00
C 729.47 198.06 721.49 188.46 710.25 181.75 C 699.01 175.04 676.80 175.79 663.00 177.00
C 655.29 177.68 645.89 180.70 639.25 175.75 C 632.60 170.80 639.29 160.12 646.00 158.00
C 654.59 155.28 665.56 157.70 675.00 157.00 C 684.44 156.30 695.32 157.16 704.00 158.00
C 712.00 158.00 720.00 158.00 728.00 158.00
C 728.81 152.49 726.92 145.35 728.00 140.00 C 729.08 134.65 725.81 127.80 728.00 123.00
C 721.00 126.47 708.85 121.44 701.00 123.00 C 693.15 124.56 683.10 122.47 675.00 123.00 C 666.90 123.53 656.98 123.15 649.00 123.00 C 641.02 122.85 633.60 124.83 627.08 128.08 C 620.55 131.32 617.36 134.19 612.25 139.25 C 607.14 144.30 605.29 149.68 603.32 156.32 C 601.36 162.97 600.02 171.95 600.00 179.00
M 700.00 181.00 
C 683.74 182.66 664.19 182.67 648.00 181.00
C 664.37 179.25 683.29 179.45 700.00 181.00 Z"/>
</g>
<g fill="#6CE959" fill-opacity="0.46" stroke="None">
<path d="
M 603.00 138.00 
C 604.37 135.70 605.86 133.77 607.00 131.00
C 604.41 132.62 604.03 135.40 603.00 138.00 Z"/>
</g>
<g fill="#3F64CC" fill-opacity="0.85" stroke="None">
<path d="
M 730.00 150.00 
C 730.00 149.96 731.00 150.00 731.00 150.00
C 731.00 143.67 731.00 137.33 731.00 131.00
C 730.46 136.62 730.00 143.62 730.00 150.00 Z"/>
</g>
<g fill="#AC6F6E" fill-opacity="0.10" stroke="None">
<path d="
M 803.00 156.00 
C 803.00 155.96 804.00 156.00 804.00 156.00
C 804.00 150.00 804.00 144.00 804.00 138.00
C 804.00 138.00 803.00 137.96 803.00 138.00
C 803.00 144.00 803.00 150.00 803.00 156.00 Z"/>
</g>
<g fill="#82D4F7" fill-opacity="0.86" stroke="None">
<path d="
M 762.00 161.00 
C 762.48 156.03 763.00 149.72 763.00 144.00
C 763.00 144.00 762.00 143.96 762.00 144.00
C 762.00 149.67 762.00 155.33 762.00 161.00 Z"/>
</g>
<g fill="#61A7EA" fill-opacity="1.00" stroke="None">
<path d="
M 834.00 153.00 
C 836.23 150.29 838.90 147.93 841.00 145.00
C 838.63 147.53 836.10 150.00 834.00 153.00 Z"/>
</g>
<g fill="#29CD58" fill-opacity="0.30" stroke="None">
<path d="
M 434.00 182.00 
C 434.00 181.96 435.00 182.00 435.00 182.00
C 435.00 170.67 435.00 159.33 435.00 148.00
C 435.00 148.00 434.00 147.96 434.00 148.00
C 434.00 159.33 434.00 170.67 434.00 182.00 Z"/>
</g>
<g fill="#6F6AAF" fill-opacity="0.47" stroke="None">
<path d="
M 730.00 159.00 
C 730.00 159.50 730.00 160.00 730.00 160.00
C 731.99 158.09 731.00 152.84 731.00 150.00
C 731.00 150.00 730.00 149.96 730.00 150.00
C 730.00 153.00 730.00 156.00 730.00 159.00 Z"/>
</g>
<g fill="#4569CC" fill-opacity="0.94" stroke="None">
<path d="
M 573.00 272.00 
C 568.59 275.09 558.36 270.30 553.00 272.00 C 547.64 273.70 540.43 269.88 536.00 274.00
C 549.33 274.00 562.67 274.00 576.00 274.00
C 576.20 272.71 575.74 271.28 576.00 270.00
C 576.69 263.89 575.00 254.03 575.00 247.00
C 575.00 235.37 574.95 222.85 576.00 212.00
C 576.00 192.55 578.59 172.25 574.00 154.00
C 571.86 153.87 572.34 150.32 570.00 151.00
C 571.65 157.00 571.59 162.79 573.07 168.93 C 574.56 175.06 574.02 182.38 574.00 189.00 C 573.98 195.62 574.21 203.42 574.00 210.00 C 573.79 216.58 574.53 224.75 574.00 231.00 C 573.47 237.25 575.20 246.59 574.00 252.00 C 572.80 257.41 577.13 269.11 573.00 272.00 Z"/>
</g>
<g fill="#3F67CC" fill-opacity="0.93" stroke="None">
<path d="
M 473.00 181.00 
C 469.92 211.02 475.31 241.90 473.00 272.00
C 461.00 272.00 449.00 272.00 437.00 272.00
C 437.00 272.00 436.50 271.95 436.00 272.00
C 435.65 272.03 435.26 272.88 435.00 273.00
C 441.00 273.00 447.00 273.00 453.00 273.00
C 457.74 273.00 463.01 273.61 467.00 274.00
C 469.67 274.00 472.33 274.00 475.00 274.00
C 475.00 270.00 475.00 266.00 475.00 262.00
C 475.00 257.33 475.00 252.67 475.00 248.00
C 475.00 242.00 475.00 236.00 475.00 230.00
C 475.00 224.67 475.00 219.33 475.00 214.00
C 475.00 202.69 473.08 188.31 476.00 178.00
C 480.48 162.19 496.70 153.20 512.00 156.00
C 513.86 156.34 514.61 157.19 516.00 158.00
C 521.13 160.18 525.58 163.39 529.00 168.00
C 515.22 142.54 478.77 154.96 473.00 181.00 Z"/>
</g>
<g fill="#1C52D8" fill-opacity="0.53" stroke="None">
<path d="
M 516.00 158.00 
C 514.61 157.19 513.86 156.34 512.00 156.00
C 512.77 156.24 514.98 157.57 516.00 158.00 Z"/>
</g>
<g fill="#B692DB" fill-opacity="0.03" stroke="None">
<path d="
M 803.00 173.00 
C 803.48 168.03 804.00 161.72 804.00 156.00
C 804.00 156.00 803.00 155.96 803.00 156.00
C 803.00 161.67 803.00 167.33 803.00 173.00 Z"/>
</g>
<g fill="#72C4FA" fill-opacity="1.00" stroke="None">
<path d="
M 810.00 190.00 
C 819.33 178.87 829.70 168.10 838.00 156.00
C 828.33 166.45 817.92 177.98 810.00 190.00 Z"/>
</g>
<g fill="#538ADF" fill-opacity="1.00" stroke="None">
<path d="
M 646.00 158.00 
C 664.01 154.77 685.66 158.00 704.00 158.00
C 695.32 157.16 684.44 156.30 675.00 157.00 C 665.56 157.70 654.59 155.28 646.00 158.00 Z"/>
</g>
<g fill="#025221" fill-opacity="0.42" stroke="None">
<path d="
M 647.00 160.00 
C 656.07 158.47 666.78 160.00 676.00 160.00
C 675.96 160.00 676.00 159.00 676.00 159.00
C 666.85 159.00 655.28 157.49 647.00 160.00 Z"/>
</g>
<g fill="#1C52D8" fill-opacity="0.62" stroke="None">
<path d="
M 676.00 160.00 
C 693.75 160.00 712.33 161.59 730.00 160.00
C 730.00 160.00 730.00 159.50 730.00 159.00
C 712.33 157.40 693.75 159.00 676.00 159.00
C 676.00 159.00 675.96 160.00 676.00 160.00 Z"/>
</g>
<g fill="#6FCE49" fill-opacity="0.46" stroke="None">
<path d="
M 599.00 174.00 
C 598.99 171.59 599.04 166.40 599.00 164.00
C 598.65 167.69 598.51 170.23 599.00 174.00 Z"/>
</g>
<g fill="#5D9DE6" fill-opacity="1.00" stroke="None">
<path d="
M 816.00 177.00 
C 819.84 174.31 822.48 169.90 825.00 166.00
C 822.08 169.59 818.92 173.17 816.00 177.00 Z"/>
</g>
<g fill="#756CA3" fill-opacity="0.62" stroke="None">
<path d="
M 665.00 168.00 
C 664.96 168.00 665.00 167.00 665.00 167.00
C 659.48 167.00 652.36 168.23 647.00 167.00
C 651.96 168.88 659.20 168.00 665.00 168.00 Z"/>
</g>
<g fill="#6D65AB" fill-opacity="0.44" stroke="None">
<path d="
M 665.00 168.00 
C 675.33 168.00 685.68 167.79 696.00 168.00
C 686.47 166.85 675.31 167.00 665.00 167.00
C 665.00 167.00 664.96 168.00 665.00 168.00 Z"/>
</g>
<g fill="#548AE0" fill-opacity="1.00" stroke="None">
<path d="
M 663.00 177.00 
C 676.80 175.79 699.01 175.04 710.25 181.75 C 721.49 188.46 729.47 198.06 735.00 209.00
C 723.71 178.41 693.16 170.86 663.00 177.00 Z"/>
</g>
<g fill="#795BE2" fill-opacity="0.27" stroke="None">
<path d="
M 475.00 214.00 
C 475.00 213.96 476.00 214.00 476.00 214.00
C 476.00 202.45 474.26 189.39 476.00 178.00
C 473.08 188.31 475.00 202.69 475.00 214.00 Z"/>
</g>
<g fill="#7AD5ED" fill-opacity="0.96" stroke="None">
<path d="
M 535.00 182.00 
C 538.88 195.77 536.35 217.06 535.00 231.00
C 535.00 244.52 533.07 259.63 535.00 273.00
C 541.27 266.25 535.48 250.51 537.00 241.00 C 538.52 231.49 536.41 217.96 537.00 208.00 C 537.59 198.04 538.30 186.14 534.00 178.00
C 534.38 179.35 534.81 180.64 535.00 182.00 Z"/>
</g>
<g fill="#7AD501" fill-opacity="0.96" stroke="None">
<path d="
M 762.00 204.00 
C 762.00 204.50 762.00 205.00 762.00 205.00
C 762.79 196.89 762.79 187.18 762.00 179.00
C 762.00 187.33 762.01 195.67 762.00 204.00 Z"/>
</g>
<g fill="#7BD2FC" fill-opacity="1.00" stroke="None">
<path d="
M 700.00 181.00 
C 683.29 179.45 664.37 179.25 648.00 181.00
C 664.19 182.67 683.74 182.66 700.00 181.00 Z"/>
</g>
<g fill="#4E81DA" fill-opacity="1.00" stroke="None">
<path d="
M 437.00 272.00 
C 449.00 272.00 461.00 272.00 473.00 272.00
C 475.31 241.90 469.92 211.02 473.00 181.00
C 470.67 210.01 472.67 241.17 472.00 271.00
C 462.51 274.39 445.06 266.04 437.00 272.00 Z"/>
</g>
<g fill="#517CD6" fill-opacity="0.95" stroke="None">
<path d="
M 855.00 185.00 
C 854.21 192.89 863.92 200.87 867.08 207.92 C 870.23 214.98 875.12 223.99 879.23 230.77 C 883.34 237.55 886.95 246.90 892.08 252.92 C 897.21 258.94 899.36 269.00 905.00 274.00
C 905.37 274.08 907.30 274.78 908.00 275.00
C 907.99 270.94 908.81 265.96 908.00 262.00
C 905.98 256.18 901.40 250.72 898.77 245.23 C 896.14 239.74 891.99 233.96 889.25 228.75 C 886.52 223.53 883.06 217.61 879.92 213.08 C 876.79 208.55 874.00 199.76 870.75 196.25 C 867.50 192.73 865.07 181.41 861.00 181.00
C 859.69 182.56 856.97 184.62 855.00 185.00 Z"/>
</g>
<g fill="#62D019" fill-opacity="0.49" stroke="None">
<path d="
M 434.00 250.00 
C 434.00 249.96 435.00 250.00 435.00 250.00
C 435.00 227.33 435.00 204.67 435.00 182.00
C 435.00 182.00 434.00 181.96 434.00 182.00
C 434.00 204.67 434.00 227.33 434.00 250.00 Z"/>
</g>
<g fill="#81D2F7" fill-opacity="0.72" stroke="None">
<path d="
M 535.00 231.00 
C 536.35 217.06 538.88 195.77 535.00 182.00
C 537.21 197.62 535.00 215.20 535.00 231.00 Z"/>
</g>
<g fill="#7E62B8" fill-opacity="0.44" stroke="None">
<path d="
M 738.00 197.00 
C 736.43 192.76 734.69 190.45 732.00 187.00
C 734.00 190.24 736.37 193.77 738.00 197.00 Z"/>
</g>
<g fill="#307CB5" fill-opacity="0.52" stroke="None">
<path d="
M 618.00 208.00 
C 617.77 207.66 618.00 207.00 618.00 207.00
C 614.39 204.48 609.92 200.35 607.00 197.00
C 610.36 201.52 613.60 204.60 618.00 208.00 Z"/>
</g>
<g fill="#7FDF20" fill-opacity="0.03" stroke="None">
<path d="
M 761.00 213.00 
C 761.00 212.96 762.00 213.00 762.00 213.00
C 762.00 210.33 762.00 207.67 762.00 205.00
C 762.00 205.00 762.00 204.50 762.00 204.00
C 761.77 206.36 761.00 209.90 761.00 213.00 Z"/>
</g>
<g fill="#4268CE" fill-opacity="0.98" stroke="None">
<path d="
M 618.00 208.00 
C 623.33 215.78 637.75 218.21 646.00 218.00
C 660.60 217.63 679.47 215.59 693.00 219.00
C 694.54 220.30 696.34 218.41 697.00 221.00
C 695.59 221.54 694.41 222.44 693.00 223.00
C 686.00 225.80 676.93 223.23 669.00 224.00 C 661.07 224.77 651.22 223.70 644.00 223.00
C 629.00 223.00 614.00 223.00 599.00 223.00
C 598.68 224.22 599.42 225.81 599.00 227.00
C 598.81 228.61 599.00 230.37 599.00 232.00
C 611.27 232.25 623.92 229.96 636.00 229.00
C 641.31 227.97 653.25 226.04 659.00 228.00 C 664.75 229.96 673.63 233.87 680.00 232.00 C 686.37 230.13 697.63 234.71 700.00 227.00
C 703.98 214.04 684.51 216.72 676.00 217.00 C 667.49 217.28 651.94 216.99 643.00 216.00 C 634.06 215.01 625.48 212.34 618.00 207.00
C 618.00 207.00 617.77 207.66 618.00 208.00 Z"/>
</g>
<g fill="#3D64CE" fill-opacity="0.83" stroke="None">
<path d="
M 575.00 247.00 
C 575.00 246.96 576.00 247.00 576.00 247.00
C 576.00 235.33 576.00 223.67 576.00 212.00
C 574.95 222.85 575.00 235.37 575.00 247.00 Z"/>
</g>
<g fill="#63C78B" fill-opacity="0.11" stroke="None">
<path d="
M 761.00 230.00 
C 761.00 229.96 762.00 230.00 762.00 230.00
C 762.00 224.33 762.00 218.67 762.00 213.00
C 762.00 213.00 761.00 212.96 761.00 213.00
C 761.00 218.67 761.00 224.33 761.00 230.00 Z"/>
</g>
<g fill="#905B1A" fill-opacity="0.21" stroke="None">
<path d="
M 475.00 230.00 
C 475.00 229.96 476.00 230.00 476.00 230.00
C 476.00 224.67 476.00 219.33 476.00 214.00
C 476.00 214.00 475.00 213.96 475.00 214.00
C 475.00 219.33 475.00 224.67 475.00 230.00 Z"/>
</g>
<g fill="#1F52D4" fill-opacity="0.65" stroke="None">
<path d="
M 693.00 219.00 
C 679.47 215.59 660.60 217.63 646.00 218.00
C 660.69 219.24 677.68 217.34 693.00 219.00 Z"/>
</g>
<g fill="#4667C9" fill-opacity="0.91" stroke="None">
<path d="
M 763.00 275.00 
C 766.00 275.00 769.00 275.00 772.00 275.00
C 779.00 275.00 786.00 275.00 793.00 275.00
C 794.73 275.00 800.69 275.98 802.00 275.00
C 803.25 273.66 802.88 271.68 803.00 270.00
C 802.83 262.60 800.01 256.99 806.00 251.00
C 809.84 246.14 815.30 240.52 818.25 235.25 C 821.19 229.98 828.78 225.84 830.00 220.00
C 827.33 216.32 822.30 227.02 817.77 231.77 C 813.24 236.52 810.36 243.68 804.75 248.75 C 799.14 253.82 799.25 265.22 800.00 273.00
C 794.56 273.73 785.03 272.03 780.00 273.00 C 774.97 273.97 765.21 270.14 763.00 275.00 Z"/>
</g>
<g fill="#7D6FB1" fill-opacity="0.41" stroke="None">
<path d="
M 740.00 233.00 
C 740.56 229.54 740.84 225.14 741.00 221.00
C 740.51 224.41 740.22 228.92 740.00 233.00 Z"/>
</g>
<g fill="#74659E" fill-opacity="0.64" stroke="None">
<path d="
M 693.00 223.00 
C 685.31 224.85 675.89 222.27 668.00 223.00 C 660.11 223.73 651.92 223.00 644.00 223.00
C 651.22 223.70 661.07 224.77 669.00 224.00 C 676.93 223.23 686.00 225.80 693.00 223.00 Z"/>
</g>
<g fill="#84E5FC" fill-opacity="1.00" stroke="None">
<path d="
M 700.00 227.00 
C 699.59 227.73 699.48 229.13 699.00 230.00
C 697.49 232.75 694.75 234.84 692.00 236.00
C 692.26 237.39 694.05 236.78 695.00 237.00
C 699.96 235.82 703.01 230.00 702.00 225.00
C 701.25 225.33 700.34 226.40 700.00 227.00 Z"/>
</g>
<g fill="#82734C" fill-opacity="0.19" stroke="None">
<path d="
M 598.00 233.00 
C 598.00 232.96 599.00 233.00 599.00 233.00
C 599.25 232.75 599.00 232.00 599.00 232.00
C 599.00 230.37 598.81 228.61 599.00 227.00
C 598.34 228.89 598.07 230.51 598.00 233.00 Z"/>
</g>
<g fill="#5183DD" fill-opacity="1.00" stroke="None">
<path d="
M 636.00 229.00 
C 655.19 227.48 672.00 235.82 692.00 233.00
C 693.14 232.84 694.95 232.49 696.00 232.00
C 696.74 231.47 698.51 230.65 699.00 230.00
C 699.48 229.13 699.59 227.73 700.00 227.00
C 697.63 234.71 686.37 230.13 680.00 232.00 C 673.63 233.87 664.75 229.96 659.00 228.00 C 653.25 226.04 641.31 227.97 636.00 229.00 Z"/>
</g>
<g fill="#609FEC" fill-opacity="1.00" stroke="None">
<path d="
M 599.00 232.00 
C 599.00 232.00 599.25 232.75 599.00 233.00
C 614.14 234.37 630.77 228.63 645.08 230.93 C 659.38 233.23 677.47 237.10 692.00 233.00
C 672.00 235.82 655.19 227.48 636.00 229.00
C 623.92 229.96 611.27 232.25 599.00 232.00 Z"/>
</g>
<g fill="#AD5D5C" fill-opacity="0.10" stroke="None">
<path d="
M 475.00 248.00 
C 475.00 247.96 476.00 248.00 476.00 248.00
C 476.00 242.00 476.00 236.00 476.00 230.00
C 476.00 230.00 475.00 229.96 475.00 230.00
C 475.00 236.00 475.00 242.00 475.00 248.00 Z"/>
</g>
<g fill="#6FBAFA" fill-opacity="1.00" stroke="None">
<path d="
M 599.00 233.00 
C 599.23 233.16 599.00 234.50 599.00 235.00
C 605.90 238.07 616.37 233.64 624.00 235.00 C 631.63 236.36 641.10 234.43 649.00 235.00 C 656.90 235.57 666.13 234.84 674.00 235.00 C 681.87 235.16 689.84 236.38 696.00 232.00
C 694.95 232.49 693.14 232.84 692.00 233.00
C 677.47 237.10 659.38 233.23 645.08 230.93 C 630.77 228.63 614.14 234.37 599.00 233.00 Z"/>
</g>
<g fill="#78CEFC" fill-opacity="1.00" stroke="None">
<path d="
M 696.00 232.00 
C 689.84 236.38 681.87 235.16 674.00 235.00 C 666.13 234.84 656.90 235.57 649.00 235.00 C 641.10 234.43 631.63 236.36 624.00 235.00 C 616.37 233.64 605.90 238.07 599.00 235.00
C 599.00 247.67 599.00 260.33 599.00 273.00
C 599.00 273.00 599.50 273.00 600.00 273.00
C 602.30 261.86 600.36 249.59 601.00 238.00
C 616.29 236.63 633.95 239.83 649.00 238.00 C 664.05 236.17 681.35 242.04 695.00 237.00
C 694.05 236.78 692.26 237.39 692.00 236.00
C 694.75 234.84 697.49 232.75 699.00 230.00
C 698.51 230.65 696.74 231.47 696.00 232.00 Z"/>
</g>
<g fill="#5FCA36" fill-opacity="0.16" stroke="None">
<path d="
M 761.00 248.00 
C 761.00 247.96 762.00 248.00 762.00 248.00
C 762.00 242.00 762.00 236.00 762.00 230.00
C 762.00 230.00 761.00 229.96 761.00 230.00
C 761.00 236.00 761.00 242.00 761.00 248.00 Z"/>
</g>
<g fill="#62CD17" fill-opacity="0.50" stroke="None">
<path d="
M 599.00 274.00 
C 599.00 274.00 599.00 273.50 599.00 273.00
C 599.00 260.33 599.00 247.67 599.00 235.00
C 599.00 234.50 599.23 233.16 599.00 233.00
C 599.00 233.00 598.00 232.96 598.00 233.00
C 597.83 238.89 597.20 248.46 598.00 254.00 C 598.80 259.54 595.23 270.38 599.00 274.00 Z"/>
</g>
<g fill="#70639E" fill-opacity="0.62" stroke="None">
<path d="
M 576.00 270.00 
C 577.45 263.02 576.00 254.15 576.00 247.00
C 576.00 247.00 575.00 246.96 575.00 247.00
C 575.00 254.03 576.69 263.89 576.00 270.00 Z"/>
</g>
<g fill="#D392DB" fill-opacity="0.03" stroke="None">
<path d="
M 475.00 262.00 
C 475.39 258.01 476.00 252.74 476.00 248.00
C 476.00 248.00 475.00 247.96 475.00 248.00
C 475.00 252.67 475.00 257.33 475.00 262.00 Z"/>
</g>
<g fill="#20C75B" fill-opacity="0.29" stroke="None">
<path d="
M 762.00 275.00 
C 762.00 275.00 762.00 274.50 762.00 274.00
C 762.00 265.33 762.00 256.67 762.00 248.00
C 762.00 248.00 761.00 247.96 761.00 248.00
C 761.00 252.10 760.53 258.08 761.00 262.00 C 761.47 265.92 759.29 272.38 762.00 275.00 Z"/>
</g>
<g fill="#79D102" fill-opacity="0.63" stroke="None">
<path d="
M 434.00 267.00 
C 434.48 262.03 435.00 255.72 435.00 250.00
C 435.00 250.00 434.00 249.96 434.00 250.00
C 434.00 255.67 434.00 261.33 434.00 267.00 Z"/>
</g>
<g fill="#6A64A9" fill-opacity="0.58" stroke="None">
<path d="
M 803.00 270.00 
C 803.52 262.92 801.48 256.72 806.00 251.00
C 800.01 256.99 802.83 262.60 803.00 270.00 Z"/>
</g>
<g fill="#757AB6" fill-opacity="0.48" stroke="None">
<path d="
M 908.00 275.00 
C 908.00 275.50 908.00 276.00 908.00 276.00
C 910.60 273.50 908.98 264.82 908.00 262.00
C 908.81 265.96 907.99 270.94 908.00 275.00 Z"/>
</g>
<g fill="#5085DC" fill-opacity="1.00" stroke="None">
<path d="
M 601.00 273.00 
C 632.00 273.00 667.03 276.87 697.00 272.00
C 686.64 272.56 674.14 271.14 664.00 272.00 C 653.86 272.86 641.41 270.23 632.00 272.00 C 622.59 273.77 608.23 267.65 601.00 273.00 Z"/>
</g>
<g fill="#005436" fill-opacity="0.35" stroke="None">
<path d="
M 453.00 274.00 
C 452.96 274.00 453.00 273.00 453.00 273.00
C 447.00 273.00 441.00 273.00 435.00 273.00
C 435.00 273.00 434.02 273.10 434.00 273.00
C 436.79 275.91 448.75 274.00 453.00 274.00 Z"/>
</g>
<g fill="#075301" fill-opacity="0.47" stroke="None">
<path d="
M 453.00 274.00 
C 457.67 274.00 462.33 274.00 467.00 274.00
C 463.01 273.61 457.74 273.00 453.00 273.00
C 453.00 273.00 452.96 274.00 453.00 274.00 Z"/>
</g>
<g fill="#0059A9" fill-opacity="0.25" stroke="None">
<path d="
M 602.00 275.00 
C 606.59 275.39 611.39 275.00 616.00 275.00
C 615.96 275.00 616.00 274.00 616.00 274.00
C 611.35 274.00 605.94 274.80 602.00 275.00 Z"/>
</g>
<g fill="#005443" fill-opacity="0.35" stroke="None">
<path d="
M 616.00 275.00 
C 625.67 275.00 635.33 275.00 645.00 275.00
C 644.96 275.00 645.00 274.00 645.00 274.00
C 635.33 274.00 625.67 274.00 616.00 274.00
C 616.00 274.00 615.96 275.00 616.00 275.00 Z"/>
</g>
<g fill="#075301" fill-opacity="0.47" stroke="None">
<path d="
M 645.00 275.00 
C 649.67 275.00 654.33 275.00 659.00 275.00
C 658.96 275.00 659.00 274.00 659.00 274.00
C 654.33 274.00 649.67 274.00 645.00 274.00
C 645.00 274.00 644.96 275.00 645.00 275.00 Z"/>
</g>
<g fill="#1551E0" fill-opacity="0.58" stroke="None">
<path d="
M 659.00 275.00 
C 670.64 275.00 683.07 274.92 694.00 274.00
C 682.35 273.71 670.65 274.00 659.00 274.00
C 659.00 274.00 658.96 275.00 659.00 275.00 Z"/>
</g>
<g fill="#3759C4" fill-opacity="0.97" stroke="None">
<path d="
M 863.00 275.00 
C 875.29 274.99 888.50 274.89 900.00 276.00
C 902.63 276.00 905.38 276.24 908.00 276.00
C 908.00 276.00 908.00 275.50 908.00 275.00
C 907.30 274.78 905.37 274.08 905.00 274.00
C 899.04 272.69 888.90 273.93 883.00 274.00 C 877.10 274.07 867.32 271.80 863.00 275.00 Z"/>
</g>
<g fill="#C56498" fill-opacity="0.09" stroke="None">
<path d="
M 793.00 276.00 
C 792.96 276.00 793.00 275.00 793.00 275.00
C 786.00 275.00 779.00 275.00 772.00 275.00
C 778.28 275.61 785.97 276.00 793.00 276.00 Z"/>
</g>
<g fill="#0059A6" fill-opacity="0.25" stroke="None">
<path d="
M 793.00 276.00 
C 795.58 276.00 800.26 276.87 802.00 275.00
C 800.69 275.98 794.73 275.00 793.00 275.00
C 793.00 275.00 792.96 276.00 793.00 276.00 Z"/>
</g>
<g fill="#1E52D5" fill-opacity="0.63" stroke="None">
<path d="
M 900.00 276.00 
C 888.50 274.89 875.29 274.99 863.00 275.00
C 863.00 275.00 862.42 275.18 862.00 275.00
C 865.45 278.58 875.81 275.15 881.00 276.00 C 886.19 276.85 894.53 276.00 900.00 276.00 Z"/>
</g>
</svg>