<svg xmlns="http://www.w3.org/2000/svg" xmlns:v="https://svgstorm.com"
viewBox = "0 0 476 230"
width="476"
height="230">
<g fill="None" fill-opacity="0.0" stroke="#000000" stroke-opacity="0.00" stroke-width="0.3"><path d="
M 0.00 71.00 
C 0.34 70.84 0.95 70.35 1.00 70.00
C 1.00 67.33 1.00 64.67 1.00 62.00
C 1.48 58.60 8.97 59.61 11.00 61.00
C 11.30 61.22 11.73 61.79 12.00 62.00
C 15.90 65.85 20.59 70.18 23.00 75.00
C 25.31 75.45 26.07 72.47 28.00 72.00
C 36.77 65.69 46.48 61.18 57.00 59.00
C 63.97 57.29 71.65 58.23 79.00 58.00
C 87.65 59.13 96.98 60.84 104.00 66.00
C 119.90 72.47 132.60 88.13 138.00 104.00
C 146.90 133.96 139.73 168.55 142.00 201.00
C 142.00 206.67 142.00 212.33 142.00 218.00
C 142.00 221.33 142.00 224.67 142.00 228.00
C 128.67 228.00 115.33 228.00 102.00 228.00
C 101.65 227.95 101.07 227.35 101.00 227.00
C 101.00 224.67 101.00 222.33 101.00 220.00
C 100.35 190.75 102.31 160.83 100.00 132.00
C 98.51 125.90 94.30 119.87 89.00 116.00
C 73.21 102.87 45.70 111.90 42.00 133.00
C 42.00 144.67 42.00 156.33 42.00 168.00
C 42.00 173.33 42.00 178.67 42.00 184.00
C 42.00 190.00 42.00 196.00 42.00 202.00
C 41.36 206.50 43.30 212.33 41.00 216.00
C 40.37 219.83 42.28 224.99 40.00 228.00
C 37.67 228.00 35.33 228.00 33.00 228.00
C 28.33 228.00 23.67 228.00 19.00 228.00
C 12.67 228.00 6.33 228.00 0.00 228.00
L 0.00 230.00
L 338.00 230.00
C 338.00 229.50 338.00 229.00 338.00 229.00
C 335.00 229.00 332.00 229.00 329.00 229.00
C 328.50 229.00 328.00 229.00 328.00 229.00
C 325.69 220.91 327.65 210.84 327.00 202.00
C 327.00 196.00 327.00 190.00 327.00 184.00
C 327.00 178.33 327.00 172.67 327.00 167.00
C 327.59 164.16 325.78 160.02 328.00 158.00
C 328.00 149.67 328.00 141.33 328.00 133.00
C 328.00 104.33 328.00 75.67 328.00 47.00
C 328.00 34.67 328.00 22.33 328.00 10.00
C 328.00 7.67 328.00 5.33 328.00 3.00
C 328.57 2.06 329.15 1.18 329.00 0.00
L 0.00 0.00
L 0.00 71.00
M 297.00 63.00 
C 297.25 63.26 297.00 64.00 297.00 64.00
C 297.00 67.67 297.00 71.33 297.00 75.00
C 296.33 87.83 298.33 101.99 296.00 114.00
C 278.00 114.00 260.00 114.00 242.00 114.00
C 232.33 114.00 222.67 114.00 213.00 114.00
C 211.44 113.59 210.31 114.46 209.00 115.00
C 206.43 117.85 210.77 120.12 213.00 121.00
C 219.00 121.00 225.00 121.00 231.00 121.00
C 241.17 121.67 252.66 119.67 262.00 122.00
C 301.70 121.68 317.98 169.68 302.00 201.00
C 287.64 230.61 254.38 230.72 225.00 229.00
C 220.33 229.00 215.67 229.00 211.00 229.00
C 204.00 229.00 197.00 229.00 190.00 229.00
C 187.33 229.00 184.67 229.00 182.00 229.00
C 177.50 228.36 171.67 230.30 168.00 228.00
C 167.00 228.00 166.00 228.00 165.00 228.00
C 162.68 215.24 164.66 200.51 164.00 187.00
C 164.47 185.12 162.94 182.07 165.00 181.00
C 165.00 179.67 165.00 178.33 165.00 177.00
C 180.00 177.00 195.00 177.00 210.00 177.00
C 226.33 177.00 242.67 177.00 259.00 177.00
C 260.33 176.01 262.57 175.95 263.00 174.00
C 237.28 169.41 205.04 180.49 184.00 162.00
C 182.75 161.70 182.29 160.17 181.00 160.00
C 179.43 159.04 177.75 157.68 177.00 156.00
C 171.07 149.48 166.97 141.64 166.00 133.00
C 164.25 132.17 165.34 129.56 165.00 128.00
C 164.09 124.92 163.10 121.01 165.00 118.00
C 165.00 115.33 165.00 112.67 165.00 110.00
C 165.52 107.81 163.86 104.38 166.00 103.00
C 165.76 99.09 167.05 94.95 169.00 92.00
C 168.94 90.11 170.42 88.71 171.00 87.00
C 171.30 85.75 172.83 85.29 173.00 84.00
C 176.24 78.98 180.58 73.70 186.00 71.00
C 186.03 69.90 187.34 70.19 188.00 70.00
C 188.44 68.71 189.58 67.79 191.00 68.00
C 195.94 64.04 202.79 63.08 209.00 62.00
C 210.00 62.00 211.00 62.00 212.00 62.00
C 217.33 62.00 222.67 62.00 228.00 62.00
C 242.33 62.00 256.67 62.00 271.00 62.00
C 279.50 62.66 289.33 60.67 297.00 63.00 Z"/>
</g>
<g fill="None" fill-opacity="0.0" stroke="#74C705" stroke-opacity="0.86" stroke-width="0.3"><path d="
M 328.00 3.00 
C 328.01 2.93 329.00 3.00 329.00 3.00
C 337.23 -0.29 351.69 4.20 361.00 1.00
C 351.50 0.34 340.68 2.33 332.00 0.00
L 329.00 0.00
C 329.15 1.18 328.57 2.06 328.00 3.00 Z"/>
</g>
<g fill="None" fill-opacity="0.0" stroke="#000000" stroke-opacity="0.00" stroke-width="0.3"><path d="
M 361.00 1.00 
C 364.00 1.00 367.00 1.00 370.00 1.00
C 370.00 3.33 370.00 5.67 370.00 8.00
C 370.00 19.00 370.00 30.00 370.00 41.00
C 370.00 52.67 370.00 64.33 370.00 76.00
C 370.00 81.33 370.00 86.67 370.00 92.00
C 370.00 98.00 370.00 104.00 370.00 110.00
C 369.35 115.50 371.32 122.33 369.00 127.00
C 369.59 129.84 367.78 133.98 370.00 136.00
C 388.19 111.96 408.05 88.82 427.00 65.00
C 434.15 60.46 445.30 64.24 454.00 63.00
C 461.33 63.00 468.67 63.00 476.00 63.00
L 476.00 0.00
L 332.00 0.00
C 340.68 2.33 351.50 0.34 361.00 1.00 Z"/>
</g>
<g fill="None" fill-opacity="0.0" stroke="#78CCFC" stroke-opacity="0.98" stroke-width="0.3"><path d="
M 329.00 3.00 
C 329.00 5.33 329.00 7.67 329.00 10.00
C 328.33 22.17 330.33 35.66 328.00 47.00
C 328.00 75.67 328.00 104.33 328.00 133.00
C 329.65 140.59 329.68 151.48 328.00 159.00
C 328.00 161.67 328.00 164.33 328.00 167.00
C 328.00 172.67 328.00 178.33 328.00 184.00
C 328.00 190.00 328.00 196.00 328.00 202.00
C 328.00 210.67 328.00 219.33 328.00 228.00
C 332.64 212.86 328.69 193.69 330.00 177.00 C 329.40 123.10 330.75 69.69 331.00 16.00
C 342.67 16.00 354.33 16.00 366.00 16.00
C 366.50 16.00 367.00 16.00 367.00 16.00
C 367.41 15.17 367.97 14.13 369.00 14.00
C 369.47 12.12 367.94 9.07 370.00 8.00
C 370.00 5.67 370.00 3.33 370.00 1.00
C 367.00 1.00 364.00 1.00 361.00 1.00
C 351.69 4.20 337.23 -0.29 329.00 3.00 Z"/>
</g>
<g fill="None" fill-opacity="0.0" stroke="#50C75F" stroke-opacity="0.24" stroke-width="0.3"><path d="
M 328.00 10.00 
C 328.01 10.07 329.00 10.00 329.00 10.00
C 329.00 7.67 329.00 5.33 329.00 3.00
C 329.00 3.00 328.01 2.93 328.00 3.00
C 328.00 5.33 328.00 7.67 328.00 10.00 Z"/>
</g>
<g fill="None" fill-opacity="0.0" stroke="#6871BC" stroke-opacity="0.38" stroke-width="0.3"><path d="
M 369.00 14.00 
C 369.00 23.00 369.00 32.00 369.00 41.00
C 369.00 40.96 370.00 41.00 370.00 41.00
C 370.00 30.00 370.00 19.00 370.00 8.00
C 367.94 9.07 369.47 12.12 369.00 14.00 Z"/>
</g>
<g fill="None" fill-opacity="0.0" stroke="#70D008" stroke-opacity="0.58" stroke-width="0.3"><path d="
M 328.00 47.00 
C 330.33 35.66 328.33 22.17 329.00 10.00
C 329.00 10.00 328.01 10.07 328.00 10.00
C 328.00 22.33 328.00 34.67 328.00 47.00 Z"/>
</g>
<g fill="None" fill-opacity="0.0" stroke="#496ECD" stroke-opacity="0.94" stroke-width="0.3"><path d="
M 367.00 16.00 
C 367.00 60.33 367.00 104.67 367.00 149.00
C 368.84 146.92 367.28 143.00 370.00 141.00
C 371.57 148.74 374.25 139.60 378.00 138.00
C 392.84 116.49 409.24 95.67 425.00 75.00
C 429.78 62.88 446.40 71.59 454.00 64.00
C 445.08 64.62 435.48 62.73 427.00 65.00
C 408.05 88.82 388.19 111.96 370.00 136.00
C 367.78 133.98 369.59 129.84 369.00 127.00
C 369.00 121.33 369.00 115.67 369.00 110.00
C 369.00 104.00 369.00 98.00 369.00 92.00
C 369.00 86.67 369.00 81.33 369.00 76.00
C 369.00 64.33 369.00 52.67 369.00 41.00
C 369.00 32.00 369.00 23.00 369.00 14.00
C 367.97 14.13 367.41 15.17 367.00 16.00 Z"/>
</g>
<g fill="None" fill-opacity="0.0" stroke="#62A6EF" stroke-opacity="1.00" stroke-width="0.3"><path d="
M 328.00 228.00 
C 328.00 228.50 328.00 229.00 328.00 229.00
C 328.00 229.00 328.50 229.00 329.00 229.00
C 339.47 224.39 353.98 228.29 366.00 227.00
C 361.30 209.45 374.22 198.64 383.30 186.30 C 387.26 182.72 392.78 169.61 397.00 174.00
C 406.45 192.66 417.14 211.37 428.00 229.00
C 428.25 228.75 429.00 229.00 429.00 229.00
C 442.09 226.68 457.15 228.66 471.00 228.00
C 453.68 198.80 435.59 169.50 421.00 139.00
C 436.30 118.24 453.90 98.45 470.00 78.00
C 456.33 78.00 442.67 78.00 429.00 78.00
C 421.23 89.07 411.75 98.95 404.00 110.00
C 394.98 121.53 386.17 133.54 376.00 144.00
C 374.17 147.32 370.45 153.91 366.00 151.00
C 369.83 146.67 375.76 143.91 378.00 138.00
C 374.25 139.60 371.57 148.74 370.00 141.00
C 367.28 143.00 368.84 146.92 367.00 149.00
C 364.67 105.57 366.67 60.18 366.00 16.00
C 354.33 16.00 342.67 16.00 331.00 16.00
C 330.75 69.69 329.40 123.10 330.00 177.00 C 328.69 193.69 332.64 212.86 328.00 228.00 Z"/>
</g>
<g fill="None" fill-opacity="0.0" stroke="#4E80DA" stroke-opacity="1.00" stroke-width="0.3"><path d="
M 367.00 149.00 
C 367.00 104.67 367.00 60.33 367.00 16.00
C 367.00 16.00 366.50 16.00 366.00 16.00
C 366.67 60.18 364.67 105.57 367.00 149.00 Z"/>
</g>
<g fill="None" fill-opacity="0.0" stroke="#7D70E8" stroke-opacity="0.26" stroke-width="0.3"><path d="
M 369.00 76.00 
C 369.00 75.96 370.00 76.00 370.00 76.00
C 370.00 64.33 370.00 52.67 370.00 41.00
C 370.00 41.00 369.00 40.96 369.00 41.00
C 369.00 52.67 369.00 64.33 369.00 76.00 Z"/>
</g>
<g fill="None" fill-opacity="0.0" stroke="#79CDF8" stroke-opacity="0.98" stroke-width="0.3"><path d="
M 57.00 59.00 
C 60.97 62.36 57.39 66.79 58.00 71.00
C 64.33 71.00 70.67 71.00 77.00 71.00
C 74.06 73.80 67.87 70.16 65.00 73.00
C 72.78 71.59 81.14 75.58 88.00 73.00
C 84.52 72.47 81.36 70.97 78.00 70.00
C 78.42 66.02 77.01 61.56 79.00 58.00
C 71.65 58.23 63.97 57.29 57.00 59.00 Z"/>
</g>
<g fill="None" fill-opacity="0.0" stroke="#62A6EF" stroke-opacity="1.00" stroke-width="0.3"><path d="
M 65.00 73.00 
C 56.72 73.63 48.67 75.48 41.31 79.31 C 34.29 80.91 28.60 90.83 22.00 89.00
C 18.21 84.13 13.98 79.68 10.00 75.00
C 8.03 76.59 5.34 75.80 3.00 76.00
C 2.33 125.91 4.33 176.53 2.00 226.00
C 2.50 225.95 3.00 226.00 3.00 226.00
C 13.76 223.68 26.49 225.66 38.00 225.00
C 38.67 195.17 36.67 164.01 39.00 135.00
C 40.24 112.54 74.79 97.41 89.00 116.00
C 94.30 119.87 98.51 125.90 100.00 132.00
C 106.78 144.90 101.16 163.05 103.00 178.00 C 102.33 193.83 104.33 210.99 102.00 226.00
C 101.78 226.30 101.04 226.78 101.00 227.00
C 101.07 227.35 101.65 227.95 102.00 228.00
C 112.47 223.39 126.98 227.29 139.00 226.00
C 134.44 182.60 151.18 131.68 123.23 95.77 C 117.48 84.50 99.32 81.50 104.00 66.00
C 96.98 60.84 87.65 59.13 79.00 58.00
C 77.01 61.56 78.42 66.02 78.00 70.00
C 81.36 70.97 84.52 72.47 88.00 73.00
C 81.14 75.58 72.78 71.59 65.00 73.00 Z"/>
</g>
<g fill="None" fill-opacity="0.0" stroke="#83E3F8" stroke-opacity="0.96" stroke-width="0.3"><path d="
M 28.00 72.00 
C 31.19 78.26 27.95 85.76 22.00 89.00
C 28.60 90.83 34.29 80.91 41.31 79.31 C 48.67 75.48 56.72 73.63 65.00 73.00
C 67.87 70.16 74.06 73.80 77.00 71.00
C 70.67 71.00 64.33 71.00 58.00 71.00
C 57.39 66.79 60.97 62.36 57.00 59.00
C 46.48 61.18 36.77 65.69 28.00 72.00 Z"/>
</g>
<g fill="None" fill-opacity="0.0" stroke="#72C723" stroke-opacity="0.25" stroke-width="0.3"><path d="
M 1.00 62.00 
C 3.90 60.10 7.70 61.38 11.00 61.00
C 8.97 59.61 1.48 58.60 1.00 62.00 Z"/>
</g>
<g fill="None" fill-opacity="0.0" stroke="#77CDFB" stroke-opacity="0.99" stroke-width="0.3"><path d="
M 1.00 62.00 
C 1.00 64.67 1.00 67.33 1.00 70.00
C 1.26 79.35 0.81 91.55 1.00 102.00
C 1.00 113.33 1.00 124.67 1.00 136.00
C 1.00 158.67 1.00 181.33 1.00 204.00
C 0.35 209.50 2.32 216.33 0.00 221.00
L 0.00 227.00
C 0.50 227.00 1.00 227.00 1.00 227.00
C 1.26 226.88 1.65 226.03 2.00 226.00
C 4.33 176.53 2.33 125.91 3.00 76.00
C 5.34 75.80 8.03 76.59 10.00 75.00
C 10.20 70.65 10.43 65.62 12.00 62.00
C 11.73 61.79 11.30 61.22 11.00 61.00
C 7.70 61.38 3.90 60.10 1.00 62.00 Z"/>
</g>
<g fill="None" fill-opacity="0.0" stroke="#5585DB" stroke-opacity="0.96" stroke-width="0.3"><path d="
M 10.00 75.00 
C 13.98 79.68 18.21 84.13 22.00 89.00
C 27.95 85.76 31.19 78.26 28.00 72.00
C 26.07 72.47 25.31 75.45 23.00 75.00
C 20.59 70.18 15.90 65.85 12.00 62.00
C 10.43 65.62 10.20 70.65 10.00 75.00 Z"/>
</g>
<g fill="None" fill-opacity="0.0" stroke="#81E0F9" stroke-opacity="0.97" stroke-width="0.3"><path d="
M 191.00 68.00 
C 192.90 69.14 188.65 69.02 188.00 70.00
C 187.34 70.19 186.03 69.90 186.00 71.00
C 181.31 74.65 177.18 79.87 173.00 84.00
C 172.83 85.29 171.30 85.75 171.00 87.00
C 172.85 88.07 170.66 91.45 169.00 92.00
C 167.05 94.95 165.76 99.09 166.00 103.00
C 166.46 104.23 166.53 108.69 165.00 110.00
C 165.00 112.67 165.00 115.33 165.00 118.00
C 165.15 120.37 166.12 125.61 165.00 128.00
C 165.34 129.56 164.25 132.17 166.00 133.00
C 164.88 108.94 178.09 83.28 203.08 78.08 C 232.88 75.60 263.77 77.69 294.00 77.00
C 293.30 72.52 281.10 76.19 276.00 75.00 C 254.01 74.60 231.60 75.95 210.00 74.00
C 209.58 70.02 210.99 65.56 209.00 62.00
C 202.79 63.08 195.94 64.04 191.00 68.00 Z"/>
</g>
<g fill="None" fill-opacity="0.0" stroke="#74C5FD" stroke-opacity="1.00" stroke-width="0.3"><path d="
M 294.00 77.00 
C 294.83 76.59 295.87 76.03 296.00 75.00
C 296.62 71.50 294.73 66.68 297.00 64.00
C 297.00 64.00 297.25 63.26 297.00 63.00
C 288.33 63.00 279.67 63.00 271.00 63.00
C 256.67 63.00 242.33 63.00 228.00 63.00
C 222.84 62.35 216.34 64.31 212.00 62.00
C 211.00 62.00 210.00 62.00 209.00 62.00
C 210.99 65.56 209.58 70.02 210.00 74.00
C 231.60 75.95 254.01 74.60 276.00 75.00 C 281.10 76.19 293.30 72.52 294.00 77.00 Z"/>
</g>
<g fill="None" fill-opacity="0.0" stroke="#80C9F5" stroke-opacity="0.85" stroke-width="0.3"><path d="
M 228.00 63.00 
C 227.96 63.00 228.00 62.00 228.00 62.00
C 222.67 62.00 217.33 62.00 212.00 62.00
C 216.34 64.31 222.84 62.35 228.00 63.00 Z"/>
</g>
<g fill="None" fill-opacity="0.0" stroke="#98C4DA" stroke-opacity="0.65" stroke-width="0.3"><path d="
M 228.00 63.00 
C 242.33 63.00 256.67 63.00 271.00 63.00
C 270.96 63.00 271.00 62.00 271.00 62.00
C 256.67 62.00 242.33 62.00 228.00 62.00
C 228.00 62.00 227.96 63.00 228.00 63.00 Z"/>
</g>
<g fill="None" fill-opacity="0.0" stroke="#88B6E2" stroke-opacity="0.46" stroke-width="0.3"><path d="
M 271.00 63.00 
C 279.67 63.00 288.33 63.00 297.00 63.00
C 289.33 60.67 279.50 62.66 271.00 62.00
C 271.00 62.00 270.96 63.00 271.00 63.00 Z"/>
</g>
<g fill="None" fill-opacity="0.0" stroke="#827EA7" stroke-opacity="0.61" stroke-width="0.3"><path d="
M 427.00 65.00 
C 435.48 62.73 445.08 64.62 454.00 64.00
C 453.96 64.00 454.00 63.00 454.00 63.00
C 445.30 64.24 434.15 60.46 427.00 65.00 Z"/>
</g>
<g fill="None" fill-opacity="0.0" stroke="#8EB8DD" stroke-opacity="0.51" stroke-width="0.3"><path d="
M 454.00 64.00 
C 461.00 64.00 468.00 64.00 475.00 64.00
C 475.50 64.00 476.00 64.00 476.00 64.00
L 476.00 63.00
C 468.67 63.00 461.33 63.00 454.00 63.00
C 454.00 63.00 453.96 64.00 454.00 64.00 Z"/>
</g>
<g fill="None" fill-opacity="0.0" stroke="#5A98EB" stroke-opacity="0.96" stroke-width="0.3"><path d="
M 296.00 75.00 
C 296.26 74.75 297.00 75.00 297.00 75.00
C 297.00 71.33 297.00 67.67 297.00 64.00
C 294.73 66.68 296.62 71.50 296.00 75.00 Z"/>
</g>
<g fill="None" fill-opacity="0.0" stroke="#75C6FC" stroke-opacity="1.00" stroke-width="0.3"><path d="
M 425.00 75.00 
C 426.25 74.70 426.71 73.17 428.00 73.00
C 426.73 75.78 430.99 75.68 429.00 78.00
C 442.67 78.00 456.33 78.00 470.00 78.00
C 471.34 77.27 472.64 76.66 474.00 76.00
C 475.39 75.74 474.78 73.95 475.00 73.00
C 474.21 71.08 475.53 66.85 475.00 64.00
C 468.00 64.00 461.00 64.00 454.00 64.00
C 446.40 71.59 429.78 62.88 425.00 75.00 Z"/>
</g>
<g fill="None" fill-opacity="0.0" stroke="#74BD44" stroke-opacity="0.25" stroke-width="0.3"><path d="
M 475.00 73.00 
C 475.11 72.65 475.67 72.17 476.00 72.00
L 476.00 64.00
C 476.00 64.00 475.50 64.00 475.00 64.00
C 475.53 66.85 474.21 71.08 475.00 73.00 Z"/>
</g>
<g fill="None" fill-opacity="0.0" stroke="#517FD8" stroke-opacity="0.96" stroke-width="0.3"><path d="
M 139.00 226.00 
C 141.33 198.57 139.33 169.18 140.00 141.00 C 142.58 128.34 134.79 114.43 138.00 104.00
C 132.60 88.13 119.90 72.47 104.00 66.00
C 99.32 81.50 117.48 84.50 123.23 95.77 C 151.18 131.68 134.44 182.60 139.00 226.00 Z"/>
</g>
<g fill="None" fill-opacity="0.0" stroke="#89EA39" stroke-opacity="0.43" stroke-width="0.3"><path d="
M 188.00 70.00 
C 188.65 69.02 192.90 69.14 191.00 68.00
C 189.58 67.79 188.44 68.71 188.00 70.00 Z"/>
</g>
<g fill="None" fill-opacity="0.0" stroke="#63CB5B" stroke-opacity="0.18" stroke-width="0.3"><path d="
M 0.00 71.00 
L 0.00 102.00
C 0.50 102.00 1.00 102.00 1.00 102.00
C 0.81 91.55 1.26 79.35 1.00 70.00
C 0.95 70.35 0.34 70.84 0.00 71.00 Z"/>
</g>
<g fill="None" fill-opacity="0.0" stroke="#73ED61" stroke-opacity="0.21" stroke-width="0.3"><path d="
M 173.00 84.00 
C 177.18 79.87 181.31 74.65 186.00 71.00
C 180.58 73.70 176.24 78.98 173.00 84.00 Z"/>
</g>
<g fill="None" fill-opacity="0.0" stroke="#000000" stroke-opacity="0.00" stroke-width="0.3"><path d="
M 475.00 73.00 
C 474.78 73.95 475.39 75.74 474.00 76.00
C 459.75 96.58 441.58 114.66 427.00 135.00
C 436.74 148.99 444.24 165.02 453.31 179.70 C 460.54 196.46 477.09 210.21 475.00 230.00
L 476.00 230.00
L 476.00 72.00
C 475.67 72.17 475.11 72.65 475.00 73.00 Z"/>
</g>
<g fill="None" fill-opacity="0.0" stroke="#83E4FB" stroke-opacity="1.00" stroke-width="0.3"><path d="
M 425.00 75.00 
C 409.24 95.67 392.84 116.49 378.00 138.00
C 375.76 143.91 369.83 146.67 366.00 151.00
C 370.45 153.91 374.17 147.32 376.00 144.00
C 385.13 132.53 393.96 120.54 404.00 110.00
C 411.75 98.95 421.23 89.07 429.00 78.00
C 430.99 75.68 426.73 75.78 428.00 73.00
C 426.71 73.17 426.25 74.70 425.00 75.00 Z"/>
</g>
<g fill="None" fill-opacity="0.0" stroke="#4A6FCE" stroke-opacity="0.92" stroke-width="0.3"><path d="
M 294.00 77.00 
C 294.00 88.67 294.00 100.33 294.00 112.00
C 294.83 112.41 295.87 112.97 296.00 114.00
C 298.33 101.99 296.33 87.83 297.00 75.00
C 297.00 75.00 296.26 74.75 296.00 75.00
C 295.87 76.03 294.83 76.59 294.00 77.00 Z"/>
</g>
<g fill="None" fill-opacity="0.0" stroke="#946A1D" stroke-opacity="0.21" stroke-width="0.3"><path d="
M 369.00 92.00 
C 369.00 91.96 370.00 92.00 370.00 92.00
C 370.00 86.67 370.00 81.33 370.00 76.00
C 370.00 76.00 369.00 75.96 369.00 76.00
C 369.00 81.33 369.00 86.67 369.00 92.00 Z"/>
</g>
<g fill="None" fill-opacity="0.0" stroke="#4764C5" stroke-opacity="0.85" stroke-width="0.3"><path d="
M 470.00 78.00 
C 453.90 98.45 436.30 118.24 421.00 139.00
C 423.75 139.27 424.68 135.71 427.00 135.00
C 441.58 114.66 459.75 96.58 474.00 76.00
C 472.64 76.66 471.34 77.27 470.00 78.00 Z"/>
</g>
<g fill="None" fill-opacity="0.0" stroke="#62A5EF" stroke-opacity="1.00" stroke-width="0.3"><path d="
M 166.00 133.00 
C 166.97 141.64 171.07 149.48 177.00 156.00
C 179.00 155.89 181.17 157.95 181.00 160.00
C 182.29 160.17 182.75 161.70 184.00 162.00
C 195.07 167.49 209.67 172.50 224.00 171.00 C 237.04 174.66 264.82 162.00 266.00 181.00
C 267.26 180.92 266.56 178.94 268.00 179.00
C 269.01 184.00 265.96 189.82 261.00 191.00
C 230.57 193.33 198.18 191.33 167.00 192.00
C 166.36 203.58 168.30 215.86 166.00 227.00
C 166.50 227.00 167.00 227.00 167.00 227.00
C 198.10 224.67 231.15 226.67 263.00 226.00
C 277.42 225.14 290.94 215.69 298.00 203.00
C 315.17 175.25 294.24 132.67 261.98 130.02 C 248.94 130.50 235.22 128.50 223.00 132.00 C 212.41 134.75 195.12 128.15 206.00 116.00
C 216.83 107.28 234.45 114.23 248.00 112.00 C 263.33 112.00 278.67 112.00 294.00 112.00
C 294.00 100.33 294.00 88.67 294.00 77.00
C 263.77 77.69 232.88 75.60 203.08 78.08 C 178.09 83.28 164.88 108.94 166.00 133.00
M 266.00 135.00 
C 249.74 136.66 230.19 136.67 214.00 135.00
C 230.37 133.25 249.29 133.45 266.00 135.00 Z"/>
</g>
<g fill="None" fill-opacity="0.0" stroke="#71E63A" stroke-opacity="0.55" stroke-width="0.3"><path d="
M 169.00 92.00 
C 170.66 91.45 172.85 88.07 171.00 87.00
C 170.42 88.71 168.94 90.11 169.00 92.00 Z"/>
</g>
<g fill="None" fill-opacity="0.0" stroke="#AC6F6E" stroke-opacity="0.10" stroke-width="0.3"><path d="
M 369.00 110.00 
C 369.00 109.96 370.00 110.00 370.00 110.00
C 370.00 104.00 370.00 98.00 370.00 92.00
C 370.00 92.00 369.00 91.96 369.00 92.00
C 369.00 98.00 369.00 104.00 369.00 110.00 Z"/>
</g>
<g fill="None" fill-opacity="0.0" stroke="#29CD58" stroke-opacity="0.30" stroke-width="0.3"><path d="
M 0.00 136.00 
C 0.50 136.00 1.00 136.00 1.00 136.00
C 1.00 124.67 1.00 113.33 1.00 102.00
C 1.00 102.00 0.50 102.00 0.00 102.00
L 0.00 136.00 Z"/>
</g>
<g fill="None" fill-opacity="0.0" stroke="#59C237" stroke-opacity="0.45" stroke-width="0.3"><path d="
M 165.00 110.00 
C 166.53 108.69 166.46 104.23 166.00 103.00
C 163.86 104.38 165.52 107.81 165.00 110.00 Z"/>
</g>
<g fill="None" fill-opacity="0.0" stroke="#4669CB" stroke-opacity="0.91" stroke-width="0.3"><path d="
M 139.00 226.00 
C 126.98 227.29 112.47 223.39 102.00 228.00
C 115.33 228.00 128.67 228.00 142.00 228.00
C 142.00 224.67 142.00 221.33 142.00 218.00
C 140.38 213.41 140.30 205.52 142.00 201.00
C 139.73 168.55 146.90 133.96 138.00 104.00
C 134.79 114.43 142.58 128.34 140.00 141.00 C 139.33 169.18 141.33 198.57 139.00 226.00 Z"/>
</g>
<g fill="None" fill-opacity="0.0" stroke="#4067CB" stroke-opacity="0.94" stroke-width="0.3"><path d="
M 39.00 135.00 
C 39.00 165.33 39.00 195.67 39.00 226.00
C 27.00 226.00 15.00 226.00 3.00 226.00
C 3.00 226.00 2.50 225.95 2.00 226.00
C 1.65 226.03 1.26 226.88 1.00 227.00
C 7.00 227.00 13.00 227.00 19.00 227.00
C 23.67 227.00 28.33 227.00 33.00 227.00
C 35.19 227.53 38.62 225.86 40.00 228.00
C 42.28 224.99 40.37 219.83 41.00 216.00
C 41.00 211.33 41.00 206.67 41.00 202.00
C 41.00 196.00 41.00 190.00 41.00 184.00
C 41.00 178.67 41.00 173.33 41.00 168.00
C 41.67 156.50 39.67 143.68 42.00 133.00
C 45.70 111.90 73.21 102.87 89.00 116.00
C 74.79 97.41 40.24 112.54 39.00 135.00 Z"/>
</g>
<g fill="None" fill-opacity="0.0" stroke="#B692DB" stroke-opacity="0.03" stroke-width="0.3"><path d="
M 369.00 127.00 
C 371.32 122.33 369.35 115.50 370.00 110.00
C 370.00 110.00 369.00 109.96 369.00 110.00
C 369.00 115.67 369.00 121.33 369.00 127.00 Z"/>
</g>
<g fill="None" fill-opacity="0.0" stroke="#72C4FA" stroke-opacity="1.00" stroke-width="0.3"><path d="
M 376.00 144.00 
C 386.17 133.54 394.98 121.53 404.00 110.00
C 393.96 120.54 385.13 132.53 376.00 144.00 Z"/>
</g>
<g fill="None" fill-opacity="0.0" stroke="#2F55CA" stroke-opacity="0.86" stroke-width="0.3"><path d="
M 206.00 116.00 
C 206.16 119.87 207.26 115.03 209.00 115.00
C 210.31 114.46 211.44 113.59 213.00 114.00
C 221.59 112.35 233.48 112.32 242.00 114.00
C 260.00 114.00 278.00 114.00 296.00 114.00
C 295.87 112.97 294.83 112.41 294.00 112.00
C 278.67 112.00 263.33 112.00 248.00 112.00 C 234.45 114.23 216.83 107.28 206.00 116.00 Z"/>
</g>
<g fill="None" fill-opacity="0.0" stroke="#025221" stroke-opacity="0.42" stroke-width="0.3"><path d="
M 213.00 114.00 
C 222.67 114.00 232.33 114.00 242.00 114.00
C 233.48 112.32 221.59 112.35 213.00 114.00 Z"/>
</g>
<g fill="None" fill-opacity="0.0" stroke="#476BCE" stroke-opacity="0.96" stroke-width="0.3"><path d="
M 206.00 116.00 
C 195.12 128.15 212.41 134.75 223.00 132.00 C 235.22 128.50 248.94 130.50 261.98 130.02 C 294.24 132.67 315.17 175.25 298.00 203.00
C 299.46 202.45 300.18 200.60 302.00 201.00
C 317.98 169.68 301.70 121.68 262.00 122.00
C 251.67 122.00 241.33 122.00 231.00 122.00
C 225.17 121.34 218.01 123.32 213.00 121.00
C 210.77 120.12 206.43 117.85 209.00 115.00
C 207.26 115.03 206.16 119.87 206.00 116.00 Z"/>
</g>
<g fill="None" fill-opacity="0.0" stroke="#6FCE49" stroke-opacity="0.46" stroke-width="0.3"><path d="
M 165.00 128.00 
C 166.12 125.61 165.15 120.37 165.00 118.00
C 163.10 121.01 164.09 124.92 165.00 128.00 Z"/>
</g>
<g fill="None" fill-opacity="0.0" stroke="#756CA3" stroke-opacity="0.62" stroke-width="0.3"><path d="
M 231.00 122.00 
C 230.96 122.00 231.00 121.00 231.00 121.00
C 225.00 121.00 219.00 121.00 213.00 121.00
C 218.01 123.32 225.17 121.34 231.00 122.00 Z"/>
</g>
<g fill="None" fill-opacity="0.0" stroke="#6D65AB" stroke-opacity="0.44" stroke-width="0.3"><path d="
M 231.00 122.00 
C 241.33 122.00 251.67 122.00 262.00 122.00
C 252.66 119.67 241.17 121.67 231.00 121.00
C 231.00 121.00 230.96 122.00 231.00 122.00 Z"/>
</g>
<g fill="None" fill-opacity="0.0" stroke="#7CD4F6" stroke-opacity="0.90" stroke-width="0.3"><path d="
M 101.00 220.00 
C 102.87 221.14 101.61 224.13 102.00 226.00
C 104.33 210.99 102.33 193.83 103.00 178.00 C 101.16 163.05 106.78 144.90 100.00 132.00
C 102.31 160.83 100.35 190.75 101.00 220.00 Z"/>
</g>
<g fill="None" fill-opacity="0.0" stroke="#7A5AE3" stroke-opacity="0.27" stroke-width="0.3"><path d="
M 41.00 168.00 
C 41.00 167.96 42.00 168.00 42.00 168.00
C 42.00 156.33 42.00 144.67 42.00 133.00
C 39.67 143.68 41.67 156.50 41.00 168.00 Z"/>
</g>
<g fill="None" fill-opacity="0.0" stroke="#7AD501" stroke-opacity="0.96" stroke-width="0.3"><path d="
M 328.00 158.00 
C 328.00 158.50 328.00 159.00 328.00 159.00
C 329.68 151.48 329.65 140.59 328.00 133.00
C 328.00 141.33 328.00 149.67 328.00 158.00 Z"/>
</g>
<g fill="None" fill-opacity="0.0" stroke="#7BD2FC" stroke-opacity="1.00" stroke-width="0.3"><path d="
M 266.00 135.00 
C 249.29 133.45 230.37 133.25 214.00 135.00
C 230.19 136.67 249.74 136.66 266.00 135.00 Z"/>
</g>
<g fill="None" fill-opacity="0.0" stroke="#4E81DA" stroke-opacity="1.00" stroke-width="0.3"><path d="
M 3.00 226.00 
C 15.00 226.00 27.00 226.00 39.00 226.00
C 39.00 195.67 39.00 165.33 39.00 135.00
C 36.67 164.01 38.67 195.17 38.00 225.00
C 26.49 225.66 13.76 223.68 3.00 226.00 Z"/>
</g>
<g fill="None" fill-opacity="0.0" stroke="#527CD6" stroke-opacity="0.95" stroke-width="0.3"><path d="
M 421.00 139.00 
C 435.59 169.50 453.68 198.80 471.00 228.00
C 471.24 229.67 473.85 228.17 474.00 230.00
L 475.00 230.00
C 477.09 210.21 460.54 196.46 453.31 179.70 C 444.24 165.02 436.74 148.99 427.00 135.00
C 424.68 135.71 423.75 139.27 421.00 139.00 Z"/>
</g>
<g fill="None" fill-opacity="0.0" stroke="#62D019" stroke-opacity="0.49" stroke-width="0.3"><path d="
M 0.00 204.00 
C 0.50 204.00 1.00 204.00 1.00 204.00
C 1.00 181.33 1.00 158.67 1.00 136.00
C 1.00 136.00 0.50 136.00 0.00 136.00
L 0.00 204.00 Z"/>
</g>
<g fill="None" fill-opacity="0.0" stroke="#2C7CAD" stroke-opacity="0.43" stroke-width="0.3"><path d="
M 181.00 160.00 
C 181.17 157.95 179.00 155.89 177.00 156.00
C 177.75 157.68 179.43 159.04 181.00 160.00 Z"/>
</g>
<g fill="None" fill-opacity="0.0" stroke="#7FDF20" stroke-opacity="0.03" stroke-width="0.3"><path d="
M 327.00 167.00 
C 327.00 166.96 328.00 167.00 328.00 167.00
C 328.00 164.33 328.00 161.67 328.00 159.00
C 328.00 159.00 328.00 158.50 328.00 158.00
C 325.78 160.02 327.59 164.16 327.00 167.00 Z"/>
</g>
<g fill="None" fill-opacity="0.0" stroke="#4067CE" stroke-opacity="0.96" stroke-width="0.3"><path d="
M 184.00 162.00 
C 205.04 180.49 237.28 169.41 263.00 174.00
C 262.57 175.95 260.33 176.01 259.00 177.00
C 243.74 178.66 225.19 178.67 210.00 177.00
C 195.00 177.00 180.00 177.00 165.00 177.00
C 165.00 178.33 165.00 179.67 165.00 181.00
C 165.00 183.00 165.00 185.00 165.00 187.00
C 165.34 186.77 166.00 187.00 166.00 187.00
C 177.03 183.47 190.39 185.62 202.00 183.00
C 222.73 176.64 247.27 195.36 266.00 181.00
C 264.82 162.00 237.04 174.66 224.00 171.00 C 209.67 172.50 195.07 167.49 184.00 162.00 Z"/>
</g>
<g fill="None" fill-opacity="0.0" stroke="#63C78B" stroke-opacity="0.11" stroke-width="0.3"><path d="
M 327.00 184.00 
C 327.00 183.96 328.00 184.00 328.00 184.00
C 328.00 178.33 328.00 172.67 328.00 167.00
C 328.00 167.00 327.00 166.96 327.00 167.00
C 327.00 172.67 327.00 178.33 327.00 184.00 Z"/>
</g>
<g fill="None" fill-opacity="0.0" stroke="#905B1A" stroke-opacity="0.21" stroke-width="0.3"><path d="
M 41.00 184.00 
C 41.00 183.96 42.00 184.00 42.00 184.00
C 42.00 178.67 42.00 173.33 42.00 168.00
C 42.00 168.00 41.00 167.96 41.00 168.00
C 41.00 173.33 41.00 178.67 41.00 184.00 Z"/>
</g>
<g fill="None" fill-opacity="0.0" stroke="#4767C9" stroke-opacity="0.90" stroke-width="0.3"><path d="
M 329.00 229.00 
C 332.00 229.00 335.00 229.00 338.00 229.00
C 345.00 229.00 352.00 229.00 359.00 229.00
C 362.00 229.00 365.00 229.00 368.00 229.00
C 369.97 225.78 368.58 221.62 369.00 218.00
C 367.57 215.69 366.73 209.56 370.00 208.00
C 378.94 196.62 387.24 184.51 397.00 174.00
C 392.78 169.61 387.26 182.72 383.30 186.30 C 374.22 198.64 361.30 209.45 366.00 227.00
C 353.98 228.29 339.47 224.39 329.00 229.00 Z"/>
</g>
<g fill="None" fill-opacity="0.0" stroke="#000000" stroke-opacity="0.00" stroke-width="0.3"><path d="
M 370.00 208.00 
C 368.10 210.90 369.38 214.70 369.00 218.00
C 368.58 221.62 369.97 225.78 368.00 229.00
C 367.78 229.38 368.00 230.00 368.00 230.00
L 428.00 230.00
C 428.00 229.50 428.00 229.00 428.00 229.00
C 417.14 211.37 406.45 192.66 397.00 174.00
C 387.24 184.51 378.94 196.62 370.00 208.00 Z"/>
</g>
<g fill="None" fill-opacity="0.0" stroke="#74659E" stroke-opacity="0.64" stroke-width="0.3"><path d="
M 259.00 177.00 
C 242.67 177.00 226.33 177.00 210.00 177.00
C 225.19 178.67 243.74 178.66 259.00 177.00 Z"/>
</g>
<g fill="None" fill-opacity="0.0" stroke="#84E5FC" stroke-opacity="1.00" stroke-width="0.3"><path d="
M 266.00 181.00 
C 266.53 182.28 265.03 182.86 265.00 184.00
C 263.32 186.66 260.88 188.91 258.00 190.00
C 258.26 191.39 260.05 190.78 261.00 191.00
C 265.96 189.82 269.01 184.00 268.00 179.00
C 266.56 178.94 267.26 180.92 266.00 181.00 Z"/>
</g>
<g fill="None" fill-opacity="0.0" stroke="#82734C" stroke-opacity="0.19" stroke-width="0.3"><path d="
M 164.00 187.00 
C 164.00 186.96 165.00 187.00 165.00 187.00
C 165.00 185.00 165.00 183.00 165.00 181.00
C 162.94 182.07 164.47 185.12 164.00 187.00 Z"/>
</g>
<g fill="None" fill-opacity="0.0" stroke="#5183DD" stroke-opacity="1.00" stroke-width="0.3"><path d="
M 202.00 183.00 
C 221.19 182.47 238.10 189.76 258.00 187.00
C 259.54 187.37 260.40 185.57 262.00 186.00
C 263.25 185.70 263.71 184.17 265.00 184.00
C 265.03 182.86 266.53 182.28 266.00 181.00
C 247.27 195.36 222.73 176.64 202.00 183.00 Z"/>
</g>
<g fill="None" fill-opacity="0.0" stroke="#609FEC" stroke-opacity="1.00" stroke-width="0.3"><path d="
M 166.00 187.00 
C 181.34 187.74 197.16 183.47 211.69 185.31 C 225.75 189.88 243.62 188.25 258.00 187.00
C 238.10 189.76 221.19 182.47 202.00 183.00
C 190.39 185.62 177.03 183.47 166.00 187.00 Z"/>
</g>
<g fill="None" fill-opacity="0.0" stroke="#AD5D5C" stroke-opacity="0.10" stroke-width="0.3"><path d="
M 41.00 202.00 
C 41.00 201.96 42.00 202.00 42.00 202.00
C 42.00 196.00 42.00 190.00 42.00 184.00
C 42.00 184.00 41.00 183.96 41.00 184.00
C 41.00 190.00 41.00 196.00 41.00 202.00 Z"/>
</g>
<g fill="None" fill-opacity="0.0" stroke="#6FBAFA" stroke-opacity="1.00" stroke-width="0.3"><path d="
M 166.00 187.00 
C 166.00 187.00 165.34 186.77 165.00 187.00
C 165.23 187.16 165.00 188.50 165.00 189.00
C 181.67 189.00 198.33 189.00 215.00 189.00 C 230.36 187.27 248.46 192.63 262.00 186.00
C 260.40 185.57 259.54 187.37 258.00 187.00
C 243.62 188.25 225.75 189.88 211.69 185.31 C 197.16 183.47 181.34 187.74 166.00 187.00 Z"/>
</g>
<g fill="None" fill-opacity="0.0" stroke="#78CEFC" stroke-opacity="1.00" stroke-width="0.3"><path d="
M 262.00 186.00 
C 248.46 192.63 230.36 187.27 215.00 189.00 C 198.33 189.00 181.67 189.00 165.00 189.00
C 165.00 201.67 165.00 214.33 165.00 227.00
C 165.25 226.75 166.00 227.00 166.00 227.00
C 168.30 215.86 166.36 203.58 167.00 192.00
C 198.18 191.33 230.57 193.33 261.00 191.00
C 260.05 190.78 258.26 191.39 258.00 190.00
C 260.88 188.91 263.32 186.66 265.00 184.00
C 263.71 184.17 263.25 185.70 262.00 186.00 Z"/>
</g>
<g fill="None" fill-opacity="0.0" stroke="#5FCA36" stroke-opacity="0.16" stroke-width="0.3"><path d="
M 327.00 202.00 
C 327.00 201.96 328.00 202.00 328.00 202.00
C 328.00 196.00 328.00 190.00 328.00 184.00
C 328.00 184.00 327.00 183.96 327.00 184.00
C 327.00 190.00 327.00 196.00 327.00 202.00 Z"/>
</g>
<g fill="None" fill-opacity="0.0" stroke="#62CD17" stroke-opacity="0.50" stroke-width="0.3"><path d="
M 165.00 228.00 
C 164.75 227.73 165.00 227.00 165.00 227.00
C 165.00 214.33 165.00 201.67 165.00 189.00
C 165.00 188.50 165.23 187.16 165.00 187.00
C 165.00 187.00 164.00 186.96 164.00 187.00
C 164.66 200.51 162.68 215.24 165.00 228.00 Z"/>
</g>
<g fill="None" fill-opacity="0.0" stroke="#72639A" stroke-opacity="0.68" stroke-width="0.3"><path d="
M 142.00 218.00 
C 142.00 212.33 142.00 206.67 142.00 201.00
C 140.30 205.52 140.38 213.41 142.00 218.00 Z"/>
</g>
<g fill="None" fill-opacity="0.0" stroke="#3659C8" stroke-opacity="0.87" stroke-width="0.3"><path d="
M 298.00 203.00 
C 290.94 215.69 277.42 225.14 263.00 226.00
C 231.90 228.33 198.85 226.33 167.00 227.00
C 167.00 227.00 166.50 227.00 166.00 227.00
C 166.00 227.00 165.25 226.75 165.00 227.00
C 165.00 227.00 164.75 227.73 165.00 228.00
C 166.00 228.00 167.00 228.00 168.00 228.00
C 172.67 228.00 177.33 228.00 182.00 228.00
C 184.67 228.00 187.33 228.00 190.00 228.00
C 197.00 228.00 204.00 228.00 211.00 228.00
C 215.50 228.64 221.33 226.70 225.00 229.00
C 254.38 230.72 287.64 230.61 302.00 201.00
C 300.18 200.60 299.46 202.45 298.00 203.00 Z"/>
</g>
<g fill="None" fill-opacity="0.0" stroke="#D392DB" stroke-opacity="0.03" stroke-width="0.3"><path d="
M 41.00 216.00 
C 43.30 212.33 41.36 206.50 42.00 202.00
C 42.00 202.00 41.00 201.96 41.00 202.00
C 41.00 206.67 41.00 211.33 41.00 216.00 Z"/>
</g>
<g fill="None" fill-opacity="0.0" stroke="#20C75B" stroke-opacity="0.29" stroke-width="0.3"><path d="
M 328.00 229.00 
C 328.00 229.00 328.00 228.50 328.00 228.00
C 328.00 219.33 328.00 210.67 328.00 202.00
C 328.00 202.00 327.00 201.96 327.00 202.00
C 327.65 210.84 325.69 220.91 328.00 229.00 Z"/>
</g>
<g fill="None" fill-opacity="0.0" stroke="#79D102" stroke-opacity="0.63" stroke-width="0.3"><path d="
M 0.00 221.00 
C 2.32 216.33 0.35 209.50 1.00 204.00
C 1.00 204.00 0.50 204.00 0.00 204.00
L 0.00 221.00 Z"/>
</g>
<g fill="None" fill-opacity="0.0" stroke="#776993" stroke-opacity="0.60" stroke-width="0.3"><path d="
M 369.00 218.00 
C 369.38 214.70 368.10 210.90 370.00 208.00
C 366.73 209.56 367.57 215.69 369.00 218.00 Z"/>
</g>
<g fill="None" fill-opacity="0.0" stroke="#79D401" stroke-opacity="0.96" stroke-width="0.3"><path d="
M 101.00 227.00 
C 101.04 226.78 101.78 226.30 102.00 226.00
C 101.61 224.13 102.87 221.14 101.00 220.00
C 101.00 222.33 101.00 224.67 101.00 227.00 Z"/>
</g>
<g fill="None" fill-opacity="0.0" stroke="#5085DC" stroke-opacity="1.00" stroke-width="0.3"><path d="
M 167.00 227.00 
C 198.85 226.33 231.90 228.33 263.00 226.00
C 231.15 226.67 198.10 224.67 167.00 227.00 Z"/>
</g>
<g fill="None" fill-opacity="0.0" stroke="#005436" stroke-opacity="0.35" stroke-width="0.3"><path d="
M 0.00 228.00 
C 6.33 228.00 12.67 228.00 19.00 228.00
C 18.96 228.00 19.00 227.00 19.00 227.00
C 13.00 227.00 7.00 227.00 1.00 227.00
C 1.00 227.00 0.50 227.00 0.00 227.00
L 0.00 228.00 Z"/>
</g>
<g fill="None" fill-opacity="0.0" stroke="#075301" stroke-opacity="0.47" stroke-width="0.3"><path d="
M 19.00 228.00 
C 23.67 228.00 28.33 228.00 33.00 228.00
C 32.93 227.99 33.00 227.00 33.00 227.00
C 28.33 227.00 23.67 227.00 19.00 227.00
C 19.00 227.00 18.96 228.00 19.00 228.00 Z"/>
</g>
<g fill="None" fill-opacity="0.0" stroke="#0C51EA" stroke-opacity="0.53" stroke-width="0.3"><path d="
M 33.00 228.00 
C 35.33 228.00 37.67 228.00 40.00 228.00
C 38.62 225.86 35.19 227.53 33.00 227.00
C 33.00 227.00 32.93 227.99 33.00 228.00 Z"/>
</g>
<g fill="None" fill-opacity="0.0" stroke="#0059A9" stroke-opacity="0.25" stroke-width="0.3"><path d="
M 182.00 229.00 
C 181.96 229.00 182.00 228.00 182.00 228.00
C 177.33 228.00 172.67 228.00 168.00 228.00
C 171.67 230.30 177.50 228.36 182.00 229.00 Z"/>
</g>
<g fill="None" fill-opacity="0.0" stroke="#005A61" stroke-opacity="0.31" stroke-width="0.3"><path d="
M 182.00 229.00 
C 184.67 229.00 187.33 229.00 190.00 229.00
C 189.96 229.00 190.00 228.00 190.00 228.00
C 187.33 228.00 184.67 228.00 182.00 228.00
C 182.00 228.00 181.96 229.00 182.00 229.00 Z"/>
</g>
<g fill="None" fill-opacity="0.0" stroke="#005237" stroke-opacity="0.36" stroke-width="0.3"><path d="
M 190.00 229.00 
C 197.00 229.00 204.00 229.00 211.00 229.00
C 210.96 229.00 211.00 228.00 211.00 228.00
C 204.00 228.00 197.00 228.00 190.00 228.00
C 190.00 228.00 189.96 229.00 190.00 229.00 Z"/>
</g>
<g fill="None" fill-opacity="0.0" stroke="#075301" stroke-opacity="0.47" stroke-width="0.3"><path d="
M 211.00 229.00 
C 215.67 229.00 220.33 229.00 225.00 229.00
C 221.33 226.70 215.50 228.64 211.00 228.00
C 211.00 228.00 210.96 229.00 211.00 229.00 Z"/>
</g>
<g fill="None" fill-opacity="0.0" stroke="#3759C4" stroke-opacity="0.97" stroke-width="0.3"><path d="
M 429.00 229.00 
C 441.17 229.67 454.66 227.67 466.00 230.00
L 474.00 230.00
C 473.85 228.17 471.24 229.67 471.00 228.00
C 457.15 228.66 442.09 226.68 429.00 229.00 Z"/>
</g>
<g fill="None" fill-opacity="0.0" stroke="#C56498" stroke-opacity="0.09" stroke-width="0.3"><path d="
M 338.00 230.00 
L 359.00 230.00
C 359.00 229.50 359.00 229.00 359.00 229.00
C 352.00 229.00 345.00 229.00 338.00 229.00
C 338.00 229.00 338.00 229.50 338.00 230.00 Z"/>
</g>
<g fill="None" fill-opacity="0.0" stroke="#0059A6" stroke-opacity="0.25" stroke-width="0.3"><path d="
M 359.00 230.00 
L 368.00 230.00
C 368.00 230.00 367.78 229.38 368.00 229.00
C 365.00 229.00 362.00 229.00 359.00 229.00
C 359.00 229.00 359.00 229.50 359.00 230.00 Z"/>
</g>
<g fill="None" fill-opacity="0.0" stroke="#1E52D5" stroke-opacity="0.63" stroke-width="0.3"><path d="
M 428.00 230.00 
L 466.00 230.00
C 454.66 227.67 441.17 229.67 429.00 229.00
C 429.00 229.00 428.25 228.75 428.00 229.00
C 428.00 229.00 428.00 229.50 428.00 230.00 Z"/>
</g>
<g fill="#000000" fill-opacity="0.00" stroke="None">
<path d="
M 0.00 71.00 
C 0.34 70.84 0.95 70.35 1.00 70.00
C 1.00 67.33 1.00 64.67 1.00 62.00
C 1.48 58.60 8.97 59.61 11.00 61.00
C 11.30 61.22 11.73 61.79 12.00 62.00
C 15.90 65.85 20.59 70.18 23.00 75.00
C 25.31 75.45 26.07 72.47 28.00 72.00
C 36.77 65.69 46.48 61.18 57.00 59.00
C 63.97 57.29 71.65 58.23 79.00 58.00
C 87.65 59.13 96.98 60.84 104.00 66.00
C 119.90 72.47 132.60 88.13 138.00 104.00
C 146.90 133.96 139.73 168.55 142.00 201.00
C 142.00 206.67 142.00 212.33 142.00 218.00
C 142.00 221.33 142.00 224.67 142.00 228.00
C 128.67 228.00 115.33 228.00 102.00 228.00
C 101.65 227.95 101.07 227.35 101.00 227.00
C 101.00 224.67 101.00 222.33 101.00 220.00
C 100.35 190.75 102.31 160.83 100.00 132.00
C 98.51 125.90 94.30 119.87 89.00 116.00
C 73.21 102.87 45.70 111.90 42.00 133.00
C 42.00 144.67 42.00 156.33 42.00 168.00
C 42.00 173.33 42.00 178.67 42.00 184.00
C 42.00 190.00 42.00 196.00 42.00 202.00
C 41.36 206.50 43.30 212.33 41.00 216.00
C 40.37 219.83 42.28 224.99 40.00 228.00
C 37.67 228.00 35.33 228.00 33.00 228.00
C 28.33 228.00 23.67 228.00 19.00 228.00
C 12.67 228.00 6.33 228.00 0.00 228.00
L 0.00 230.00
L 338.00 230.00
C 338.00 229.50 338.00 229.00 338.00 229.00
C 335.00 229.00 332.00 229.00 329.00 229.00
C 328.50 229.00 328.00 229.00 328.00 229.00
C 325.69 220.91 327.65 210.84 327.00 202.00
C 327.00 196.00 327.00 190.00 327.00 184.00
C 327.00 178.33 327.00 172.67 327.00 167.00
C 327.59 164.16 325.78 160.02 328.00 158.00
C 328.00 149.67 328.00 141.33 328.00 133.00
C 328.00 104.33 328.00 75.67 328.00 47.00
C 328.00 34.67 328.00 22.33 328.00 10.00
C 328.00 7.67 328.00 5.33 328.00 3.00
C 328.57 2.06 329.15 1.18 329.00 0.00
L 0.00 0.00
L 0.00 71.00
M 297.00 63.00 
C 297.25 63.26 297.00 64.00 297.00 64.00
C 297.00 67.67 297.00 71.33 297.00 75.00
C 296.33 87.83 298.33 101.99 296.00 114.00
C 278.00 114.00 260.00 114.00 242.00 114.00
C 232.33 114.00 222.67 114.00 213.00 114.00
C 211.44 113.59 210.31 114.46 209.00 115.00
C 206.43 117.85 210.77 120.12 213.00 121.00
C 219.00 121.00 225.00 121.00 231.00 121.00
C 241.17 121.67 252.66 119.67 262.00 122.00
C 301.70 121.68 317.98 169.68 302.00 201.00
C 287.64 230.61 254.38 230.72 225.00 229.00
C 220.33 229.00 215.67 229.00 211.00 229.00
C 204.00 229.00 197.00 229.00 190.00 229.00
C 187.33 229.00 184.67 229.00 182.00 229.00
C 177.50 228.36 171.67 230.30 168.00 228.00
C 167.00 228.00 166.00 228.00 165.00 228.00
C 162.68 215.24 164.66 200.51 164.00 187.00
C 164.47 185.12 162.94 182.07 165.00 181.00
C 165.00 179.67 165.00 178.33 165.00 177.00
C 180.00 177.00 195.00 177.00 210.00 177.00
C 226.33 177.00 242.67 177.00 259.00 177.00
C 260.33 176.01 262.57 175.95 263.00 174.00
C 237.28 169.41 205.04 180.49 184.00 162.00
C 182.75 161.70 182.29 160.17 181.00 160.00
C 179.43 159.04 177.75 157.68 177.00 156.00
C 171.07 149.48 166.97 141.64 166.00 133.00
C 164.25 132.17 165.34 129.56 165.00 128.00
C 164.09 124.92 163.10 121.01 165.00 118.00
C 165.00 115.33 165.00 112.67 165.00 110.00
C 165.52 107.81 163.86 104.38 166.00 103.00
C 165.76 99.09 167.05 94.95 169.00 92.00
C 168.94 90.11 170.42 88.71 171.00 87.00
C 171.30 85.75 172.83 85.29 173.00 84.00
C 176.24 78.98 180.58 73.70 186.00 71.00
C 186.03 69.90 187.34 70.19 188.00 70.00
C 188.44 68.71 189.58 67.79 191.00 68.00
C 195.94 64.04 202.79 63.08 209.00 62.00
C 210.00 62.00 211.00 62.00 212.00 62.00
C 217.33 62.00 222.67 62.00 228.00 62.00
C 242.33 62.00 256.67 62.00 271.00 62.00
C 279.50 62.66 289.33 60.67 297.00 63.00 Z"/>
</g>
<g fill="#74C705" fill-opacity="0.86" stroke="None">
<path d="
M 328.00 3.00 
C 328.01 2.93 329.00 3.00 329.00 3.00
C 337.23 -0.29 351.69 4.20 361.00 1.00
C 351.50 0.34 340.68 2.33 332.00 0.00
L 329.00 0.00
C 329.15 1.18 328.57 2.06 328.00 3.00 Z"/>
</g>
<g fill="#000000" fill-opacity="0.00" stroke="None">
<path d="
M 361.00 1.00 
C 364.00 1.00 367.00 1.00 370.00 1.00
C 370.00 3.33 370.00 5.67 370.00 8.00
C 370.00 19.00 370.00 30.00 370.00 41.00
C 370.00 52.67 370.00 64.33 370.00 76.00
C 370.00 81.33 370.00 86.67 370.00 92.00
C 370.00 98.00 370.00 104.00 370.00 110.00
C 369.35 115.50 371.32 122.33 369.00 127.00
C 369.59 129.84 367.78 133.98 370.00 136.00
C 388.19 111.96 408.05 88.82 427.00 65.00
C 434.15 60.46 445.30 64.24 454.00 63.00
C 461.33 63.00 468.67 63.00 476.00 63.00
L 476.00 0.00
L 332.00 0.00
C 340.68 2.33 351.50 0.34 361.00 1.00 Z"/>
</g>
<g fill="#78CCFC" fill-opacity="0.98" stroke="None">
<path d="
M 329.00 3.00 
C 329.00 5.33 329.00 7.67 329.00 10.00
C 328.33 22.17 330.33 35.66 328.00 47.00
C 328.00 75.67 328.00 104.33 328.00 133.00
C 329.65 140.59 329.68 151.48 328.00 159.00
C 328.00 161.67 328.00 164.33 328.00 167.00
C 328.00 172.67 328.00 178.33 328.00 184.00
C 328.00 190.00 328.00 196.00 328.00 202.00
C 328.00 210.67 328.00 219.33 328.00 228.00
C 332.64 212.86 328.69 193.69 330.00 177.00 C 329.40 123.10 330.75 69.69 331.00 16.00
C 342.67 16.00 354.33 16.00 366.00 16.00
C 366.50 16.00 367.00 16.00 367.00 16.00
C 367.41 15.17 367.97 14.13 369.00 14.00
C 369.47 12.12 367.94 9.07 370.00 8.00
C 370.00 5.67 370.00 3.33 370.00 1.00
C 367.00 1.00 364.00 1.00 361.00 1.00
C 351.69 4.20 337.23 -0.29 329.00 3.00 Z"/>
</g>
<g fill="#50C75F" fill-opacity="0.24" stroke="None">
<path d="
M 328.00 10.00 
C 328.01 10.07 329.00 10.00 329.00 10.00
C 329.00 7.67 329.00 5.33 329.00 3.00
C 329.00 3.00 328.01 2.93 328.00 3.00
C 328.00 5.33 328.00 7.67 328.00 10.00 Z"/>
</g>
<g fill="#6871BC" fill-opacity="0.38" stroke="None">
<path d="
M 369.00 14.00 
C 369.00 23.00 369.00 32.00 369.00 41.00
C 369.00 40.96 370.00 41.00 370.00 41.00
C 370.00 30.00 370.00 19.00 370.00 8.00
C 367.94 9.07 369.47 12.12 369.00 14.00 Z"/>
</g>
<g fill="#70D008" fill-opacity="0.58" stroke="None">
<path d="
M 328.00 47.00 
C 330.33 35.66 328.33 22.17 329.00 10.00
C 329.00 10.00 328.01 10.07 328.00 10.00
C 328.00 22.33 328.00 34.67 328.00 47.00 Z"/>
</g>
<g fill="#496ECD" fill-opacity="0.94" stroke="None">
<path d="
M 367.00 16.00 
C 367.00 60.33 367.00 104.67 367.00 149.00
C 368.84 146.92 367.28 143.00 370.00 141.00
C 371.57 148.74 374.25 139.60 378.00 138.00
C 392.84 116.49 409.24 95.67 425.00 75.00
C 429.78 62.88 446.40 71.59 454.00 64.00
C 445.08 64.62 435.48 62.73 427.00 65.00
C 408.05 88.82 388.19 111.96 370.00 136.00
C 367.78 133.98 369.59 129.84 369.00 127.00
C 369.00 121.33 369.00 115.67 369.00 110.00
C 369.00 104.00 369.00 98.00 369.00 92.00
C 369.00 86.67 369.00 81.33 369.00 76.00
C 369.00 64.33 369.00 52.67 369.00 41.00
C 369.00 32.00 369.00 23.00 369.00 14.00
C 367.97 14.13 367.41 15.17 367.00 16.00 Z"/>
</g>
<g fill="#62A6EF" fill-opacity="1.00" stroke="None">
<path d="
M 328.00 228.00 
C 328.00 228.50 328.00 229.00 328.00 229.00
C 328.00 229.00 328.50 229.00 329.00 229.00
C 339.47 224.39 353.98 228.29 366.00 227.00
C 361.30 209.45 374.22 198.64 383.30 186.30 C 387.26 182.72 392.78 169.61 397.00 174.00
C 406.45 192.66 417.14 211.37 428.00 229.00
C 428.25 228.75 429.00 229.00 429.00 229.00
C 442.09 226.68 457.15 228.66 471.00 228.00
C 453.68 198.80 435.59 169.50 421.00 139.00
C 436.30 118.24 453.90 98.45 470.00 78.00
C 456.33 78.00 442.67 78.00 429.00 78.00
C 421.23 89.07 411.75 98.95 404.00 110.00
C 394.98 121.53 386.17 133.54 376.00 144.00
C 374.17 147.32 370.45 153.91 366.00 151.00
C 369.83 146.67 375.76 143.91 378.00 138.00
C 374.25 139.60 371.57 148.74 370.00 141.00
C 367.28 143.00 368.84 146.92 367.00 149.00
C 364.67 105.57 366.67 60.18 366.00 16.00
C 354.33 16.00 342.67 16.00 331.00 16.00
C 330.75 69.69 329.40 123.10 330.00 177.00 C 328.69 193.69 332.64 212.86 328.00 228.00 Z"/>
</g>
<g fill="#4E80DA" fill-opacity="1.00" stroke="None">
<path d="
M 367.00 149.00 
C 367.00 104.67 367.00 60.33 367.00 16.00
C 367.00 16.00 366.50 16.00 366.00 16.00
C 366.67 60.18 364.67 105.57 367.00 149.00 Z"/>
</g>
<g fill="#7D70E8" fill-opacity="0.26" stroke="None">
<path d="
M 369.00 76.00 
C 369.00 75.96 370.00 76.00 370.00 76.00
C 370.00 64.33 370.00 52.67 370.00 41.00
C 370.00 41.00 369.00 40.96 369.00 41.00
C 369.00 52.67 369.00 64.33 369.00 76.00 Z"/>
</g>
<g fill="#79CDF8" fill-opacity="0.98" stroke="None">
<path d="
M 57.00 59.00 
C 60.97 62.36 57.39 66.79 58.00 71.00
C 64.33 71.00 70.67 71.00 77.00 71.00
C 74.06 73.80 67.87 70.16 65.00 73.00
C 72.78 71.59 81.14 75.58 88.00 73.00
C 84.52 72.47 81.36 70.97 78.00 70.00
C 78.42 66.02 77.01 61.56 79.00 58.00
C 71.65 58.23 63.97 57.29 57.00 59.00 Z"/>
</g>
<g fill="#62A6EF" fill-opacity="1.00" stroke="None">
<path d="
M 65.00 73.00 
C 56.72 73.63 48.67 75.48 41.31 79.31 C 34.29 80.91 28.60 90.83 22.00 89.00
C 18.21 84.13 13.98 79.68 10.00 75.00
C 8.03 76.59 5.34 75.80 3.00 76.00
C 2.33 125.91 4.33 176.53 2.00 226.00
C 2.50 225.95 3.00 226.00 3.00 226.00
C 13.76 223.68 26.49 225.66 38.00 225.00
C 38.67 195.17 36.67 164.01 39.00 135.00
C 40.24 112.54 74.79 97.41 89.00 116.00
C 94.30 119.87 98.51 125.90 100.00 132.00
C 106.78 144.90 101.16 163.05 103.00 178.00 C 102.33 193.83 104.33 210.99 102.00 226.00
C 101.78 226.30 101.04 226.78 101.00 227.00
C 101.07 227.35 101.65 227.95 102.00 228.00
C 112.47 223.39 126.98 227.29 139.00 226.00
C 134.44 182.60 151.18 131.68 123.23 95.77 C 117.48 84.50 99.32 81.50 104.00 66.00
C 96.98 60.84 87.65 59.13 79.00 58.00
C 77.01 61.56 78.42 66.02 78.00 70.00
C 81.36 70.97 84.52 72.47 88.00 73.00
C 81.14 75.58 72.78 71.59 65.00 73.00 Z"/>
</g>
<g fill="#83E3F8" fill-opacity="0.96" stroke="None">
<path d="
M 28.00 72.00 
C 31.19 78.26 27.95 85.76 22.00 89.00
C 28.60 90.83 34.29 80.91 41.31 79.31 C 48.67 75.48 56.72 73.63 65.00 73.00
C 67.87 70.16 74.06 73.80 77.00 71.00
C 70.67 71.00 64.33 71.00 58.00 71.00
C 57.39 66.79 60.97 62.36 57.00 59.00
C 46.48 61.18 36.77 65.69 28.00 72.00 Z"/>
</g>
<g fill="#72C723" fill-opacity="0.25" stroke="None">
<path d="
M 1.00 62.00 
C 3.90 60.10 7.70 61.38 11.00 61.00
C 8.97 59.61 1.48 58.60 1.00 62.00 Z"/>
</g>
<g fill="#77CDFB" fill-opacity="0.99" stroke="None">
<path d="
M 1.00 62.00 
C 1.00 64.67 1.00 67.33 1.00 70.00
C 1.26 79.35 0.81 91.55 1.00 102.00
C 1.00 113.33 1.00 124.67 1.00 136.00
C 1.00 158.67 1.00 181.33 1.00 204.00
C 0.35 209.50 2.32 216.33 0.00 221.00
L 0.00 227.00
C 0.50 227.00 1.00 227.00 1.00 227.00
C 1.26 226.88 1.65 226.03 2.00 226.00
C 4.33 176.53 2.33 125.91 3.00 76.00
C 5.34 75.80 8.03 76.59 10.00 75.00
C 10.20 70.65 10.43 65.62 12.00 62.00
C 11.73 61.79 11.30 61.22 11.00 61.00
C 7.70 61.38 3.90 60.10 1.00 62.00 Z"/>
</g>
<g fill="#5585DB" fill-opacity="0.96" stroke="None">
<path d="
M 10.00 75.00 
C 13.98 79.68 18.21 84.13 22.00 89.00
C 27.95 85.76 31.19 78.26 28.00 72.00
C 26.07 72.47 25.31 75.45 23.00 75.00
C 20.59 70.18 15.90 65.85 12.00 62.00
C 10.43 65.62 10.20 70.65 10.00 75.00 Z"/>
</g>
<g fill="#81E0F9" fill-opacity="0.97" stroke="None">
<path d="
M 191.00 68.00 
C 192.90 69.14 188.65 69.02 188.00 70.00
C 187.34 70.19 186.03 69.90 186.00 71.00
C 181.31 74.65 177.18 79.87 173.00 84.00
C 172.83 85.29 171.30 85.75 171.00 87.00
C 172.85 88.07 170.66 91.45 169.00 92.00
C 167.05 94.95 165.76 99.09 166.00 103.00
C 166.46 104.23 166.53 108.69 165.00 110.00
C 165.00 112.67 165.00 115.33 165.00 118.00
C 165.15 120.37 166.12 125.61 165.00 128.00
C 165.34 129.56 164.25 132.17 166.00 133.00
C 164.88 108.94 178.09 83.28 203.08 78.08 C 232.88 75.60 263.77 77.69 294.00 77.00
C 293.30 72.52 281.10 76.19 276.00 75.00 C 254.01 74.60 231.60 75.95 210.00 74.00
C 209.58 70.02 210.99 65.56 209.00 62.00
C 202.79 63.08 195.94 64.04 191.00 68.00 Z"/>
</g>
<g fill="#74C5FD" fill-opacity="1.00" stroke="None">
<path d="
M 294.00 77.00 
C 294.83 76.59 295.87 76.03 296.00 75.00
C 296.62 71.50 294.73 66.68 297.00 64.00
C 297.00 64.00 297.25 63.26 297.00 63.00
C 288.33 63.00 279.67 63.00 271.00 63.00
C 256.67 63.00 242.33 63.00 228.00 63.00
C 222.84 62.35 216.34 64.31 212.00 62.00
C 211.00 62.00 210.00 62.00 209.00 62.00
C 210.99 65.56 209.58 70.02 210.00 74.00
C 231.60 75.95 254.01 74.60 276.00 75.00 C 281.10 76.19 293.30 72.52 294.00 77.00 Z"/>
</g>
<g fill="#80C9F5" fill-opacity="0.85" stroke="None">
<path d="
M 228.00 63.00 
C 227.96 63.00 228.00 62.00 228.00 62.00
C 222.67 62.00 217.33 62.00 212.00 62.00
C 216.34 64.31 222.84 62.35 228.00 63.00 Z"/>
</g>
<g fill="#98C4DA" fill-opacity="0.65" stroke="None">
<path d="
M 228.00 63.00 
C 242.33 63.00 256.67 63.00 271.00 63.00
C 270.96 63.00 271.00 62.00 271.00 62.00
C 256.67 62.00 242.33 62.00 228.00 62.00
C 228.00 62.00 227.96 63.00 228.00 63.00 Z"/>
</g>
<g fill="#88B6E2" fill-opacity="0.46" stroke="None">
<path d="
M 271.00 63.00 
C 279.67 63.00 288.33 63.00 297.00 63.00
C 289.33 60.67 279.50 62.66 271.00 62.00
C 271.00 62.00 270.96 63.00 271.00 63.00 Z"/>
</g>
<g fill="#827EA7" fill-opacity="0.61" stroke="None">
<path d="
M 427.00 65.00 
C 435.48 62.73 445.08 64.62 454.00 64.00
C 453.96 64.00 454.00 63.00 454.00 63.00
C 445.30 64.24 434.15 60.46 427.00 65.00 Z"/>
</g>
<g fill="#8EB8DD" fill-opacity="0.51" stroke="None">
<path d="
M 454.00 64.00 
C 461.00 64.00 468.00 64.00 475.00 64.00
C 475.50 64.00 476.00 64.00 476.00 64.00
L 476.00 63.00
C 468.67 63.00 461.33 63.00 454.00 63.00
C 454.00 63.00 453.96 64.00 454.00 64.00 Z"/>
</g>
<g fill="#5A98EB" fill-opacity="0.96" stroke="None">
<path d="
M 296.00 75.00 
C 296.26 74.75 297.00 75.00 297.00 75.00
C 297.00 71.33 297.00 67.67 297.00 64.00
C 294.73 66.68 296.62 71.50 296.00 75.00 Z"/>
</g>
<g fill="#75C6FC" fill-opacity="1.00" stroke="None">
<path d="
M 425.00 75.00 
C 426.25 74.70 426.71 73.17 428.00 73.00
C 426.73 75.78 430.99 75.68 429.00 78.00
C 442.67 78.00 456.33 78.00 470.00 78.00
C 471.34 77.27 472.64 76.66 474.00 76.00
C 475.39 75.74 474.78 73.95 475.00 73.00
C 474.21 71.08 475.53 66.85 475.00 64.00
C 468.00 64.00 461.00 64.00 454.00 64.00
C 446.40 71.59 429.78 62.88 425.00 75.00 Z"/>
</g>
<g fill="#74BD44" fill-opacity="0.25" stroke="None">
<path d="
M 475.00 73.00 
C 475.11 72.65 475.67 72.17 476.00 72.00
L 476.00 64.00
C 476.00 64.00 475.50 64.00 475.00 64.00
C 475.53 66.85 474.21 71.08 475.00 73.00 Z"/>
</g>
<g fill="#517FD8" fill-opacity="0.96" stroke="None">
<path d="
M 139.00 226.00 
C 141.33 198.57 139.33 169.18 140.00 141.00 C 142.58 128.34 134.79 114.43 138.00 104.00
C 132.60 88.13 119.90 72.47 104.00 66.00
C 99.32 81.50 117.48 84.50 123.23 95.77 C 151.18 131.68 134.44 182.60 139.00 226.00 Z"/>
</g>
<g fill="#89EA39" fill-opacity="0.43" stroke="None">
<path d="
M 188.00 70.00 
C 188.65 69.02 192.90 69.14 191.00 68.00
C 189.58 67.79 188.44 68.71 188.00 70.00 Z"/>
</g>
<g fill="#63CB5B" fill-opacity="0.18" stroke="None">
<path d="
M 0.00 71.00 
L 0.00 102.00
C 0.50 102.00 1.00 102.00 1.00 102.00
C 0.81 91.55 1.26 79.35 1.00 70.00
C 0.95 70.35 0.34 70.84 0.00 71.00 Z"/>
</g>
<g fill="#73ED61" fill-opacity="0.21" stroke="None">
<path d="
M 173.00 84.00 
C 177.18 79.87 181.31 74.65 186.00 71.00
C 180.58 73.70 176.24 78.98 173.00 84.00 Z"/>
</g>
<g fill="#000000" fill-opacity="0.00" stroke="None">
<path d="
M 475.00 73.00 
C 474.78 73.95 475.39 75.74 474.00 76.00
C 459.75 96.58 441.58 114.66 427.00 135.00
C 436.74 148.99 444.24 165.02 453.31 179.70 C 460.54 196.46 477.09 210.21 475.00 230.00
L 476.00 230.00
L 476.00 72.00
C 475.67 72.17 475.11 72.65 475.00 73.00 Z"/>
</g>
<g fill="#83E4FB" fill-opacity="1.00" stroke="None">
<path d="
M 425.00 75.00 
C 409.24 95.67 392.84 116.49 378.00 138.00
C 375.76 143.91 369.83 146.67 366.00 151.00
C 370.45 153.91 374.17 147.32 376.00 144.00
C 385.13 132.53 393.96 120.54 404.00 110.00
C 411.75 98.95 421.23 89.07 429.00 78.00
C 430.99 75.68 426.73 75.78 428.00 73.00
C 426.71 73.17 426.25 74.70 425.00 75.00 Z"/>
</g>
<g fill="#4A6FCE" fill-opacity="0.92" stroke="None">
<path d="
M 294.00 77.00 
C 294.00 88.67 294.00 100.33 294.00 112.00
C 294.83 112.41 295.87 112.97 296.00 114.00
C 298.33 101.99 296.33 87.83 297.00 75.00
C 297.00 75.00 296.26 74.75 296.00 75.00
C 295.87 76.03 294.83 76.59 294.00 77.00 Z"/>
</g>
<g fill="#946A1D" fill-opacity="0.21" stroke="None">
<path d="
M 369.00 92.00 
C 369.00 91.96 370.00 92.00 370.00 92.00
C 370.00 86.67 370.00 81.33 370.00 76.00
C 370.00 76.00 369.00 75.96 369.00 76.00
C 369.00 81.33 369.00 86.67 369.00 92.00 Z"/>
</g>
<g fill="#4764C5" fill-opacity="0.85" stroke="None">
<path d="
M 470.00 78.00 
C 453.90 98.45 436.30 118.24 421.00 139.00
C 423.75 139.27 424.68 135.71 427.00 135.00
C 441.58 114.66 459.75 96.58 474.00 76.00
C 472.64 76.66 471.34 77.27 470.00 78.00 Z"/>
</g>
<g fill="#62A5EF" fill-opacity="1.00" stroke="None">
<path d="
M 166.00 133.00 
C 166.97 141.64 171.07 149.48 177.00 156.00
C 179.00 155.89 181.17 157.95 181.00 160.00
C 182.29 160.17 182.75 161.70 184.00 162.00
C 195.07 167.49 209.67 172.50 224.00 171.00 C 237.04 174.66 264.82 162.00 266.00 181.00
C 267.26 180.92 266.56 178.94 268.00 179.00
C 269.01 184.00 265.96 189.82 261.00 191.00
C 230.57 193.33 198.18 191.33 167.00 192.00
C 166.36 203.58 168.30 215.86 166.00 227.00
C 166.50 227.00 167.00 227.00 167.00 227.00
C 198.10 224.67 231.15 226.67 263.00 226.00
C 277.42 225.14 290.94 215.69 298.00 203.00
C 315.17 175.25 294.24 132.67 261.98 130.02 C 248.94 130.50 235.22 128.50 223.00 132.00 C 212.41 134.75 195.12 128.15 206.00 116.00
C 216.83 107.28 234.45 114.23 248.00 112.00 C 263.33 112.00 278.67 112.00 294.00 112.00
C 294.00 100.33 294.00 88.67 294.00 77.00
C 263.77 77.69 232.88 75.60 203.08 78.08 C 178.09 83.28 164.88 108.94 166.00 133.00
M 266.00 135.00 
C 249.74 136.66 230.19 136.67 214.00 135.00
C 230.37 133.25 249.29 133.45 266.00 135.00 Z"/>
</g>
<g fill="#71E63A" fill-opacity="0.55" stroke="None">
<path d="
M 169.00 92.00 
C 170.66 91.45 172.85 88.07 171.00 87.00
C 170.42 88.71 168.94 90.11 169.00 92.00 Z"/>
</g>
<g fill="#AC6F6E" fill-opacity="0.10" stroke="None">
<path d="
M 369.00 110.00 
C 369.00 109.96 370.00 110.00 370.00 110.00
C 370.00 104.00 370.00 98.00 370.00 92.00
C 370.00 92.00 369.00 91.96 369.00 92.00
C 369.00 98.00 369.00 104.00 369.00 110.00 Z"/>
</g>
<g fill="#29CD58" fill-opacity="0.30" stroke="None">
<path d="
M 0.00 136.00 
C 0.50 136.00 1.00 136.00 1.00 136.00
C 1.00 124.67 1.00 113.33 1.00 102.00
C 1.00 102.00 0.50 102.00 0.00 102.00
L 0.00 136.00 Z"/>
</g>
<g fill="#59C237" fill-opacity="0.45" stroke="None">
<path d="
M 165.00 110.00 
C 166.53 108.69 166.46 104.23 166.00 103.00
C 163.86 104.38 165.52 107.81 165.00 110.00 Z"/>
</g>
<g fill="#4669CB" fill-opacity="0.91" stroke="None">
<path d="
M 139.00 226.00 
C 126.98 227.29 112.47 223.39 102.00 228.00
C 115.33 228.00 128.67 228.00 142.00 228.00
C 142.00 224.67 142.00 221.33 142.00 218.00
C 140.38 213.41 140.30 205.52 142.00 201.00
C 139.73 168.55 146.90 133.96 138.00 104.00
C 134.79 114.43 142.58 128.34 140.00 141.00 C 139.33 169.18 141.33 198.57 139.00 226.00 Z"/>
</g>
<g fill="#4067CB" fill-opacity="0.94" stroke="None">
<path d="
M 39.00 135.00 
C 39.00 165.33 39.00 195.67 39.00 226.00
C 27.00 226.00 15.00 226.00 3.00 226.00
C 3.00 226.00 2.50 225.95 2.00 226.00
C 1.65 226.03 1.26 226.88 1.00 227.00
C 7.00 227.00 13.00 227.00 19.00 227.00
C 23.67 227.00 28.33 227.00 33.00 227.00
C 35.19 227.53 38.62 225.86 40.00 228.00
C 42.28 224.99 40.37 219.83 41.00 216.00
C 41.00 211.33 41.00 206.67 41.00 202.00
C 41.00 196.00 41.00 190.00 41.00 184.00
C 41.00 178.67 41.00 173.33 41.00 168.00
C 41.67 156.50 39.67 143.68 42.00 133.00
C 45.70 111.90 73.21 102.87 89.00 116.00
C 74.79 97.41 40.24 112.54 39.00 135.00 Z"/>
</g>
<g fill="#B692DB" fill-opacity="0.03" stroke="None">
<path d="
M 369.00 127.00 
C 371.32 122.33 369.35 115.50 370.00 110.00
C 370.00 110.00 369.00 109.96 369.00 110.00
C 369.00 115.67 369.00 121.33 369.00 127.00 Z"/>
</g>
<g fill="#72C4FA" fill-opacity="1.00" stroke="None">
<path d="
M 376.00 144.00 
C 386.17 133.54 394.98 121.53 404.00 110.00
C 393.96 120.54 385.13 132.53 376.00 144.00 Z"/>
</g>
<g fill="#2F55CA" fill-opacity="0.86" stroke="None">
<path d="
M 206.00 116.00 
C 206.16 119.87 207.26 115.03 209.00 115.00
C 210.31 114.46 211.44 113.59 213.00 114.00
C 221.59 112.35 233.48 112.32 242.00 114.00
C 260.00 114.00 278.00 114.00 296.00 114.00
C 295.87 112.97 294.83 112.41 294.00 112.00
C 278.67 112.00 263.33 112.00 248.00 112.00 C 234.45 114.23 216.83 107.28 206.00 116.00 Z"/>
</g>
<g fill="#025221" fill-opacity="0.42" stroke="None">
<path d="
M 213.00 114.00 
C 222.67 114.00 232.33 114.00 242.00 114.00
C 233.48 112.32 221.59 112.35 213.00 114.00 Z"/>
</g>
<g fill="#476BCE" fill-opacity="0.96" stroke="None">
<path d="
M 206.00 116.00 
C 195.12 128.15 212.41 134.75 223.00 132.00 C 235.22 128.50 248.94 130.50 261.98 130.02 C 294.24 132.67 315.17 175.25 298.00 203.00
C 299.46 202.45 300.18 200.60 302.00 201.00
C 317.98 169.68 301.70 121.68 262.00 122.00
C 251.67 122.00 241.33 122.00 231.00 122.00
C 225.17 121.34 218.01 123.32 213.00 121.00
C 210.77 120.12 206.43 117.85 209.00 115.00
C 207.26 115.03 206.16 119.87 206.00 116.00 Z"/>
</g>
<g fill="#6FCE49" fill-opacity="0.46" stroke="None">
<path d="
M 165.00 128.00 
C 166.12 125.61 165.15 120.37 165.00 118.00
C 163.10 121.01 164.09 124.92 165.00 128.00 Z"/>
</g>
<g fill="#756CA3" fill-opacity="0.62" stroke="None">
<path d="
M 231.00 122.00 
C 230.96 122.00 231.00 121.00 231.00 121.00
C 225.00 121.00 219.00 121.00 213.00 121.00
C 218.01 123.32 225.17 121.34 231.00 122.00 Z"/>
</g>
<g fill="#6D65AB" fill-opacity="0.44" stroke="None">
<path d="
M 231.00 122.00 
C 241.33 122.00 251.67 122.00 262.00 122.00
C 252.66 119.67 241.17 121.67 231.00 121.00
C 231.00 121.00 230.96 122.00 231.00 122.00 Z"/>
</g>
<g fill="#7CD4F6" fill-opacity="0.90" stroke="None">
<path d="
M 101.00 220.00 
C 102.87 221.14 101.61 224.13 102.00 226.00
C 104.33 210.99 102.33 193.83 103.00 178.00 C 101.16 163.05 106.78 144.90 100.00 132.00
C 102.31 160.83 100.35 190.75 101.00 220.00 Z"/>
</g>
<g fill="#7A5AE3" fill-opacity="0.27" stroke="None">
<path d="
M 41.00 168.00 
C 41.00 167.96 42.00 168.00 42.00 168.00
C 42.00 156.33 42.00 144.67 42.00 133.00
C 39.67 143.68 41.67 156.50 41.00 168.00 Z"/>
</g>
<g fill="#7AD501" fill-opacity="0.96" stroke="None">
<path d="
M 328.00 158.00 
C 328.00 158.50 328.00 159.00 328.00 159.00
C 329.68 151.48 329.65 140.59 328.00 133.00
C 328.00 141.33 328.00 149.67 328.00 158.00 Z"/>
</g>
<g fill="#7BD2FC" fill-opacity="1.00" stroke="None">
<path d="
M 266.00 135.00 
C 249.29 133.45 230.37 133.25 214.00 135.00
C 230.19 136.67 249.74 136.66 266.00 135.00 Z"/>
</g>
<g fill="#4E81DA" fill-opacity="1.00" stroke="None">
<path d="
M 3.00 226.00 
C 15.00 226.00 27.00 226.00 39.00 226.00
C 39.00 195.67 39.00 165.33 39.00 135.00
C 36.67 164.01 38.67 195.17 38.00 225.00
C 26.49 225.66 13.76 223.68 3.00 226.00 Z"/>
</g>
<g fill="#527CD6" fill-opacity="0.95" stroke="None">
<path d="
M 421.00 139.00 
C 435.59 169.50 453.68 198.80 471.00 228.00
C 471.24 229.67 473.85 228.17 474.00 230.00
L 475.00 230.00
C 477.09 210.21 460.54 196.46 453.31 179.70 C 444.24 165.02 436.74 148.99 427.00 135.00
C 424.68 135.71 423.75 139.27 421.00 139.00 Z"/>
</g>
<g fill="#62D019" fill-opacity="0.49" stroke="None">
<path d="
M 0.00 204.00 
C 0.50 204.00 1.00 204.00 1.00 204.00
C 1.00 181.33 1.00 158.67 1.00 136.00
C 1.00 136.00 0.50 136.00 0.00 136.00
L 0.00 204.00 Z"/>
</g>
<g fill="#2C7CAD" fill-opacity="0.43" stroke="None">
<path d="
M 181.00 160.00 
C 181.17 157.95 179.00 155.89 177.00 156.00
C 177.75 157.68 179.43 159.04 181.00 160.00 Z"/>
</g>
<g fill="#7FDF20" fill-opacity="0.03" stroke="None">
<path d="
M 327.00 167.00 
C 327.00 166.96 328.00 167.00 328.00 167.00
C 328.00 164.33 328.00 161.67 328.00 159.00
C 328.00 159.00 328.00 158.50 328.00 158.00
C 325.78 160.02 327.59 164.16 327.00 167.00 Z"/>
</g>
<g fill="#4067CE" fill-opacity="0.96" stroke="None">
<path d="
M 184.00 162.00 
C 205.04 180.49 237.28 169.41 263.00 174.00
C 262.57 175.95 260.33 176.01 259.00 177.00
C 243.74 178.66 225.19 178.67 210.00 177.00
C 195.00 177.00 180.00 177.00 165.00 177.00
C 165.00 178.33 165.00 179.67 165.00 181.00
C 165.00 183.00 165.00 185.00 165.00 187.00
C 165.34 186.77 166.00 187.00 166.00 187.00
C 177.03 183.47 190.39 185.62 202.00 183.00
C 222.73 176.64 247.27 195.36 266.00 181.00
C 264.82 162.00 237.04 174.66 224.00 171.00 C 209.67 172.50 195.07 167.49 184.00 162.00 Z"/>
</g>
<g fill="#63C78B" fill-opacity="0.11" stroke="None">
<path d="
M 327.00 184.00 
C 327.00 183.96 328.00 184.00 328.00 184.00
C 328.00 178.33 328.00 172.67 328.00 167.00
C 328.00 167.00 327.00 166.96 327.00 167.00
C 327.00 172.67 327.00 178.33 327.00 184.00 Z"/>
</g>
<g fill="#905B1A" fill-opacity="0.21" stroke="None">
<path d="
M 41.00 184.00 
C 41.00 183.96 42.00 184.00 42.00 184.00
C 42.00 178.67 42.00 173.33 42.00 168.00
C 42.00 168.00 41.00 167.96 41.00 168.00
C 41.00 173.33 41.00 178.67 41.00 184.00 Z"/>
</g>
<g fill="#4767C9" fill-opacity="0.90" stroke="None">
<path d="
M 329.00 229.00 
C 332.00 229.00 335.00 229.00 338.00 229.00
C 345.00 229.00 352.00 229.00 359.00 229.00
C 362.00 229.00 365.00 229.00 368.00 229.00
C 369.97 225.78 368.58 221.62 369.00 218.00
C 367.57 215.69 366.73 209.56 370.00 208.00
C 378.94 196.62 387.24 184.51 397.00 174.00
C 392.78 169.61 387.26 182.72 383.30 186.30 C 374.22 198.64 361.30 209.45 366.00 227.00
C 353.98 228.29 339.47 224.39 329.00 229.00 Z"/>
</g>
<g fill="#000000" fill-opacity="0.00" stroke="None">
<path d="
M 370.00 208.00 
C 368.10 210.90 369.38 214.70 369.00 218.00
C 368.58 221.62 369.97 225.78 368.00 229.00
C 367.78 229.38 368.00 230.00 368.00 230.00
L 428.00 230.00
C 428.00 229.50 428.00 229.00 428.00 229.00
C 417.14 211.37 406.45 192.66 397.00 174.00
C 387.24 184.51 378.94 196.62 370.00 208.00 Z"/>
</g>
<g fill="#74659E" fill-opacity="0.64" stroke="None">
<path d="
M 259.00 177.00 
C 242.67 177.00 226.33 177.00 210.00 177.00
C 225.19 178.67 243.74 178.66 259.00 177.00 Z"/>
</g>
<g fill="#84E5FC" fill-opacity="1.00" stroke="None">
<path d="
M 266.00 181.00 
C 266.53 182.28 265.03 182.86 265.00 184.00
C 263.32 186.66 260.88 188.91 258.00 190.00
C 258.26 191.39 260.05 190.78 261.00 191.00
C 265.96 189.82 269.01 184.00 268.00 179.00
C 266.56 178.94 267.26 180.92 266.00 181.00 Z"/>
</g>
<g fill="#82734C" fill-opacity="0.19" stroke="None">
<path d="
M 164.00 187.00 
C 164.00 186.96 165.00 187.00 165.00 187.00
C 165.00 185.00 165.00 183.00 165.00 181.00
C 162.94 182.07 164.47 185.12 164.00 187.00 Z"/>
</g>
<g fill="#5183DD" fill-opacity="1.00" stroke="None">
<path d="
M 202.00 183.00 
C 221.19 182.47 238.10 189.76 258.00 187.00
C 259.54 187.37 260.40 185.57 262.00 186.00
C 263.25 185.70 263.71 184.17 265.00 184.00
C 265.03 182.86 266.53 182.28 266.00 181.00
C 247.27 195.36 222.73 176.64 202.00 183.00 Z"/>
</g>
<g fill="#609FEC" fill-opacity="1.00" stroke="None">
<path d="
M 166.00 187.00 
C 181.34 187.74 197.16 183.47 211.69 185.31 C 225.75 189.88 243.62 188.25 258.00 187.00
C 238.10 189.76 221.19 182.47 202.00 183.00
C 190.39 185.62 177.03 183.47 166.00 187.00 Z"/>
</g>
<g fill="#AD5D5C" fill-opacity="0.10" stroke="None">
<path d="
M 41.00 202.00 
C 41.00 201.96 42.00 202.00 42.00 202.00
C 42.00 196.00 42.00 190.00 42.00 184.00
C 42.00 184.00 41.00 183.96 41.00 184.00
C 41.00 190.00 41.00 196.00 41.00 202.00 Z"/>
</g>
<g fill="#6FBAFA" fill-opacity="1.00" stroke="None">
<path d="
M 166.00 187.00 
C 166.00 187.00 165.34 186.77 165.00 187.00
C 165.23 187.16 165.00 188.50 165.00 189.00
C 181.67 189.00 198.33 189.00 215.00 189.00 C 230.36 187.27 248.46 192.63 262.00 186.00
C 260.40 185.57 259.54 187.37 258.00 187.00
C 243.62 188.25 225.75 189.88 211.69 185.31 C 197.16 183.47 181.34 187.74 166.00 187.00 Z"/>
</g>
<g fill="#78CEFC" fill-opacity="1.00" stroke="None">
<path d="
M 262.00 186.00 
C 248.46 192.63 230.36 187.27 215.00 189.00 C 198.33 189.00 181.67 189.00 165.00 189.00
C 165.00 201.67 165.00 214.33 165.00 227.00
C 165.25 226.75 166.00 227.00 166.00 227.00
C 168.30 215.86 166.36 203.58 167.00 192.00
C 198.18 191.33 230.57 193.33 261.00 191.00
C 260.05 190.78 258.26 191.39 258.00 190.00
C 260.88 188.91 263.32 186.66 265.00 184.00
C 263.71 184.17 263.25 185.70 262.00 186.00 Z"/>
</g>
<g fill="#5FCA36" fill-opacity="0.16" stroke="None">
<path d="
M 327.00 202.00 
C 327.00 201.96 328.00 202.00 328.00 202.00
C 328.00 196.00 328.00 190.00 328.00 184.00
C 328.00 184.00 327.00 183.96 327.00 184.00
C 327.00 190.00 327.00 196.00 327.00 202.00 Z"/>
</g>
<g fill="#62CD17" fill-opacity="0.50" stroke="None">
<path d="
M 165.00 228.00 
C 164.75 227.73 165.00 227.00 165.00 227.00
C 165.00 214.33 165.00 201.67 165.00 189.00
C 165.00 188.50 165.23 187.16 165.00 187.00
C 165.00 187.00 164.00 186.96 164.00 187.00
C 164.66 200.51 162.68 215.24 165.00 228.00 Z"/>
</g>
<g fill="#72639A" fill-opacity="0.68" stroke="None">
<path d="
M 142.00 218.00 
C 142.00 212.33 142.00 206.67 142.00 201.00
C 140.30 205.52 140.38 213.41 142.00 218.00 Z"/>
</g>
<g fill="#3659C8" fill-opacity="0.87" stroke="None">
<path d="
M 298.00 203.00 
C 290.94 215.69 277.42 225.14 263.00 226.00
C 231.90 228.33 198.85 226.33 167.00 227.00
C 167.00 227.00 166.50 227.00 166.00 227.00
C 166.00 227.00 165.25 226.75 165.00 227.00
C 165.00 227.00 164.75 227.73 165.00 228.00
C 166.00 228.00 167.00 228.00 168.00 228.00
C 172.67 228.00 177.33 228.00 182.00 228.00
C 184.67 228.00 187.33 228.00 190.00 228.00
C 197.00 228.00 204.00 228.00 211.00 228.00
C 215.50 228.64 221.33 226.70 225.00 229.00
C 254.38 230.72 287.64 230.61 302.00 201.00
C 300.18 200.60 299.46 202.45 298.00 203.00 Z"/>
</g>
<g fill="#D392DB" fill-opacity="0.03" stroke="None">
<path d="
M 41.00 216.00 
C 43.30 212.33 41.36 206.50 42.00 202.00
C 42.00 202.00 41.00 201.96 41.00 202.00
C 41.00 206.67 41.00 211.33 41.00 216.00 Z"/>
</g>
<g fill="#20C75B" fill-opacity="0.29" stroke="None">
<path d="
M 328.00 229.00 
C 328.00 229.00 328.00 228.50 328.00 228.00
C 328.00 219.33 328.00 210.67 328.00 202.00
C 328.00 202.00 327.00 201.96 327.00 202.00
C 327.65 210.84 325.69 220.91 328.00 229.00 Z"/>
</g>
<g fill="#79D102" fill-opacity="0.63" stroke="None">
<path d="
M 0.00 221.00 
C 2.32 216.33 0.35 209.50 1.00 204.00
C 1.00 204.00 0.50 204.00 0.00 204.00
L 0.00 221.00 Z"/>
</g>
<g fill="#776993" fill-opacity="0.60" stroke="None">
<path d="
M 369.00 218.00 
C 369.38 214.70 368.10 210.90 370.00 208.00
C 366.73 209.56 367.57 215.69 369.00 218.00 Z"/>
</g>
<g fill="#79D401" fill-opacity="0.96" stroke="None">
<path d="
M 101.00 227.00 
C 101.04 226.78 101.78 226.30 102.00 226.00
C 101.61 224.13 102.87 221.14 101.00 220.00
C 101.00 222.33 101.00 224.67 101.00 227.00 Z"/>
</g>
<g fill="#5085DC" fill-opacity="1.00" stroke="None">
<path d="
M 167.00 227.00 
C 198.85 226.33 231.90 228.33 263.00 226.00
C 231.15 226.67 198.10 224.67 167.00 227.00 Z"/>
</g>
<g fill="#005436" fill-opacity="0.35" stroke="None">
<path d="
M 0.00 228.00 
C 6.33 228.00 12.67 228.00 19.00 228.00
C 18.96 228.00 19.00 227.00 19.00 227.00
C 13.00 227.00 7.00 227.00 1.00 227.00
C 1.00 227.00 0.50 227.00 0.00 227.00
L 0.00 228.00 Z"/>
</g>
<g fill="#075301" fill-opacity="0.47" stroke="None">
<path d="
M 19.00 228.00 
C 23.67 228.00 28.33 228.00 33.00 228.00
C 32.93 227.99 33.00 227.00 33.00 227.00
C 28.33 227.00 23.67 227.00 19.00 227.00
C 19.00 227.00 18.96 228.00 19.00 228.00 Z"/>
</g>
<g fill="#0C51EA" fill-opacity="0.53" stroke="None">
<path d="
M 33.00 228.00 
C 35.33 228.00 37.67 228.00 40.00 228.00
C 38.62 225.86 35.19 227.53 33.00 227.00
C 33.00 227.00 32.93 227.99 33.00 228.00 Z"/>
</g>
<g fill="#0059A9" fill-opacity="0.25" stroke="None">
<path d="
M 182.00 229.00 
C 181.96 229.00 182.00 228.00 182.00 228.00
C 177.33 228.00 172.67 228.00 168.00 228.00
C 171.67 230.30 177.50 228.36 182.00 229.00 Z"/>
</g>
<g fill="#005A61" fill-opacity="0.31" stroke="None">
<path d="
M 182.00 229.00 
C 184.67 229.00 187.33 229.00 190.00 229.00
C 189.96 229.00 190.00 228.00 190.00 228.00
C 187.33 228.00 184.67 228.00 182.00 228.00
C 182.00 228.00 181.96 229.00 182.00 229.00 Z"/>
</g>
<g fill="#005237" fill-opacity="0.36" stroke="None">
<path d="
M 190.00 229.00 
C 197.00 229.00 204.00 229.00 211.00 229.00
C 210.96 229.00 211.00 228.00 211.00 228.00
C 204.00 228.00 197.00 228.00 190.00 228.00
C 190.00 228.00 189.96 229.00 190.00 229.00 Z"/>
</g>
<g fill="#075301" fill-opacity="0.47" stroke="None">
<path d="
M 211.00 229.00 
C 215.67 229.00 220.33 229.00 225.00 229.00
C 221.33 226.70 215.50 228.64 211.00 228.00
C 211.00 228.00 210.96 229.00 211.00 229.00 Z"/>
</g>
<g fill="#3759C4" fill-opacity="0.97" stroke="None">
<path d="
M 429.00 229.00 
C 441.17 229.67 454.66 227.67 466.00 230.00
L 474.00 230.00
C 473.85 228.17 471.24 229.67 471.00 228.00
C 457.15 228.66 442.09 226.68 429.00 229.00 Z"/>
</g>
<g fill="#C56498" fill-opacity="0.09" stroke="None">
<path d="
M 338.00 230.00 
L 359.00 230.00
C 359.00 229.50 359.00 229.00 359.00 229.00
C 352.00 229.00 345.00 229.00 338.00 229.00
C 338.00 229.00 338.00 229.50 338.00 230.00 Z"/>
</g>
<g fill="#0059A6" fill-opacity="0.25" stroke="None">
<path d="
M 359.00 230.00 
L 368.00 230.00
C 368.00 230.00 367.78 229.38 368.00 229.00
C 365.00 229.00 362.00 229.00 359.00 229.00
C 359.00 229.00 359.00 229.50 359.00 230.00 Z"/>
</g>
<g fill="#1E52D5" fill-opacity="0.63" stroke="None">
<path d="
M 428.00 230.00 
L 466.00 230.00
C 454.66 227.67 441.17 229.67 429.00 229.00
C 429.00 229.00 428.25 228.75 428.00 229.00
C 428.00 229.00 428.00 229.50 428.00 230.00 Z"/>
</g>
</svg>