<svg xmlns="http://www.w3.org/2000/svg" xmlns:v="https://svgstorm.com"
viewBox = "0 0 512 512"
width="512"
height="512">
<g fill="None" fill-opacity="0.0" stroke="#000000" stroke-opacity="0.00" stroke-width="0.3"><path d="
M 0.00 512.00 
L 512.00 512.00
L 512.00 0.00
L 0.00 0.00
L 0.00 512.00
M 344.00 205.00 
C 344.00 213.33 344.00 221.67 344.00 230.00
C 344.00 238.33 343.99 246.67 344.00 255.00
C 344.00 255.50 344.00 256.00 344.00 256.00
C 344.00 260.33 344.00 264.67 344.00 269.00
C 345.88 268.76 345.46 266.45 347.00 266.00
C 349.09 262.43 352.19 258.75 355.00 256.00
C 355.25 255.75 355.65 255.11 356.00 255.00
C 358.62 250.88 361.77 245.66 365.30 242.30 C 368.83 238.95 371.65 231.97 376.00 230.00
C 377.61 224.23 385.28 218.52 391.00 221.00 C 396.72 223.48 410.59 216.99 414.00 222.00
C 415.58 224.33 413.14 228.21 412.00 230.00
C 406.95 237.90 398.63 249.66 391.00 255.00
C 390.77 255.16 391.00 256.00 391.00 256.00
C 388.66 259.06 384.20 263.35 382.75 266.75 C 381.29 270.14 386.43 276.79 388.00 280.00
C 388.35 280.11 388.81 280.68 389.00 281.00
C 393.74 288.93 398.01 297.94 403.00 306.00
C 406.95 312.38 414.54 320.83 414.00 329.00
C 413.97 329.50 414.00 330.00 414.00 330.00
C 411.57 332.51 402.81 331.19 399.00 331.00 C 395.19 330.81 386.59 332.55 383.00 331.00
C 378.96 329.26 379.04 322.10 376.08 318.92 C 373.11 315.75 371.12 309.68 369.00 306.00
C 366.91 302.36 364.25 298.78 362.00 295.00
C 357.43 297.55 356.30 303.33 352.00 306.00
C 346.51 313.16 341.88 321.03 344.00 331.00
C 334.67 331.00 325.33 331.00 316.00 331.00
C 316.00 322.67 316.00 314.33 316.00 306.00
C 316.00 297.67 316.00 289.33 316.00 281.00
C 316.00 280.50 316.00 280.00 316.00 280.00
C 316.00 272.00 316.00 264.00 316.00 256.00
C 316.00 255.50 316.00 255.00 316.00 255.00
C 316.00 246.67 316.00 238.33 316.00 230.00
C 316.00 221.67 316.00 213.33 316.00 205.00
C 316.00 196.67 316.00 188.33 316.00 180.00
C 325.33 180.00 334.67 180.00 344.00 180.00
C 344.00 188.33 344.00 196.67 344.00 205.00
M 160.00 221.00 
C 173.37 224.62 185.21 237.93 190.00 250.00
C 192.22 255.58 193.00 260.41 193.00 267.00
C 193.00 274.67 193.00 282.33 193.00 290.00
C 193.00 295.33 193.00 300.67 193.00 306.00
C 193.00 314.33 193.00 322.67 193.00 331.00
C 184.00 331.00 175.00 331.00 166.00 331.00
C 166.47 323.79 165.52 316.97 165.00 310.00
C 164.72 302.69 165.00 295.31 165.00 288.00
C 165.00 280.55 162.49 268.51 168.00 263.00
C 166.65 263.70 165.37 264.35 164.00 265.00
C 161.50 255.93 150.11 249.58 141.00 253.00
C 132.68 255.32 127.95 261.71 127.00 270.00
C 126.19 277.08 130.22 290.37 124.00 296.00
C 125.16 295.49 125.78 294.32 127.00 294.00
C 127.00 301.33 127.00 308.67 127.00 316.00
C 127.00 321.00 127.00 326.00 127.00 331.00
C 120.33 331.00 113.67 331.00 107.00 331.00
C 104.33 331.00 101.67 331.00 99.00 331.00
C 99.00 325.00 99.00 319.00 99.00 313.00
C 99.00 305.00 99.00 297.00 99.00 289.00
C 99.00 281.67 99.00 274.33 99.00 267.00
C 99.00 259.33 99.00 251.67 99.00 244.00
C 99.00 239.86 96.81 223.20 100.00 221.00
C 101.58 219.91 105.23 221.82 107.00 221.00
C 107.10 224.92 112.93 226.08 113.00 230.00
C 120.12 229.25 126.96 218.67 134.00 223.00
C 132.24 218.96 141.26 219.34 145.00 219.00 C 148.74 218.66 156.20 219.97 160.00 221.00
M 296.00 230.00 
C 296.00 233.21 296.73 237.94 296.00 241.00 C 295.27 244.06 297.73 250.53 296.00 253.00
C 293.14 257.08 282.02 252.55 277.00 254.00 C 271.98 255.45 262.46 252.75 257.00 254.00 C 251.54 255.25 242.80 251.67 238.00 255.00
C 237.58 255.29 235.78 257.28 236.00 258.00
C 236.08 258.24 236.77 258.72 237.00 259.00
C 240.74 263.47 248.60 260.23 254.00 261.00 C 259.40 261.77 267.36 260.55 273.00 261.00
C 284.35 261.90 296.06 268.95 300.00 280.00
C 300.35 280.11 300.88 280.65 301.00 281.00
C 303.46 288.50 304.08 298.19 302.00 306.00
C 291.40 345.70 237.81 326.41 208.00 331.00
C 208.00 322.67 208.00 314.33 208.00 306.00
C 208.05 303.67 207.96 301.33 208.00 299.00
C 219.07 298.38 232.14 299.83 243.00 299.00 C 253.86 298.17 265.99 302.29 274.00 295.00
C 255.42 288.56 228.19 301.02 215.00 281.00
C 214.79 280.73 214.22 280.29 214.00 280.00
C 212.97 278.64 212.74 277.32 212.00 276.00
C 204.94 263.39 207.52 247.91 214.00 237.00
C 215.42 234.61 216.19 232.47 219.00 230.00
C 227.85 222.21 236.97 221.00 249.00 221.00
C 264.67 221.00 280.33 221.00 296.00 221.00
C 296.00 224.00 296.00 227.00 296.00 230.00 Z"/>
</g>
<g fill="None" fill-opacity="0.0" stroke="#FC0100" stroke-opacity="0.99" stroke-width="0.3"><path d="
M 316.00 205.00 
C 325.04 204.78 334.37 204.84 343.00 206.00
C 343.05 205.65 343.95 205.23 344.00 205.00
C 344.00 196.67 344.00 188.33 344.00 180.00
C 334.67 180.00 325.33 180.00 316.00 180.00
C 316.00 188.33 316.00 196.67 316.00 205.00 Z"/>
</g>
<g fill="None" fill-opacity="0.0" stroke="#FD9204" stroke-opacity="1.00" stroke-width="0.3"><path d="
M 316.00 230.00 
C 325.00 230.00 334.00 230.00 343.00 230.00
C 342.34 222.68 341.95 213.27 343.00 206.00
C 334.37 204.84 325.04 204.78 316.00 205.00
C 316.00 213.33 316.00 221.67 316.00 230.00 Z"/>
</g>
<g fill="None" fill-opacity="0.0" stroke="#FD8503" stroke-opacity="0.82" stroke-width="0.3"><path d="
M 343.00 206.00 
C 341.95 213.27 342.34 222.68 343.00 230.00
C 343.50 230.00 344.00 230.00 344.00 230.00
C 344.00 221.67 344.00 213.33 344.00 205.00
C 343.95 205.23 343.05 205.65 343.00 206.00 Z"/>
</g>
<g fill="None" fill-opacity="0.0" stroke="#6E360A" stroke-opacity="1.00" stroke-width="0.3"><path d="
M 134.00 223.00 
C 141.53 227.15 147.65 233.64 155.00 238.00
C 157.53 239.50 159.27 240.53 161.00 243.00
C 161.44 243.16 162.00 243.00 162.00 243.00
C 165.85 245.39 168.69 248.12 172.00 251.00
C 174.02 252.39 175.98 253.67 178.00 255.00
C 175.26 258.16 171.26 260.28 168.00 263.00
C 162.49 268.51 165.00 280.55 165.00 288.00
C 166.76 283.24 176.13 281.93 178.70 277.70 C 181.26 273.47 191.18 271.48 193.00 267.00
C 193.00 260.41 192.22 255.58 190.00 250.00
C 188.41 248.10 188.70 248.36 187.00 250.00
C 184.41 244.27 179.16 238.08 174.25 233.75 C 169.34 229.42 158.87 228.03 160.00 221.00
C 156.20 219.97 148.74 218.66 145.00 219.00 C 141.26 219.34 132.24 218.96 134.00 223.00 Z"/>
</g>
<g fill="None" fill-opacity="0.0" stroke="#FAAFBD" stroke-opacity="1.00" stroke-width="0.3"><path d="
M 99.00 244.00 
C 105.28 245.78 108.74 252.91 115.00 255.00
C 110.42 259.75 104.98 264.15 99.00 267.00
C 99.00 274.33 99.00 281.67 99.00 289.00
C 103.34 287.11 109.63 283.71 113.08 280.08 C 116.53 276.45 124.69 274.20 127.00 270.00
C 127.95 261.71 132.68 255.32 141.00 253.00
C 129.77 240.65 112.46 232.69 100.00 221.00
C 96.81 223.20 99.00 239.86 99.00 244.00 Z"/>
</g>
<g fill="None" fill-opacity="0.0" stroke="#21CDF3" stroke-opacity="0.99" stroke-width="0.3"><path d="
M 141.00 253.00 
C 150.11 249.58 161.50 255.93 164.00 265.00
C 165.37 264.35 166.65 263.70 168.00 263.00
C 171.26 260.28 175.26 258.16 178.00 255.00
C 175.98 253.67 174.02 252.39 172.00 251.00
C 168.44 248.56 164.49 246.57 162.00 243.00
C 162.00 243.00 161.44 243.16 161.00 243.00
C 158.09 241.95 157.12 239.78 155.00 238.00
C 147.65 233.64 141.53 227.15 134.00 223.00
C 126.96 218.67 120.12 229.25 113.00 230.00
C 112.93 226.08 107.10 224.92 107.00 221.00
C 105.23 221.82 101.58 219.91 100.00 221.00
C 112.46 232.69 129.77 240.65 141.00 253.00 Z"/>
</g>
<g fill="None" fill-opacity="0.0" stroke="#4E2608" stroke-opacity="0.98" stroke-width="0.3"><path d="
M 190.00 250.00 
C 185.21 237.93 173.37 224.62 160.00 221.00
C 158.87 228.03 169.34 229.42 174.25 233.75 C 179.16 238.08 184.41 244.27 187.00 250.00
C 188.70 248.36 188.41 248.10 190.00 250.00 Z"/>
</g>
<g fill="None" fill-opacity="0.0" stroke="#FB9303" stroke-opacity="1.00" stroke-width="0.3"><path d="
M 219.00 230.00 
C 221.63 229.28 226.27 229.74 229.00 230.00
C 228.93 230.02 230.83 229.08 231.00 229.00
C 248.73 220.56 274.61 231.17 294.00 227.00
C 275.48 230.59 253.00 224.77 235.00 230.00
C 254.78 232.09 275.18 228.21 295.00 230.00
C 294.76 227.36 295.18 224.65 295.00 222.00
C 279.83 221.33 263.34 223.33 249.00 221.00
C 236.97 221.00 227.85 222.21 219.00 230.00 Z"/>
</g>
<g fill="None" fill-opacity="0.0" stroke="#FE8E02" stroke-opacity="0.82" stroke-width="0.3"><path d="
M 295.00 230.00 
C 295.25 229.75 296.00 230.00 296.00 230.00
C 296.00 227.00 296.00 224.00 296.00 221.00
C 280.33 221.00 264.67 221.00 249.00 221.00
C 263.34 223.33 279.83 221.33 295.00 222.00
C 295.18 224.65 294.76 227.36 295.00 230.00 Z"/>
</g>
<g fill="None" fill-opacity="0.0" stroke="#FE8903" stroke-opacity="0.80" stroke-width="0.3"><path d="
M 376.00 230.00 
C 376.41 229.81 377.00 230.00 377.00 230.00
C 379.86 226.73 380.65 221.94 386.01 222.01 C 391.37 222.08 398.48 222.00 404.00 222.00
C 407.33 222.00 410.67 222.00 414.00 222.00
C 410.59 216.99 396.72 223.48 391.00 221.00 C 385.28 218.52 377.61 224.23 376.00 230.00 Z"/>
</g>
<g fill="None" fill-opacity="0.0" stroke="#FC7102" stroke-opacity="1.00" stroke-width="0.3"><path d="
M 377.00 230.00 
C 377.50 230.00 378.53 230.12 379.00 230.00
C 382.71 227.48 383.19 223.04 389.00 224.00 C 394.81 224.96 399.01 222.48 404.00 222.00
C 398.48 222.00 391.37 222.08 386.01 222.01 C 380.65 221.94 379.86 226.73 377.00 230.00 Z"/>
</g>
<g fill="None" fill-opacity="0.0" stroke="#FA9403" stroke-opacity="1.00" stroke-width="0.3"><path d="
M 379.00 230.00 
C 388.98 227.40 399.76 225.72 411.00 227.00
C 402.65 229.93 391.66 226.08 383.00 229.00
C 391.76 231.31 402.49 229.35 412.00 230.00
C 413.14 228.21 415.58 224.33 414.00 222.00
C 410.67 222.00 407.33 222.00 404.00 222.00
C 399.01 222.48 394.81 224.96 389.00 224.00 C 383.19 223.04 382.71 227.48 379.00 230.00 Z"/>
</g>
<g fill="None" fill-opacity="0.0" stroke="#FEB407" stroke-opacity="1.00" stroke-width="0.3"><path d="
M 231.00 229.00 
C 231.98 229.00 233.79 229.87 235.00 230.00
C 253.00 224.77 275.48 230.59 294.00 227.00
C 274.61 231.17 248.73 220.56 231.00 229.00 Z"/>
</g>
<g fill="None" fill-opacity="0.0" stroke="#FDEA02" stroke-opacity="0.99" stroke-width="0.3"><path d="
M 379.00 230.00 
C 378.53 230.12 377.50 230.00 377.00 230.00
C 377.00 230.00 376.41 229.81 376.00 230.00
C 371.65 231.97 368.83 238.95 365.30 242.30 C 361.77 245.66 358.62 250.88 356.00 255.00
C 357.09 254.67 358.86 255.00 360.00 255.00
C 370.19 255.00 380.86 254.08 391.00 255.00
C 398.63 249.66 406.95 237.90 412.00 230.00
C 402.49 229.35 391.76 231.31 383.00 229.00
C 391.66 226.08 402.65 229.93 411.00 227.00
C 399.76 225.72 388.98 227.40 379.00 230.00 Z"/>
</g>
<g fill="None" fill-opacity="0.0" stroke="#F6CE0E" stroke-opacity="1.00" stroke-width="0.3"><path d="
M 229.00 230.00 
C 249.81 231.95 273.81 232.91 295.00 231.00
C 295.00 230.50 295.00 230.00 295.00 230.00
C 275.18 228.21 254.78 232.09 235.00 230.00
C 233.79 229.87 231.98 229.00 231.00 229.00
C 230.83 229.08 228.93 230.02 229.00 230.00 Z"/>
</g>
<g fill="None" fill-opacity="0.0" stroke="#FCED06" stroke-opacity="0.99" stroke-width="0.3"><path d="
M 214.00 237.00 
C 218.13 244.85 233.82 246.71 238.00 255.00
C 242.80 251.67 251.54 255.25 257.00 254.00 C 262.46 252.75 271.98 255.45 277.00 254.00 C 282.02 252.55 293.14 257.08 296.00 253.00
C 294.18 246.58 295.00 238.18 295.00 231.00
C 273.81 232.91 249.81 231.95 229.00 230.00
C 226.27 229.74 221.63 229.28 219.00 230.00
C 216.19 232.47 215.42 234.61 214.00 237.00 Z"/>
</g>
<g fill="None" fill-opacity="0.0" stroke="#FDEA01" stroke-opacity="0.84" stroke-width="0.3"><path d="
M 295.00 231.00 
C 295.00 238.18 294.18 246.58 296.00 253.00
C 297.73 250.53 295.27 244.06 296.00 241.00 C 296.73 237.94 296.00 233.21 296.00 230.00
C 296.00 230.00 295.25 229.75 295.00 230.00
C 295.00 230.00 295.00 230.50 295.00 231.00 Z"/>
</g>
<g fill="None" fill-opacity="0.0" stroke="#FDED02" stroke-opacity="0.99" stroke-width="0.3"><path d="
M 316.00 255.00 
C 324.83 254.20 335.17 254.20 344.00 255.00
C 343.99 246.67 344.00 238.33 344.00 230.00
C 344.00 230.00 343.50 230.00 343.00 230.00
C 334.00 230.00 325.00 230.00 316.00 230.00
C 316.00 238.33 316.00 246.67 316.00 255.00 Z"/>
</g>
<g fill="None" fill-opacity="0.0" stroke="#020202" stroke-opacity="1.00" stroke-width="0.3"><path d="
M 212.00 276.00 
C 212.24 273.50 217.90 271.78 219.75 269.75 C 221.60 267.72 226.57 265.25 229.00 264.00
C 231.28 262.13 232.90 258.85 236.00 258.00
C 235.78 257.28 237.58 255.29 238.00 255.00
C 233.82 246.71 218.13 244.85 214.00 237.00
C 207.52 247.91 204.94 263.39 212.00 276.00 Z"/>
</g>
<g fill="None" fill-opacity="0.0" stroke="#426563" stroke-opacity="1.00" stroke-width="0.3"><path d="
M 161.00 243.00 
C 159.27 240.53 157.53 239.50 155.00 238.00
C 157.12 239.78 158.09 241.95 161.00 243.00 Z"/>
</g>
<g fill="None" fill-opacity="0.0" stroke="#355D51" stroke-opacity="1.00" stroke-width="0.3"><path d="
M 172.00 251.00 
C 168.69 248.12 165.85 245.39 162.00 243.00
C 164.49 246.57 168.44 248.56 172.00 251.00 Z"/>
</g>
<g fill="None" fill-opacity="0.0" stroke="#FAF9FA" stroke-opacity="1.00" stroke-width="0.3"><path d="
M 99.00 267.00 
C 104.98 264.15 110.42 259.75 115.00 255.00
C 108.74 252.91 105.28 245.78 99.00 244.00
C 99.00 251.67 99.00 259.33 99.00 267.00 Z"/>
</g>
<g fill="None" fill-opacity="0.0" stroke="#74B016" stroke-opacity="0.99" stroke-width="0.3"><path d="
M 316.00 256.00 
C 324.51 256.77 333.45 256.00 342.00 256.00
C 342.50 256.00 343.00 256.00 343.00 256.00
C 343.50 256.00 344.00 256.00 344.00 256.00
C 344.00 256.00 344.00 255.50 344.00 255.00
C 335.17 254.20 324.83 254.20 316.00 255.00
C 316.00 255.00 316.00 255.50 316.00 256.00 Z"/>
</g>
<g fill="None" fill-opacity="0.0" stroke="#16A41A" stroke-opacity="0.99" stroke-width="0.3"><path d="
M 355.00 256.00 
C 356.29 256.20 358.49 255.29 359.00 257.00
C 352.73 262.93 349.28 271.76 342.00 277.00
C 343.98 280.18 350.61 270.76 352.25 268.25 C 353.90 265.75 361.23 259.52 361.00 256.00
C 360.65 255.95 360.27 255.13 360.00 255.00
C 358.86 255.00 357.09 254.67 356.00 255.00
C 355.65 255.11 355.25 255.75 355.00 256.00 Z"/>
</g>
<g fill="None" fill-opacity="0.0" stroke="#76B117" stroke-opacity="1.00" stroke-width="0.3"><path d="
M 361.00 256.00 
C 369.59 257.24 379.31 256.00 388.00 256.00
C 388.39 256.00 390.76 256.26 391.00 256.00
C 391.00 256.00 390.77 255.16 391.00 255.00
C 380.86 254.08 370.19 255.00 360.00 255.00
C 360.27 255.13 360.65 255.95 361.00 256.00 Z"/>
</g>
<g fill="None" fill-opacity="0.0" stroke="#018615" stroke-opacity="1.00" stroke-width="0.3"><path d="
M 316.00 280.00 
C 338.25 277.99 361.65 280.00 384.00 280.00
C 381.41 278.67 380.67 269.99 378.00 268.00
C 382.50 265.00 384.95 260.16 388.00 256.00
C 379.31 256.00 369.59 257.24 361.00 256.00
C 361.23 259.52 353.90 265.75 352.25 268.25 C 350.61 270.76 343.98 280.18 342.00 277.00
C 339.92 273.66 341.63 260.08 342.00 256.00
C 333.45 256.00 324.51 256.77 316.00 256.00
C 316.00 264.00 316.00 272.00 316.00 280.00 Z"/>
</g>
<g fill="None" fill-opacity="0.0" stroke="#015B0E" stroke-opacity="0.97" stroke-width="0.3"><path d="
M 342.00 277.00 
C 349.28 271.76 352.73 262.93 359.00 257.00
C 358.49 255.29 356.29 256.20 355.00 256.00
C 352.19 258.75 349.09 262.43 347.00 266.00
C 346.86 266.24 345.96 271.02 343.00 270.00
C 343.00 265.33 343.00 260.67 343.00 256.00
C 343.00 256.00 342.50 256.00 342.00 256.00
C 341.63 260.08 339.92 273.66 342.00 277.00 Z"/>
</g>
<g fill="None" fill-opacity="0.0" stroke="#017612" stroke-opacity="0.81" stroke-width="0.3"><path d="
M 347.00 266.00 
C 345.46 266.45 345.88 268.76 344.00 269.00
C 344.00 264.67 344.00 260.33 344.00 256.00
C 344.00 256.00 343.50 256.00 343.00 256.00
C 343.00 260.67 343.00 265.33 343.00 270.00
C 345.96 271.02 346.86 266.24 347.00 266.00 Z"/>
</g>
<g fill="None" fill-opacity="0.0" stroke="#016810" stroke-opacity="0.96" stroke-width="0.3"><path d="
M 384.00 280.00 
C 385.14 280.00 386.91 279.67 388.00 280.00
C 386.43 276.79 381.29 270.14 382.75 266.75 C 384.20 263.35 388.66 259.06 391.00 256.00
C 390.76 256.26 388.39 256.00 388.00 256.00
C 384.95 260.16 382.50 265.00 378.00 268.00
C 380.67 269.99 381.41 278.67 384.00 280.00 Z"/>
</g>
<g fill="None" fill-opacity="0.0" stroke="#026510" stroke-opacity="0.98" stroke-width="0.3"><path d="
M 229.00 264.00 
C 230.97 262.98 232.39 261.17 235.00 262.00
C 236.77 269.40 248.03 264.70 255.00 266.00 C 261.97 267.30 273.43 263.42 279.00 268.00
C 280.27 268.32 281.76 268.52 283.00 269.00
C 288.00 270.95 291.73 278.55 296.00 280.00
C 297.14 280.00 298.92 279.67 300.00 280.00
C 296.06 268.95 284.35 261.90 273.00 261.00
C 268.58 261.08 257.69 262.83 253.00 262.00 C 248.31 261.17 236.31 263.95 237.00 259.00
C 236.77 258.72 236.08 258.24 236.00 258.00
C 232.90 258.85 231.28 262.13 229.00 264.00 Z"/>
</g>
<g fill="None" fill-opacity="0.0" stroke="#027713" stroke-opacity="0.85" stroke-width="0.3"><path d="
M 273.00 261.00 
C 267.36 260.55 259.40 261.77 254.00 261.00 C 248.60 260.23 240.74 263.47 237.00 259.00
C 236.31 263.95 248.31 261.17 253.00 262.00 C 257.69 262.83 268.58 261.08 273.00 261.00 Z"/>
</g>
<g fill="None" fill-opacity="0.0" stroke="#038616" stroke-opacity="1.00" stroke-width="0.3"><path d="
M 229.00 264.00 
C 226.57 265.25 221.60 267.72 219.75 269.75 C 217.90 271.78 212.24 273.50 212.00 276.00
C 212.74 277.32 212.97 278.64 214.00 280.00
C 222.19 277.37 232.33 281.14 241.00 280.00 C 249.67 278.86 259.06 280.40 268.00 280.00 C 276.94 279.60 286.96 280.00 296.00 280.00
C 291.73 278.55 288.00 270.95 283.00 269.00
C 281.56 268.77 271.99 268.54 265.00 268.00 C 258.01 267.46 246.41 268.40 239.00 268.00
C 251.36 266.28 266.30 266.41 279.00 268.00
C 273.43 263.42 261.97 267.30 255.00 266.00 C 248.03 264.70 236.77 269.40 235.00 262.00
C 232.39 261.17 230.97 262.98 229.00 264.00 Z"/>
</g>
<g fill="None" fill-opacity="0.0" stroke="#020203" stroke-opacity="1.00" stroke-width="0.3"><path d="
M 165.00 288.00 
C 165.00 295.31 164.72 302.69 165.00 310.00
C 165.82 307.97 170.54 307.05 172.00 306.00
C 174.78 304.01 179.31 300.13 181.75 297.75 C 184.18 295.36 191.80 292.63 193.00 290.00
C 193.00 282.33 193.00 274.67 193.00 267.00
C 191.18 271.48 181.26 273.47 178.70 277.70 C 176.13 281.93 166.76 283.24 165.00 288.00 Z"/>
</g>
<g fill="None" fill-opacity="0.0" stroke="#02A41B" stroke-opacity="1.00" stroke-width="0.3"><path d="
M 283.00 269.00 
C 281.76 268.52 280.27 268.32 279.00 268.00
C 266.30 266.41 251.36 266.28 239.00 268.00
C 246.41 268.40 258.01 267.46 265.00 268.00 C 271.99 268.54 281.56 268.77 283.00 269.00 Z"/>
</g>
<g fill="None" fill-opacity="0.0" stroke="#23CFF6" stroke-opacity="1.00" stroke-width="0.3"><path d="
M 99.00 289.00 
C 99.00 297.00 99.00 305.00 99.00 313.00
C 100.50 313.10 101.87 311.81 103.00 311.00
C 105.96 308.86 108.89 306.14 112.00 304.00
C 115.76 301.42 120.72 298.97 124.00 296.00
C 130.22 290.37 126.19 277.08 127.00 270.00
C 124.69 274.20 116.53 276.45 113.08 280.08 C 109.63 283.71 103.34 287.11 99.00 289.00 Z"/>
</g>
<g fill="None" fill-opacity="0.0" stroke="#026C75" stroke-opacity="1.00" stroke-width="0.3"><path d="
M 215.00 281.00 
C 224.03 282.30 233.84 280.94 243.00 281.00 C 252.16 281.06 262.93 282.01 272.00 281.00 C 281.07 279.99 292.42 283.75 301.00 281.00
C 300.88 280.65 300.35 280.11 300.00 280.00
C 298.92 279.67 297.14 280.00 296.00 280.00
C 286.96 280.00 276.94 279.60 268.00 280.00 C 259.06 280.40 249.67 278.86 241.00 280.00 C 232.33 281.14 222.19 277.37 214.00 280.00
C 214.22 280.29 214.79 280.73 215.00 281.00 Z"/>
</g>
<g fill="None" fill-opacity="0.0" stroke="#026C75" stroke-opacity="1.00" stroke-width="0.3"><path d="
M 316.00 281.00 
C 327.30 282.02 340.73 281.97 352.00 281.00 C 363.27 280.03 378.33 284.43 389.00 281.00
C 388.81 280.68 388.35 280.11 388.00 280.00
C 386.91 279.67 385.14 280.00 384.00 280.00
C 361.65 280.00 338.25 277.99 316.00 280.00
C 316.00 280.00 316.00 280.50 316.00 281.00 Z"/>
</g>
<g fill="None" fill-opacity="0.0" stroke="#0A4DFB" stroke-opacity="1.00" stroke-width="0.3"><path d="
M 208.00 306.00 
C 239.33 306.00 270.67 306.00 302.00 306.00
C 304.08 298.19 303.46 288.50 301.00 281.00
C 292.42 283.75 281.07 279.99 272.00 281.00 C 262.93 282.01 252.16 281.06 243.00 281.00 C 233.84 280.94 224.03 282.30 215.00 281.00
C 228.19 301.02 255.42 288.56 274.00 295.00
C 265.99 302.29 253.86 298.17 243.00 299.00 C 232.14 299.83 219.07 298.38 208.00 299.00
C 207.96 301.33 208.05 303.67 208.00 306.00 Z"/>
</g>
<g fill="None" fill-opacity="0.0" stroke="#074FFB" stroke-opacity="1.00" stroke-width="0.3"><path d="
M 316.00 306.00 
C 327.12 303.33 341.17 309.56 352.00 306.00
C 356.30 303.33 357.43 297.55 362.00 295.00
C 364.25 298.78 366.91 302.36 369.00 306.00
C 373.31 307.73 379.22 305.41 384.00 306.00 C 388.78 306.59 395.08 306.00 400.00 306.00
C 400.80 306.00 402.25 305.74 403.00 306.00
C 398.01 297.94 393.74 288.93 389.00 281.00
C 378.33 284.43 363.27 280.03 352.00 281.00 C 340.73 281.97 327.30 282.02 316.00 281.00
C 316.00 289.33 316.00 297.67 316.00 306.00 Z"/>
</g>
<g fill="None" fill-opacity="0.0" stroke="#154BE9" stroke-opacity="1.00" stroke-width="0.3"><path d="
M 172.00 306.00 
C 178.74 304.68 186.19 306.99 193.00 306.00
C 193.00 300.67 193.00 295.33 193.00 290.00
C 191.80 292.63 184.18 295.36 181.75 297.75 C 179.31 300.13 174.78 304.01 172.00 306.00 Z"/>
</g>
<g fill="None" fill-opacity="0.0" stroke="#773A0C" stroke-opacity="1.00" stroke-width="0.3"><path d="
M 124.00 296.00 
C 120.72 298.97 115.76 301.42 112.00 304.00
C 108.75 306.83 106.69 308.97 103.00 311.00
C 101.87 311.81 100.50 313.10 99.00 313.00
C 99.00 319.00 99.00 325.00 99.00 331.00
C 101.67 331.00 104.33 331.00 107.00 331.00
C 109.29 330.28 114.53 325.36 116.70 323.70 C 118.86 322.03 126.03 318.22 127.00 316.00
C 127.00 308.67 127.00 301.33 127.00 294.00
C 125.78 294.32 125.16 295.49 124.00 296.00 Z"/>
</g>
<g fill="None" fill-opacity="0.0" stroke="#47583F" stroke-opacity="1.00" stroke-width="0.3"><path d="
M 103.00 311.00 
C 106.69 308.97 108.75 306.83 112.00 304.00
C 108.89 306.14 105.96 308.86 103.00 311.00 Z"/>
</g>
<g fill="None" fill-opacity="0.0" stroke="#950396" stroke-opacity="0.99" stroke-width="0.3"><path d="
M 165.00 310.00 
C 165.52 316.97 166.47 323.79 166.00 331.00
C 175.00 331.00 184.00 331.00 193.00 331.00
C 193.00 322.67 193.00 314.33 193.00 306.00
C 186.19 306.99 178.74 304.68 172.00 306.00
C 170.54 307.05 165.82 307.97 165.00 310.00 Z"/>
</g>
<g fill="None" fill-opacity="0.0" stroke="#960397" stroke-opacity="0.99" stroke-width="0.3"><path d="
M 302.00 306.00 
C 270.67 306.00 239.33 306.00 208.00 306.00
C 208.00 314.33 208.00 322.67 208.00 331.00
C 237.81 326.41 291.40 345.70 302.00 306.00 Z"/>
</g>
<g fill="None" fill-opacity="0.0" stroke="#950396" stroke-opacity="0.98" stroke-width="0.3"><path d="
M 352.00 306.00 
C 341.17 309.56 327.12 303.33 316.00 306.00
C 316.00 314.33 316.00 322.67 316.00 331.00
C 325.33 331.00 334.67 331.00 344.00 331.00
C 341.88 321.03 346.51 313.16 352.00 306.00 Z"/>
</g>
<g fill="None" fill-opacity="0.0" stroke="#970399" stroke-opacity="1.00" stroke-width="0.3"><path d="
M 383.00 331.00 
C 391.11 328.16 404.86 327.50 414.00 330.00
C 414.00 330.00 413.97 329.50 414.00 329.00
C 410.24 326.55 409.74 320.93 406.70 318.30 C 403.65 315.68 403.34 307.65 400.00 306.00
C 395.08 306.00 388.78 306.59 384.00 306.00 C 379.22 305.41 373.31 307.73 369.00 306.00
C 371.12 309.68 373.11 315.75 376.08 318.92 C 379.04 322.10 378.96 329.26 383.00 331.00 Z"/>
</g>
<g fill="None" fill-opacity="0.0" stroke="#730274" stroke-opacity="0.97" stroke-width="0.3"><path d="
M 414.00 329.00 
C 414.54 320.83 406.95 312.38 403.00 306.00
C 402.25 305.74 400.80 306.00 400.00 306.00
C 403.34 307.65 403.65 315.68 406.70 318.30 C 409.74 320.93 410.24 326.55 414.00 329.00 Z"/>
</g>
<g fill="None" fill-opacity="0.0" stroke="#030102" stroke-opacity="0.98" stroke-width="0.3"><path d="
M 107.00 331.00 
C 113.67 331.00 120.33 331.00 127.00 331.00
C 127.00 326.00 127.00 321.00 127.00 316.00
C 126.03 318.22 118.86 322.03 116.70 323.70 C 114.53 325.36 109.29 330.28 107.00 331.00 Z"/>
</g>
<g fill="None" fill-opacity="0.0" stroke="#7A017B" stroke-opacity="0.87" stroke-width="0.3"><path d="
M 383.00 331.00 
C 386.59 332.55 395.19 330.81 399.00 331.00 C 402.81 331.19 411.57 332.51 414.00 330.00
C 404.86 327.50 391.11 328.16 383.00 331.00 Z"/>
</g>
<g fill="#000000" fill-opacity="0.00" stroke="None">
<path d="
M 0.00 512.00 
L 512.00 512.00
L 512.00 0.00
L 0.00 0.00
L 0.00 512.00
M 344.00 205.00 
C 344.00 213.33 344.00 221.67 344.00 230.00
C 344.00 238.33 343.99 246.67 344.00 255.00
C 344.00 255.50 344.00 256.00 344.00 256.00
C 344.00 260.33 344.00 264.67 344.00 269.00
C 345.88 268.76 345.46 266.45 347.00 266.00
C 349.09 262.43 352.19 258.75 355.00 256.00
C 355.25 255.75 355.65 255.11 356.00 255.00
C 358.62 250.88 361.77 245.66 365.30 242.30 C 368.83 238.95 371.65 231.97 376.00 230.00
C 377.61 224.23 385.28 218.52 391.00 221.00 C 396.72 223.48 410.59 216.99 414.00 222.00
C 415.58 224.33 413.14 228.21 412.00 230.00
C 406.95 237.90 398.63 249.66 391.00 255.00
C 390.77 255.16 391.00 256.00 391.00 256.00
C 388.66 259.06 384.20 263.35 382.75 266.75 C 381.29 270.14 386.43 276.79 388.00 280.00
C 388.35 280.11 388.81 280.68 389.00 281.00
C 393.74 288.93 398.01 297.94 403.00 306.00
C 406.95 312.38 414.54 320.83 414.00 329.00
C 413.97 329.50 414.00 330.00 414.00 330.00
C 411.57 332.51 402.81 331.19 399.00 331.00 C 395.19 330.81 386.59 332.55 383.00 331.00
C 378.96 329.26 379.04 322.10 376.08 318.92 C 373.11 315.75 371.12 309.68 369.00 306.00
C 366.91 302.36 364.25 298.78 362.00 295.00
C 357.43 297.55 356.30 303.33 352.00 306.00
C 346.51 313.16 341.88 321.03 344.00 331.00
C 334.67 331.00 325.33 331.00 316.00 331.00
C 316.00 322.67 316.00 314.33 316.00 306.00
C 316.00 297.67 316.00 289.33 316.00 281.00
C 316.00 280.50 316.00 280.00 316.00 280.00
C 316.00 272.00 316.00 264.00 316.00 256.00
C 316.00 255.50 316.00 255.00 316.00 255.00
C 316.00 246.67 316.00 238.33 316.00 230.00
C 316.00 221.67 316.00 213.33 316.00 205.00
C 316.00 196.67 316.00 188.33 316.00 180.00
C 325.33 180.00 334.67 180.00 344.00 180.00
C 344.00 188.33 344.00 196.67 344.00 205.00
M 160.00 221.00 
C 173.37 224.62 185.21 237.93 190.00 250.00
C 192.22 255.58 193.00 260.41 193.00 267.00
C 193.00 274.67 193.00 282.33 193.00 290.00
C 193.00 295.33 193.00 300.67 193.00 306.00
C 193.00 314.33 193.00 322.67 193.00 331.00
C 184.00 331.00 175.00 331.00 166.00 331.00
C 166.47 323.79 165.52 316.97 165.00 310.00
C 164.72 302.69 165.00 295.31 165.00 288.00
C 165.00 280.55 162.49 268.51 168.00 263.00
C 166.65 263.70 165.37 264.35 164.00 265.00
C 161.50 255.93 150.11 249.58 141.00 253.00
C 132.68 255.32 127.95 261.71 127.00 270.00
C 126.19 277.08 130.22 290.37 124.00 296.00
C 125.16 295.49 125.78 294.32 127.00 294.00
C 127.00 301.33 127.00 308.67 127.00 316.00
C 127.00 321.00 127.00 326.00 127.00 331.00
C 120.33 331.00 113.67 331.00 107.00 331.00
C 104.33 331.00 101.67 331.00 99.00 331.00
C 99.00 325.00 99.00 319.00 99.00 313.00
C 99.00 305.00 99.00 297.00 99.00 289.00
C 99.00 281.67 99.00 274.33 99.00 267.00
C 99.00 259.33 99.00 251.67 99.00 244.00
C 99.00 239.86 96.81 223.20 100.00 221.00
C 101.58 219.91 105.23 221.82 107.00 221.00
C 107.10 224.92 112.93 226.08 113.00 230.00
C 120.12 229.25 126.96 218.67 134.00 223.00
C 132.24 218.96 141.26 219.34 145.00 219.00 C 148.74 218.66 156.20 219.97 160.00 221.00
M 296.00 230.00 
C 296.00 233.21 296.73 237.94 296.00 241.00 C 295.27 244.06 297.73 250.53 296.00 253.00
C 293.14 257.08 282.02 252.55 277.00 254.00 C 271.98 255.45 262.46 252.75 257.00 254.00 C 251.54 255.25 242.80 251.67 238.00 255.00
C 237.58 255.29 235.78 257.28 236.00 258.00
C 236.08 258.24 236.77 258.72 237.00 259.00
C 240.74 263.47 248.60 260.23 254.00 261.00 C 259.40 261.77 267.36 260.55 273.00 261.00
C 284.35 261.90 296.06 268.95 300.00 280.00
C 300.35 280.11 300.88 280.65 301.00 281.00
C 303.46 288.50 304.08 298.19 302.00 306.00
C 291.40 345.70 237.81 326.41 208.00 331.00
C 208.00 322.67 208.00 314.33 208.00 306.00
C 208.05 303.67 207.96 301.33 208.00 299.00
C 219.07 298.38 232.14 299.83 243.00 299.00 C 253.86 298.17 265.99 302.29 274.00 295.00
C 255.42 288.56 228.19 301.02 215.00 281.00
C 214.79 280.73 214.22 280.29 214.00 280.00
C 212.97 278.64 212.74 277.32 212.00 276.00
C 204.94 263.39 207.52 247.91 214.00 237.00
C 215.42 234.61 216.19 232.47 219.00 230.00
C 227.85 222.21 236.97 221.00 249.00 221.00
C 264.67 221.00 280.33 221.00 296.00 221.00
C 296.00 224.00 296.00 227.00 296.00 230.00 Z"/>
</g>
<g fill="#FC0100" fill-opacity="0.99" stroke="None">
<path d="
M 316.00 205.00 
C 325.04 204.78 334.37 204.84 343.00 206.00
C 343.05 205.65 343.95 205.23 344.00 205.00
C 344.00 196.67 344.00 188.33 344.00 180.00
C 334.67 180.00 325.33 180.00 316.00 180.00
C 316.00 188.33 316.00 196.67 316.00 205.00 Z"/>
</g>
<g fill="#FD9204" fill-opacity="1.00" stroke="None">
<path d="
M 316.00 230.00 
C 325.00 230.00 334.00 230.00 343.00 230.00
C 342.34 222.68 341.95 213.27 343.00 206.00
C 334.37 204.84 325.04 204.78 316.00 205.00
C 316.00 213.33 316.00 221.67 316.00 230.00 Z"/>
</g>
<g fill="#FD8503" fill-opacity="0.82" stroke="None">
<path d="
M 343.00 206.00 
C 341.95 213.27 342.34 222.68 343.00 230.00
C 343.50 230.00 344.00 230.00 344.00 230.00
C 344.00 221.67 344.00 213.33 344.00 205.00
C 343.95 205.23 343.05 205.65 343.00 206.00 Z"/>
</g>
<g fill="#6E360A" fill-opacity="1.00" stroke="None">
<path d="
M 134.00 223.00 
C 141.53 227.15 147.65 233.64 155.00 238.00
C 157.53 239.50 159.27 240.53 161.00 243.00
C 161.44 243.16 162.00 243.00 162.00 243.00
C 165.85 245.39 168.69 248.12 172.00 251.00
C 174.02 252.39 175.98 253.67 178.00 255.00
C 175.26 258.16 171.26 260.28 168.00 263.00
C 162.49 268.51 165.00 280.55 165.00 288.00
C 166.76 283.24 176.13 281.93 178.70 277.70 C 181.26 273.47 191.18 271.48 193.00 267.00
C 193.00 260.41 192.22 255.58 190.00 250.00
C 188.41 248.10 188.70 248.36 187.00 250.00
C 184.41 244.27 179.16 238.08 174.25 233.75 C 169.34 229.42 158.87 228.03 160.00 221.00
C 156.20 219.97 148.74 218.66 145.00 219.00 C 141.26 219.34 132.24 218.96 134.00 223.00 Z"/>
</g>
<g fill="#FAAFBD" fill-opacity="1.00" stroke="None">
<path d="
M 99.00 244.00 
C 105.28 245.78 108.74 252.91 115.00 255.00
C 110.42 259.75 104.98 264.15 99.00 267.00
C 99.00 274.33 99.00 281.67 99.00 289.00
C 103.34 287.11 109.63 283.71 113.08 280.08 C 116.53 276.45 124.69 274.20 127.00 270.00
C 127.95 261.71 132.68 255.32 141.00 253.00
C 129.77 240.65 112.46 232.69 100.00 221.00
C 96.81 223.20 99.00 239.86 99.00 244.00 Z"/>
</g>
<g fill="#21CDF3" fill-opacity="0.99" stroke="None">
<path d="
M 141.00 253.00 
C 150.11 249.58 161.50 255.93 164.00 265.00
C 165.37 264.35 166.65 263.70 168.00 263.00
C 171.26 260.28 175.26 258.16 178.00 255.00
C 175.98 253.67 174.02 252.39 172.00 251.00
C 168.44 248.56 164.49 246.57 162.00 243.00
C 162.00 243.00 161.44 243.16 161.00 243.00
C 158.09 241.95 157.12 239.78 155.00 238.00
C 147.65 233.64 141.53 227.15 134.00 223.00
C 126.96 218.67 120.12 229.25 113.00 230.00
C 112.93 226.08 107.10 224.92 107.00 221.00
C 105.23 221.82 101.58 219.91 100.00 221.00
C 112.46 232.69 129.77 240.65 141.00 253.00 Z"/>
</g>
<g fill="#4E2608" fill-opacity="0.98" stroke="None">
<path d="
M 190.00 250.00 
C 185.21 237.93 173.37 224.62 160.00 221.00
C 158.87 228.03 169.34 229.42 174.25 233.75 C 179.16 238.08 184.41 244.27 187.00 250.00
C 188.70 248.36 188.41 248.10 190.00 250.00 Z"/>
</g>
<g fill="#FB9303" fill-opacity="1.00" stroke="None">
<path d="
M 219.00 230.00 
C 221.63 229.28 226.27 229.74 229.00 230.00
C 228.93 230.02 230.83 229.08 231.00 229.00
C 248.73 220.56 274.61 231.17 294.00 227.00
C 275.48 230.59 253.00 224.77 235.00 230.00
C 254.78 232.09 275.18 228.21 295.00 230.00
C 294.76 227.36 295.18 224.65 295.00 222.00
C 279.83 221.33 263.34 223.33 249.00 221.00
C 236.97 221.00 227.85 222.21 219.00 230.00 Z"/>
</g>
<g fill="#FE8E02" fill-opacity="0.82" stroke="None">
<path d="
M 295.00 230.00 
C 295.25 229.75 296.00 230.00 296.00 230.00
C 296.00 227.00 296.00 224.00 296.00 221.00
C 280.33 221.00 264.67 221.00 249.00 221.00
C 263.34 223.33 279.83 221.33 295.00 222.00
C 295.18 224.65 294.76 227.36 295.00 230.00 Z"/>
</g>
<g fill="#FE8903" fill-opacity="0.80" stroke="None">
<path d="
M 376.00 230.00 
C 376.41 229.81 377.00 230.00 377.00 230.00
C 379.86 226.73 380.65 221.94 386.01 222.01 C 391.37 222.08 398.48 222.00 404.00 222.00
C 407.33 222.00 410.67 222.00 414.00 222.00
C 410.59 216.99 396.72 223.48 391.00 221.00 C 385.28 218.52 377.61 224.23 376.00 230.00 Z"/>
</g>
<g fill="#FC7102" fill-opacity="1.00" stroke="None">
<path d="
M 377.00 230.00 
C 377.50 230.00 378.53 230.12 379.00 230.00
C 382.71 227.48 383.19 223.04 389.00 224.00 C 394.81 224.96 399.01 222.48 404.00 222.00
C 398.48 222.00 391.37 222.08 386.01 222.01 C 380.65 221.94 379.86 226.73 377.00 230.00 Z"/>
</g>
<g fill="#FA9403" fill-opacity="1.00" stroke="None">
<path d="
M 379.00 230.00 
C 388.98 227.40 399.76 225.72 411.00 227.00
C 402.65 229.93 391.66 226.08 383.00 229.00
C 391.76 231.31 402.49 229.35 412.00 230.00
C 413.14 228.21 415.58 224.33 414.00 222.00
C 410.67 222.00 407.33 222.00 404.00 222.00
C 399.01 222.48 394.81 224.96 389.00 224.00 C 383.19 223.04 382.71 227.48 379.00 230.00 Z"/>
</g>
<g fill="#FEB407" fill-opacity="1.00" stroke="None">
<path d="
M 231.00 229.00 
C 231.98 229.00 233.79 229.87 235.00 230.00
C 253.00 224.77 275.48 230.59 294.00 227.00
C 274.61 231.17 248.73 220.56 231.00 229.00 Z"/>
</g>
<g fill="#FDEA02" fill-opacity="0.99" stroke="None">
<path d="
M 379.00 230.00 
C 378.53 230.12 377.50 230.00 377.00 230.00
C 377.00 230.00 376.41 229.81 376.00 230.00
C 371.65 231.97 368.83 238.95 365.30 242.30 C 361.77 245.66 358.62 250.88 356.00 255.00
C 357.09 254.67 358.86 255.00 360.00 255.00
C 370.19 255.00 380.86 254.08 391.00 255.00
C 398.63 249.66 406.95 237.90 412.00 230.00
C 402.49 229.35 391.76 231.31 383.00 229.00
C 391.66 226.08 402.65 229.93 411.00 227.00
C 399.76 225.72 388.98 227.40 379.00 230.00 Z"/>
</g>
<g fill="#F6CE0E" fill-opacity="1.00" stroke="None">
<path d="
M 229.00 230.00 
C 249.81 231.95 273.81 232.91 295.00 231.00
C 295.00 230.50 295.00 230.00 295.00 230.00
C 275.18 228.21 254.78 232.09 235.00 230.00
C 233.79 229.87 231.98 229.00 231.00 229.00
C 230.83 229.08 228.93 230.02 229.00 230.00 Z"/>
</g>
<g fill="#FCED06" fill-opacity="0.99" stroke="None">
<path d="
M 214.00 237.00 
C 218.13 244.85 233.82 246.71 238.00 255.00
C 242.80 251.67 251.54 255.25 257.00 254.00 C 262.46 252.75 271.98 255.45 277.00 254.00 C 282.02 252.55 293.14 257.08 296.00 253.00
C 294.18 246.58 295.00 238.18 295.00 231.00
C 273.81 232.91 249.81 231.95 229.00 230.00
C 226.27 229.74 221.63 229.28 219.00 230.00
C 216.19 232.47 215.42 234.61 214.00 237.00 Z"/>
</g>
<g fill="#FDEA01" fill-opacity="0.84" stroke="None">
<path d="
M 295.00 231.00 
C 295.00 238.18 294.18 246.58 296.00 253.00
C 297.73 250.53 295.27 244.06 296.00 241.00 C 296.73 237.94 296.00 233.21 296.00 230.00
C 296.00 230.00 295.25 229.75 295.00 230.00
C 295.00 230.00 295.00 230.50 295.00 231.00 Z"/>
</g>
<g fill="#FDED02" fill-opacity="0.99" stroke="None">
<path d="
M 316.00 255.00 
C 324.83 254.20 335.17 254.20 344.00 255.00
C 343.99 246.67 344.00 238.33 344.00 230.00
C 344.00 230.00 343.50 230.00 343.00 230.00
C 334.00 230.00 325.00 230.00 316.00 230.00
C 316.00 238.33 316.00 246.67 316.00 255.00 Z"/>
</g>
<g fill="#020202" fill-opacity="1.00" stroke="None">
<path d="
M 212.00 276.00 
C 212.24 273.50 217.90 271.78 219.75 269.75 C 221.60 267.72 226.57 265.25 229.00 264.00
C 231.28 262.13 232.90 258.85 236.00 258.00
C 235.78 257.28 237.58 255.29 238.00 255.00
C 233.82 246.71 218.13 244.85 214.00 237.00
C 207.52 247.91 204.94 263.39 212.00 276.00 Z"/>
</g>
<g fill="#426563" fill-opacity="1.00" stroke="None">
<path d="
M 161.00 243.00 
C 159.27 240.53 157.53 239.50 155.00 238.00
C 157.12 239.78 158.09 241.95 161.00 243.00 Z"/>
</g>
<g fill="#355D51" fill-opacity="1.00" stroke="None">
<path d="
M 172.00 251.00 
C 168.69 248.12 165.85 245.39 162.00 243.00
C 164.49 246.57 168.44 248.56 172.00 251.00 Z"/>
</g>
<g fill="#FAF9FA" fill-opacity="1.00" stroke="None">
<path d="
M 99.00 267.00 
C 104.98 264.15 110.42 259.75 115.00 255.00
C 108.74 252.91 105.28 245.78 99.00 244.00
C 99.00 251.67 99.00 259.33 99.00 267.00 Z"/>
</g>
<g fill="#74B016" fill-opacity="0.99" stroke="None">
<path d="
M 316.00 256.00 
C 324.51 256.77 333.45 256.00 342.00 256.00
C 342.50 256.00 343.00 256.00 343.00 256.00
C 343.50 256.00 344.00 256.00 344.00 256.00
C 344.00 256.00 344.00 255.50 344.00 255.00
C 335.17 254.20 324.83 254.20 316.00 255.00
C 316.00 255.00 316.00 255.50 316.00 256.00 Z"/>
</g>
<g fill="#16A41A" fill-opacity="0.99" stroke="None">
<path d="
M 355.00 256.00 
C 356.29 256.20 358.49 255.29 359.00 257.00
C 352.73 262.93 349.28 271.76 342.00 277.00
C 343.98 280.18 350.61 270.76 352.25 268.25 C 353.90 265.75 361.23 259.52 361.00 256.00
C 360.65 255.95 360.27 255.13 360.00 255.00
C 358.86 255.00 357.09 254.67 356.00 255.00
C 355.65 255.11 355.25 255.75 355.00 256.00 Z"/>
</g>
<g fill="#76B117" fill-opacity="1.00" stroke="None">
<path d="
M 361.00 256.00 
C 369.59 257.24 379.31 256.00 388.00 256.00
C 388.39 256.00 390.76 256.26 391.00 256.00
C 391.00 256.00 390.77 255.16 391.00 255.00
C 380.86 254.08 370.19 255.00 360.00 255.00
C 360.27 255.13 360.65 255.95 361.00 256.00 Z"/>
</g>
<g fill="#018615" fill-opacity="1.00" stroke="None">
<path d="
M 316.00 280.00 
C 338.25 277.99 361.65 280.00 384.00 280.00
C 381.41 278.67 380.67 269.99 378.00 268.00
C 382.50 265.00 384.95 260.16 388.00 256.00
C 379.31 256.00 369.59 257.24 361.00 256.00
C 361.23 259.52 353.90 265.75 352.25 268.25 C 350.61 270.76 343.98 280.18 342.00 277.00
C 339.92 273.66 341.63 260.08 342.00 256.00
C 333.45 256.00 324.51 256.77 316.00 256.00
C 316.00 264.00 316.00 272.00 316.00 280.00 Z"/>
</g>
<g fill="#015B0E" fill-opacity="0.97" stroke="None">
<path d="
M 342.00 277.00 
C 349.28 271.76 352.73 262.93 359.00 257.00
C 358.49 255.29 356.29 256.20 355.00 256.00
C 352.19 258.75 349.09 262.43 347.00 266.00
C 346.86 266.24 345.96 271.02 343.00 270.00
C 343.00 265.33 343.00 260.67 343.00 256.00
C 343.00 256.00 342.50 256.00 342.00 256.00
C 341.63 260.08 339.92 273.66 342.00 277.00 Z"/>
</g>
<g fill="#017612" fill-opacity="0.81" stroke="None">
<path d="
M 347.00 266.00 
C 345.46 266.45 345.88 268.76 344.00 269.00
C 344.00 264.67 344.00 260.33 344.00 256.00
C 344.00 256.00 343.50 256.00 343.00 256.00
C 343.00 260.67 343.00 265.33 343.00 270.00
C 345.96 271.02 346.86 266.24 347.00 266.00 Z"/>
</g>
<g fill="#016810" fill-opacity="0.96" stroke="None">
<path d="
M 384.00 280.00 
C 385.14 280.00 386.91 279.67 388.00 280.00
C 386.43 276.79 381.29 270.14 382.75 266.75 C 384.20 263.35 388.66 259.06 391.00 256.00
C 390.76 256.26 388.39 256.00 388.00 256.00
C 384.95 260.16 382.50 265.00 378.00 268.00
C 380.67 269.99 381.41 278.67 384.00 280.00 Z"/>
</g>
<g fill="#026510" fill-opacity="0.98" stroke="None">
<path d="
M 229.00 264.00 
C 230.97 262.98 232.39 261.17 235.00 262.00
C 236.77 269.40 248.03 264.70 255.00 266.00 C 261.97 267.30 273.43 263.42 279.00 268.00
C 280.27 268.32 281.76 268.52 283.00 269.00
C 288.00 270.95 291.73 278.55 296.00 280.00
C 297.14 280.00 298.92 279.67 300.00 280.00
C 296.06 268.95 284.35 261.90 273.00 261.00
C 268.58 261.08 257.69 262.83 253.00 262.00 C 248.31 261.17 236.31 263.95 237.00 259.00
C 236.77 258.72 236.08 258.24 236.00 258.00
C 232.90 258.85 231.28 262.13 229.00 264.00 Z"/>
</g>
<g fill="#027713" fill-opacity="0.85" stroke="None">
<path d="
M 273.00 261.00 
C 267.36 260.55 259.40 261.77 254.00 261.00 C 248.60 260.23 240.74 263.47 237.00 259.00
C 236.31 263.95 248.31 261.17 253.00 262.00 C 257.69 262.83 268.58 261.08 273.00 261.00 Z"/>
</g>
<g fill="#038616" fill-opacity="1.00" stroke="None">
<path d="
M 229.00 264.00 
C 226.57 265.25 221.60 267.72 219.75 269.75 C 217.90 271.78 212.24 273.50 212.00 276.00
C 212.74 277.32 212.97 278.64 214.00 280.00
C 222.19 277.37 232.33 281.14 241.00 280.00 C 249.67 278.86 259.06 280.40 268.00 280.00 C 276.94 279.60 286.96 280.00 296.00 280.00
C 291.73 278.55 288.00 270.95 283.00 269.00
C 281.56 268.77 271.99 268.54 265.00 268.00 C 258.01 267.46 246.41 268.40 239.00 268.00
C 251.36 266.28 266.30 266.41 279.00 268.00
C 273.43 263.42 261.97 267.30 255.00 266.00 C 248.03 264.70 236.77 269.40 235.00 262.00
C 232.39 261.17 230.97 262.98 229.00 264.00 Z"/>
</g>
<g fill="#020203" fill-opacity="1.00" stroke="None">
<path d="
M 165.00 288.00 
C 165.00 295.31 164.72 302.69 165.00 310.00
C 165.82 307.97 170.54 307.05 172.00 306.00
C 174.78 304.01 179.31 300.13 181.75 297.75 C 184.18 295.36 191.80 292.63 193.00 290.00
C 193.00 282.33 193.00 274.67 193.00 267.00
C 191.18 271.48 181.26 273.47 178.70 277.70 C 176.13 281.93 166.76 283.24 165.00 288.00 Z"/>
</g>
<g fill="#02A41B" fill-opacity="1.00" stroke="None">
<path d="
M 283.00 269.00 
C 281.76 268.52 280.27 268.32 279.00 268.00
C 266.30 266.41 251.36 266.28 239.00 268.00
C 246.41 268.40 258.01 267.46 265.00 268.00 C 271.99 268.54 281.56 268.77 283.00 269.00 Z"/>
</g>
<g fill="#23CFF6" fill-opacity="1.00" stroke="None">
<path d="
M 99.00 289.00 
C 99.00 297.00 99.00 305.00 99.00 313.00
C 100.50 313.10 101.87 311.81 103.00 311.00
C 105.96 308.86 108.89 306.14 112.00 304.00
C 115.76 301.42 120.72 298.97 124.00 296.00
C 130.22 290.37 126.19 277.08 127.00 270.00
C 124.69 274.20 116.53 276.45 113.08 280.08 C 109.63 283.71 103.34 287.11 99.00 289.00 Z"/>
</g>
<g fill="#026C75" fill-opacity="1.00" stroke="None">
<path d="
M 215.00 281.00 
C 224.03 282.30 233.84 280.94 243.00 281.00 C 252.16 281.06 262.93 282.01 272.00 281.00 C 281.07 279.99 292.42 283.75 301.00 281.00
C 300.88 280.65 300.35 280.11 300.00 280.00
C 298.92 279.67 297.14 280.00 296.00 280.00
C 286.96 280.00 276.94 279.60 268.00 280.00 C 259.06 280.40 249.67 278.86 241.00 280.00 C 232.33 281.14 222.19 277.37 214.00 280.00
C 214.22 280.29 214.79 280.73 215.00 281.00 Z"/>
</g>
<g fill="#026C75" fill-opacity="1.00" stroke="None">
<path d="
M 316.00 281.00 
C 327.30 282.02 340.73 281.97 352.00 281.00 C 363.27 280.03 378.33 284.43 389.00 281.00
C 388.81 280.68 388.35 280.11 388.00 280.00
C 386.91 279.67 385.14 280.00 384.00 280.00
C 361.65 280.00 338.25 277.99 316.00 280.00
C 316.00 280.00 316.00 280.50 316.00 281.00 Z"/>
</g>
<g fill="#0A4DFB" fill-opacity="1.00" stroke="None">
<path d="
M 208.00 306.00 
C 239.33 306.00 270.67 306.00 302.00 306.00
C 304.08 298.19 303.46 288.50 301.00 281.00
C 292.42 283.75 281.07 279.99 272.00 281.00 C 262.93 282.01 252.16 281.06 243.00 281.00 C 233.84 280.94 224.03 282.30 215.00 281.00
C 228.19 301.02 255.42 288.56 274.00 295.00
C 265.99 302.29 253.86 298.17 243.00 299.00 C 232.14 299.83 219.07 298.38 208.00 299.00
C 207.96 301.33 208.05 303.67 208.00 306.00 Z"/>
</g>
<g fill="#074FFB" fill-opacity="1.00" stroke="None">
<path d="
M 316.00 306.00 
C 327.12 303.33 341.17 309.56 352.00 306.00
C 356.30 303.33 357.43 297.55 362.00 295.00
C 364.25 298.78 366.91 302.36 369.00 306.00
C 373.31 307.73 379.22 305.41 384.00 306.00 C 388.78 306.59 395.08 306.00 400.00 306.00
C 400.80 306.00 402.25 305.74 403.00 306.00
C 398.01 297.94 393.74 288.93 389.00 281.00
C 378.33 284.43 363.27 280.03 352.00 281.00 C 340.73 281.97 327.30 282.02 316.00 281.00
C 316.00 289.33 316.00 297.67 316.00 306.00 Z"/>
</g>
<g fill="#154BE9" fill-opacity="1.00" stroke="None">
<path d="
M 172.00 306.00 
C 178.74 304.68 186.19 306.99 193.00 306.00
C 193.00 300.67 193.00 295.33 193.00 290.00
C 191.80 292.63 184.18 295.36 181.75 297.75 C 179.31 300.13 174.78 304.01 172.00 306.00 Z"/>
</g>
<g fill="#773A0C" fill-opacity="1.00" stroke="None">
<path d="
M 124.00 296.00 
C 120.72 298.97 115.76 301.42 112.00 304.00
C 108.75 306.83 106.69 308.97 103.00 311.00
C 101.87 311.81 100.50 313.10 99.00 313.00
C 99.00 319.00 99.00 325.00 99.00 331.00
C 101.67 331.00 104.33 331.00 107.00 331.00
C 109.29 330.28 114.53 325.36 116.70 323.70 C 118.86 322.03 126.03 318.22 127.00 316.00
C 127.00 308.67 127.00 301.33 127.00 294.00
C 125.78 294.32 125.16 295.49 124.00 296.00 Z"/>
</g>
<g fill="#47583F" fill-opacity="1.00" stroke="None">
<path d="
M 103.00 311.00 
C 106.69 308.97 108.75 306.83 112.00 304.00
C 108.89 306.14 105.96 308.86 103.00 311.00 Z"/>
</g>
<g fill="#950396" fill-opacity="0.99" stroke="None">
<path d="
M 165.00 310.00 
C 165.52 316.97 166.47 323.79 166.00 331.00
C 175.00 331.00 184.00 331.00 193.00 331.00
C 193.00 322.67 193.00 314.33 193.00 306.00
C 186.19 306.99 178.74 304.68 172.00 306.00
C 170.54 307.05 165.82 307.97 165.00 310.00 Z"/>
</g>
<g fill="#960397" fill-opacity="0.99" stroke="None">
<path d="
M 302.00 306.00 
C 270.67 306.00 239.33 306.00 208.00 306.00
C 208.00 314.33 208.00 322.67 208.00 331.00
C 237.81 326.41 291.40 345.70 302.00 306.00 Z"/>
</g>
<g fill="#950396" fill-opacity="0.98" stroke="None">
<path d="
M 352.00 306.00 
C 341.17 309.56 327.12 303.33 316.00 306.00
C 316.00 314.33 316.00 322.67 316.00 331.00
C 325.33 331.00 334.67 331.00 344.00 331.00
C 341.88 321.03 346.51 313.16 352.00 306.00 Z"/>
</g>
<g fill="#970399" fill-opacity="1.00" stroke="None">
<path d="
M 383.00 331.00 
C 391.11 328.16 404.86 327.50 414.00 330.00
C 414.00 330.00 413.97 329.50 414.00 329.00
C 410.24 326.55 409.74 320.93 406.70 318.30 C 403.65 315.68 403.34 307.65 400.00 306.00
C 395.08 306.00 388.78 306.59 384.00 306.00 C 379.22 305.41 373.31 307.73 369.00 306.00
C 371.12 309.68 373.11 315.75 376.08 318.92 C 379.04 322.10 378.96 329.26 383.00 331.00 Z"/>
</g>
<g fill="#730274" fill-opacity="0.97" stroke="None">
<path d="
M 414.00 329.00 
C 414.54 320.83 406.95 312.38 403.00 306.00
C 402.25 305.74 400.80 306.00 400.00 306.00
C 403.34 307.65 403.65 315.68 406.70 318.30 C 409.74 320.93 410.24 326.55 414.00 329.00 Z"/>
</g>
<g fill="#030102" fill-opacity="0.98" stroke="None">
<path d="
M 107.00 331.00 
C 113.67 331.00 120.33 331.00 127.00 331.00
C 127.00 326.00 127.00 321.00 127.00 316.00
C 126.03 318.22 118.86 322.03 116.70 323.70 C 114.53 325.36 109.29 330.28 107.00 331.00 Z"/>
</g>
<g fill="#7A017B" fill-opacity="0.87" stroke="None">
<path d="
M 383.00 331.00 
C 386.59 332.55 395.19 330.81 399.00 331.00 C 402.81 331.19 411.57 332.51 414.00 330.00
C 404.86 327.50 391.11 328.16 383.00 331.00 Z"/>
</g>
</svg>